# 3ds Max Wavefront OBJ Exporter v0.97b - (c)2007 guruware
# File Created: 02.02.2020 12:31:11

mtllib Hous_2_Cut.mtl

#
# object Haus2_T
#

v  3.0000 0.0866 4.5955
v  3.0000 0.0866 -4.5955
v  3.0000 2.9503 -4.5955
v  3.0000 2.9503 4.5955
v  0.0000 0.0866 -4.5955
v  0.0000 5.2366 -4.5955
v  0.0000 0.0866 4.5955
v  -3.0000 2.9503 4.5955
v  -3.0000 0.0866 4.5955
v  0.0000 5.2366 4.5955
v  -3.0000 2.9503 -4.5955
v  -3.0000 0.0866 -4.5955
v  2.8382 3.1656 -4.6573
v  2.8382 0.0866 -4.6573
v  2.8382 0.0866 -4.4337
v  2.8382 3.1656 -4.4337
v  3.0618 2.9980 -4.6573
v  3.0618 0.0866 -4.6573
v  3.0618 2.9980 -4.4337
v  3.0618 0.0866 -4.4337
v  -2.8382 3.1656 -4.6573
v  -2.8382 0.0866 -4.6573
v  -2.8382 0.0866 -4.4337
v  -2.8382 3.1656 -4.4337
v  -3.0618 2.9980 -4.6573
v  -3.0618 0.0866 -4.6573
v  -3.0618 2.9980 -4.4337
v  -3.0618 0.0866 -4.4337
v  2.8382 3.1656 4.6573
v  2.8382 0.0866 4.6573
v  2.8382 0.0866 4.4337
v  2.8382 3.1656 4.4337
v  3.0618 2.9980 4.6573
v  3.0618 0.0866 4.6573
v  3.0618 2.9980 4.4337
v  3.0618 0.0866 4.4337
v  -2.8382 3.1656 4.6573
v  -2.8382 0.0866 4.6573
v  -2.8382 0.0866 4.4337
v  -2.8382 3.1656 4.4337
v  -3.0618 2.9980 4.6573
v  -3.0618 0.0866 4.6573
v  -3.0618 2.9980 4.4337
v  -3.0618 0.0866 4.4337
v  2.9363 3.0267 -4.6485
v  -2.9363 3.0267 -4.6485
v  -2.9363 3.0267 -4.4075
v  2.9363 3.0267 -4.4075
v  2.9363 2.8031 -4.6485
v  -2.9363 2.8031 -4.6485
v  2.9363 2.8031 -4.4075
v  -2.9363 2.8031 -4.4075
v  2.9363 3.0267 4.6485
v  -2.9363 3.0267 4.6485
v  -2.9363 3.0267 4.4075
v  2.9363 3.0267 4.4075
v  2.9363 2.8031 4.6485
v  -2.9363 2.8031 4.6485
v  2.9363 2.8031 4.4075
v  -2.9363 2.8031 4.4075
v  2.9079 0.1732 4.5042
v  2.8873 2.8997 4.4971
v  2.8873 2.8997 -4.4971
v  2.9079 0.1732 -4.5042
v  0.0000 5.1154 -4.5023
v  0.0000 0.1927 -4.4836
v  0.0000 0.1927 4.4836
v  0.0000 5.1154 4.5023
v  -2.8873 2.8997 4.4971
v  -2.9079 0.1732 4.5042
v  -2.9079 0.1732 -4.5042
v  -2.8873 2.8997 -4.4971
v  2.8960 3.0527 -4.5703
v  2.8960 3.0527 -4.5206
v  2.9303 0.1732 -4.5249
v  2.9303 0.1732 -4.5660
v  2.9492 2.9470 -4.5590
v  2.9697 0.1732 -4.5660
v  2.9492 2.9470 -4.5319
v  2.9697 0.1732 -4.5249
v  -2.7804 3.2784 -4.7442
v  -2.7804 3.2784 -4.3467
v  -2.7461 0.0000 -4.3424
v  -2.7461 0.0000 -4.7485
v  -3.1744 3.0490 -4.7555
v  -3.1539 0.0000 -4.7485
v  -3.1744 3.0490 -4.3354
v  -3.1539 0.0000 -4.3424
v  2.7804 3.2784 4.7442
v  2.7804 3.2784 4.3467
v  2.7461 0.0000 4.3424
v  2.7461 0.0000 4.7485
v  3.1744 3.0490 4.7555
v  3.1539 0.0000 4.7485
v  3.1744 3.0490 4.3354
v  3.1539 0.0000 4.3424
v  -2.8960 3.0527 4.5703
v  -2.8960 3.0527 4.5206
v  -2.9303 0.1732 4.5249
v  -2.9303 0.1732 4.5660
v  -2.9492 2.9470 4.5590
v  -2.9697 0.1732 4.5660
v  -2.9492 2.9470 4.5319
v  -2.9697 0.1732 4.5249
v  2.8442 2.9401 -4.5572
v  2.8442 2.9401 -4.4988
v  -2.8442 2.9401 -4.4988
v  -2.8442 2.9401 -4.5572
v  2.8442 2.8897 -4.5572
v  -2.8442 2.8897 -4.5572
v  2.8442 2.8897 -4.4988
v  -2.8442 2.8897 -4.4988
v  3.0284 3.1133 4.7398
v  3.0284 3.1133 4.3163
v  -3.0284 3.1133 4.3163
v  -3.0284 3.1133 4.7398
v  3.0284 2.7165 4.7398
v  -3.0284 2.7165 4.7398
v  3.0284 2.7165 4.3163
v  -3.0284 2.7165 4.3163
# 120 vertices

vn 1.0000 0.0000 -0.0000
vn 0.0000 0.0000 -1.0000
vn 0.0000 -1.0000 -0.0000
vn 0.0000 0.0000 1.0000
vn -1.0000 0.0000 -0.0000
vn 0.5997 0.8002 -0.0000
vn 0.0000 1.0000 -0.0000
vn 0.5997 -0.8003 -0.0000
vn -0.5997 -0.8002 -0.0000
vn -0.5997 0.8002 -0.0000
vn -1.0000 -0.0076 -0.0000
vn 0.0032 0.0015 1.0000
vn 0.0067 1.0000 -0.0000
vn -0.6088 -0.7933 -0.0000
vn -0.0032 0.0015 -1.0000
vn 1.0000 -0.0076 -0.0000
vn 0.0032 0.0015 -1.0000
vn 0.6088 -0.7933 -0.0000
vn -0.0067 1.0000 -0.0000
vn -0.0032 0.0015 1.0000
vn 0.9999 0.0119 -0.0000
vn -0.1225 -0.0016 0.9925
vn -1.0000 -0.0074 -0.0000
vn -0.1225 -0.0016 -0.9925
vn -0.8933 -0.4496 -0.0000
vn 0.9999 0.0104 -0.0000
vn 0.0141 -0.0003 -0.9999
vn -1.0000 -0.0067 -0.0000
vn 0.0141 -0.0003 0.9999
vn -0.5031 0.8642 -0.0000
vn -0.9999 0.0104 -0.0000
vn -0.0141 -0.0003 0.9999
vn 1.0000 -0.0067 -0.0000
vn -0.0141 -0.0003 -0.9999
vn 0.5032 0.8642 -0.0000
vn -0.9999 0.0119 -0.0000
vn 0.1225 -0.0016 -0.9925
vn 1.0000 -0.0074 -0.0000
vn 0.1225 -0.0016 0.9925
vn 0.8932 -0.4496 -0.0000
# 40 vertex normals

vt 0.3510 0.6370 0.0000
vt 0.3510 0.3870 0.0000
vt 0.6010 0.3870 0.0000
vt 0.6010 0.6370 0.0000
vt 0.6166 0.6395 0.0000
vt 0.3666 0.6395 0.0000
vt 0.3666 0.5145 0.0000
vt 0.6166 0.5145 0.0000
vt 0.3750 0.7500 0.0000
vt 0.2500 0.7500 0.0000
vt 0.2500 0.5000 0.0000
vt 0.3750 0.5000 0.0000
vt 0.6178 0.6645 0.0000
vt 0.3678 0.6645 0.0000
vt 0.3678 0.5395 0.0000
vt 0.6178 0.5395 0.0000
vt 0.6142 0.3787 0.0000
vt 0.6142 0.6287 0.0000
vt 0.3642 0.6287 0.0000
vt 0.3642 0.3787 0.0000
vt 0.3678 0.4145 0.0000
vt 0.6178 0.4145 0.0000
vt 0.1250 0.7500 0.0000
vt 0.1250 0.5000 0.0000
vt 0.3666 0.3895 0.0000
vt 0.6166 0.3895 0.0000
vt 0.6250 0.2500 0.0000
vt 0.3750 0.2500 0.0000
vt 0.3750 0.0000 0.0000
vt 0.6250 0.0000 0.0000
vt 0.6250 0.5000 0.0000
vt 0.6250 0.7500 0.0000
vt 0.6250 1.0000 0.0000
vt 0.3750 1.0000 0.0000
vt 0.8750 0.7500 0.0000
vt 0.8750 0.5000 0.0000
vt 0.7500 0.7500 0.0000
vt 0.7500 0.5000 0.0000
# 38 texture coords

o Haus2_T
g Haus2_T
usemtl Material
s off
f 1/1/1 2/2/1 3/3/1 
f 3/3/1 4/4/1 1/1/1 
f 3/5/2 2/6/2 5/7/2 
f 5/7/2 6/8/2 3/5/2 
f 1/9/3 7/10/3 5/11/3 
f 5/11/3 2/12/3 1/9/3 
f 8/13/4 9/14/4 7/15/4 
f 7/15/4 10/16/4 8/13/4 
f 8/17/5 11/18/5 12/19/5 
f 12/19/5 9/20/5 8/17/5 
f 10/16/4 7/15/4 1/21/4 
f 1/21/4 4/22/4 10/16/4 
f 7/10/3 9/23/3 12/24/3 
f 12/24/3 5/11/3 7/10/3 
f 6/8/2 5/7/2 12/25/2 
f 12/25/2 11/26/2 6/8/2 
f 13/27/5 14/28/5 15/29/5 
f 15/29/5 16/30/5 13/27/5 
f 17/31/2 18/12/2 14/28/2 
f 14/28/2 13/27/2 17/31/2 
f 19/32/1 20/9/1 18/12/1 
f 18/12/1 17/31/1 19/32/1 
f 16/33/4 15/34/4 20/9/4 
f 20/9/4 19/32/4 16/33/4 
f 20/9/3 15/23/3 14/24/3 
f 14/24/3 18/12/3 20/9/3 
f 16/35/6 19/32/6 17/31/6 
f 17/31/6 13/36/6 16/35/6 
f 21/27/5 22/28/5 23/29/5 
f 23/29/5 24/30/5 21/27/5 
f 25/31/4 26/12/4 22/28/4 
f 22/28/4 21/27/4 25/31/4 
f 27/32/1 28/9/1 26/12/1 
f 26/12/1 25/31/1 27/32/1 
f 24/33/2 23/34/2 28/9/2 
f 28/9/2 27/32/2 24/33/2 
f 28/9/7 23/23/7 22/24/7 
f 22/24/7 26/12/7 28/9/7 
f 24/35/8 27/32/8 25/31/8 
f 25/31/8 21/36/8 24/35/8 
f 29/27/1 30/28/1 31/29/1 
f 31/29/1 32/30/1 29/27/1 
f 33/31/2 34/12/2 30/28/2 
f 30/28/2 29/27/2 33/31/2 
f 35/32/5 36/9/5 34/12/5 
f 34/12/5 33/31/5 35/32/5 
f 32/33/4 31/34/4 36/9/4 
f 36/9/4 35/32/4 32/33/4 
f 36/9/7 31/23/7 30/24/7 
f 30/24/7 34/12/7 36/9/7 
f 32/35/9 35/32/9 33/31/9 
f 33/31/9 29/36/9 32/35/9 
f 37/27/1 38/28/1 39/29/1 
f 39/29/1 40/30/1 37/27/1 
f 41/31/4 42/12/4 38/28/4 
f 38/28/4 37/27/4 41/31/4 
f 43/32/5 44/9/5 42/12/5 
f 42/12/5 41/31/5 43/32/5 
f 40/33/2 39/34/2 44/9/2 
f 44/9/2 43/32/2 40/33/2 
f 44/9/3 39/23/3 38/24/3 
f 38/24/3 42/12/3 44/9/3 
f 40/35/10 43/32/10 41/31/10 
f 41/31/10 37/36/10 40/35/10 
f 45/27/7 46/28/7 47/29/7 
f 47/29/7 48/30/7 45/27/7 
f 49/31/2 50/12/2 46/28/2 
f 46/28/2 45/27/2 49/31/2 
f 51/32/3 52/9/3 50/12/3 
f 50/12/3 49/31/3 51/32/3 
f 48/33/4 47/34/4 52/9/4 
f 52/9/4 51/32/4 48/33/4 
f 52/9/5 47/23/5 46/24/5 
f 46/24/5 50/12/5 52/9/5 
f 48/35/1 51/32/1 49/31/1 
f 49/31/1 45/36/1 48/35/1 
f 53/27/3 54/28/3 55/29/3 
f 55/29/3 56/30/3 53/27/3 
f 57/31/2 58/12/2 54/28/2 
f 54/28/2 53/27/2 57/31/2 
f 59/32/7 60/9/7 58/12/7 
f 58/12/7 57/31/7 59/32/7 
f 56/33/4 55/34/4 60/9/4 
f 60/9/4 59/32/4 56/33/4 
f 60/9/1 55/23/1 54/24/1 
f 54/24/1 58/12/1 60/9/1 
f 56/35/5 59/32/5 57/31/5 
f 57/31/5 53/36/5 56/35/5 
f 61/1/11 62/4/11 63/3/11 
f 63/3/11 64/2/11 61/1/11 
f 63/5/12 65/8/12 66/7/12 
f 66/7/12 64/6/12 63/5/12 
f 61/9/13 64/12/13 66/11/13 
f 66/11/13 67/10/13 61/9/13 
f 62/32/14 68/37/14 65/38/14 
f 65/38/14 63/31/14 62/32/14 
f 69/13/15 68/16/15 67/15/15 
f 67/15/15 70/14/15 69/13/15 
f 69/17/16 70/20/16 71/19/16 
f 71/19/16 72/18/16 69/17/16 
f 68/16/17 62/22/17 61/21/17 
f 61/21/17 67/15/17 68/16/17 
f 68/37/18 69/35/18 72/36/18 
f 72/36/18 65/38/18 68/37/18 
f 67/10/19 66/11/19 71/24/19 
f 71/24/19 70/23/19 67/10/19 
f 65/8/20 72/26/20 71/25/20 
f 71/25/20 66/7/20 65/8/20 
f 73/27/21 74/30/21 75/29/21 
f 75/29/21 76/28/21 73/27/21 
f 77/31/22 73/27/22 76/28/22 
f 76/28/22 78/12/22 77/31/22 
f 79/32/23 77/31/23 78/12/23 
f 78/12/23 80/9/23 79/32/23 
f 74/33/24 79/32/24 80/9/24 
f 80/9/24 75/34/24 74/33/24 
f 80/9/7 78/12/7 76/24/7 
f 76/24/7 75/23/7 80/9/7 
f 74/35/25 73/36/25 77/31/25 
f 77/31/25 79/32/25 74/35/25 
f 81/27/26 82/30/26 83/29/26 
f 83/29/26 84/28/26 81/27/26 
f 85/31/27 81/27/27 84/28/27 
f 84/28/27 86/12/27 85/31/27 
f 87/32/28 85/31/28 86/12/28 
f 86/12/28 88/9/28 87/32/28 
f 82/33/29 87/32/29 88/9/29 
f 88/9/29 83/34/29 82/33/29 
f 88/9/3 86/12/3 84/24/3 
f 84/24/3 83/23/3 88/9/3 
f 82/35/30 81/36/30 85/31/30 
f 85/31/30 87/32/30 82/35/30 
f 89/27/31 90/30/31 91/29/31 
f 91/29/31 92/28/31 89/27/31 
f 93/31/32 89/27/32 92/28/32 
f 92/28/32 94/12/32 93/31/32 
f 95/32/33 93/31/33 94/12/33 
f 94/12/33 96/9/33 95/32/33 
f 90/33/34 95/32/34 96/9/34 
f 96/9/34 91/34/34 90/33/34 
f 96/9/3 94/12/3 92/24/3 
f 92/24/3 91/23/3 96/9/3 
f 90/35/35 89/36/35 93/31/35 
f 93/31/35 95/32/35 90/35/35 
f 97/27/36 98/30/36 99/29/36 
f 99/29/36 100/28/36 97/27/36 
f 101/31/37 97/27/37 100/28/37 
f 100/28/37 102/12/37 101/31/37 
f 103/32/38 101/31/38 102/12/38 
f 102/12/38 104/9/38 103/32/38 
f 98/33/39 103/32/39 104/9/39 
f 104/9/39 99/34/39 98/33/39 
f 104/9/7 102/12/7 100/24/7 
f 100/24/7 99/23/7 104/9/7 
f 98/35/40 97/36/40 101/31/40 
f 101/31/40 103/32/40 98/35/40 
f 105/27/3 106/30/3 107/29/3 
f 107/29/3 108/28/3 105/27/3 
f 109/31/4 105/27/4 108/28/4 
f 108/28/4 110/12/4 109/31/4 
f 111/32/7 109/31/7 110/12/7 
f 110/12/7 112/9/7 111/32/7 
f 106/33/2 111/32/2 112/9/2 
f 112/9/2 107/34/2 106/33/2 
f 112/9/1 110/12/1 108/24/1 
f 108/24/1 107/23/1 112/9/1 
f 106/35/5 105/36/5 109/31/5 
f 109/31/5 111/32/5 106/35/5 
f 113/27/7 114/30/7 115/29/7 
f 115/29/7 116/28/7 113/27/7 
f 117/31/4 113/27/4 116/28/4 
f 116/28/4 118/12/4 117/31/4 
f 119/32/3 117/31/3 118/12/3 
f 118/12/3 120/9/3 119/32/3 
f 114/33/2 119/32/2 120/9/2 
f 120/9/2 115/34/2 114/33/2 
f 120/9/5 118/12/5 116/24/5 
f 116/24/5 115/23/5 120/9/5 
f 114/35/1 113/36/1 117/31/1 
f 117/31/1 119/32/1 114/35/1 
# 180 faces

#
# object Haus2_R
#

v  3.0000 2.9503 4.5955
v  3.0000 2.9503 -4.5955
v  0.0000 5.2366 -4.5955
v  0.0000 5.2366 4.5955
v  -3.0000 2.9503 -4.5955
v  -3.0000 2.9503 4.5955
v  3.1894 3.0533 4.8443
v  3.1894 3.0533 0.2810
v  -0.0000 5.3866 0.2810
v  -0.0000 5.3866 4.8443
v  -3.1894 3.0533 0.2810
v  -3.1894 3.0533 4.8443
v  -0.0000 5.3866 -1.2130
v  -3.1894 3.0533 -1.2130
v  3.1894 3.0533 -1.2130
v  3.1894 3.0533 -4.8443
v  -0.0000 5.3866 -4.8443
v  -3.1894 3.0533 -4.8443
v  3.0915 2.9349 4.8443
v  -0.0000 5.2366 4.8443
v  -0.0000 5.2366 0.2810
v  3.0915 2.9349 0.2810
v  -3.0915 2.9349 4.8443
v  -3.0915 2.9349 0.2810
v  -3.0915 2.9349 -1.2130
v  -0.0000 5.2366 -1.2130
v  3.0915 2.9349 -1.2130
v  -0.0000 5.2366 -4.8443
v  3.0915 2.9349 -4.8443
v  -3.0915 2.9349 -4.8443
# 30 vertices

vn 0.6061 0.7954 -0.0000
vn -0.6061 0.7954 -0.0000
vn 0.5904 0.8071 -0.0000
vn -0.5904 0.8071 -0.0000
vn -0.5972 -0.8021 -0.0000
vn 0.5972 -0.8021 -0.0000
vn 0.0000 0.0000 -1.0000
vn 0.0000 0.0000 1.0000
vn 0.7707 -0.6372 -0.0000
vn -0.7707 -0.6372 -0.0000
# 10 vertex normals

vt 0.6250 0.7500 0.0000
vt 0.6250 0.5000 0.0000
vt 0.7500 0.5000 0.0000
vt 0.7500 0.7500 0.0000
vt 0.8750 0.5000 0.0000
vt 0.8750 0.7500 0.0000
vt 0.6684 0.7321 0.0000
vt 0.9175 0.7321 0.0000
vt 0.9175 0.9821 0.0000
vt 0.6684 0.9821 0.0000
vt 0.9642 0.9729 0.0000
vt 0.6719 0.9729 0.0000
vt 0.6719 0.6861 0.0000
vt 0.9642 0.6861 0.0000
vt 0.9977 0.9729 0.0000
vt 0.9020 0.9729 0.0000
vt 0.9020 0.6861 0.0000
vt 0.9977 0.6861 0.0000
vt 0.9991 0.7321 0.0000
vt 0.9991 0.9821 0.0000
vt 0.6708 0.7321 0.0000
vt 0.8691 0.7321 0.0000
vt 0.8691 0.9821 0.0000
vt 0.6708 0.9821 0.0000
vt 0.6694 0.9729 0.0000
vt 0.6694 0.6861 0.0000
# 26 texture coords

o Haus2_R
g Haus2_R
usemtl Material
s off
f 121/39/41 122/40/41 123/41/41 
f 123/41/41 124/42/41 121/39/41 
f 124/42/42 123/41/42 125/43/42 
f 125/43/42 126/44/42 124/42/42 
f 127/45/43 128/46/43 129/47/43 
f 129/47/43 130/48/43 127/45/43 
f 130/49/44 129/50/44 131/51/44 
f 131/51/44 132/52/44 130/49/44 
f 129/53/44 133/54/44 134/55/44 
f 134/55/44 131/56/44 129/53/44 
f 128/46/43 135/57/43 133/58/43 
f 133/58/43 129/47/43 128/46/43 
f 135/59/43 136/60/43 137/61/43 
f 137/61/43 133/62/43 135/59/43 
f 133/54/44 137/63/44 138/64/44 
f 138/64/44 134/55/44 133/54/44 
f 139/45/45 140/48/45 141/47/45 
f 141/47/45 142/46/45 139/45/45 
f 140/49/46 143/52/46 144/51/46 
f 144/51/46 141/50/46 140/49/46 
f 141/53/46 144/56/46 145/55/46 
f 145/55/46 146/54/46 141/53/46 
f 142/46/45 141/47/45 146/58/45 
f 146/58/45 147/57/45 142/46/45 
f 147/59/45 146/62/45 148/61/45 
f 148/61/45 149/60/45 147/59/45 
f 146/54/46 145/55/46 150/64/46 
f 150/64/46 148/63/46 146/54/46 
f 148/63/47 150/64/47 138/64/47 
f 138/64/47 137/63/47 148/63/47 
f 143/52/48 140/49/48 130/49/48 
f 130/49/48 132/52/48 143/52/48 
f 139/45/49 142/46/49 128/46/49 
f 128/46/49 127/45/49 139/45/49 
f 150/64/50 145/55/50 134/55/50 
f 134/55/50 138/64/50 150/64/50 
f 140/48/48 139/45/48 127/45/48 
f 127/45/48 130/48/48 140/48/48 
f 149/60/47 148/61/47 137/61/47 
f 137/61/47 136/60/47 149/60/47 
f 142/46/49 147/57/49 135/57/49 
f 135/57/49 128/46/49 142/46/49 
f 144/51/50 143/52/50 132/52/50 
f 132/52/50 131/51/50 144/51/50 
f 145/55/50 144/56/50 131/56/50 
f 131/56/50 134/55/50 145/55/50 
f 147/59/49 149/60/49 136/60/49 
f 136/60/49 135/59/49 147/59/49 
# 48 faces

