# Blender v2.81 (sub 16) OBJ File: 'all_houses.blend'
# www.blender.org
mtllib house_1_8.mtl
o Cube.034_Cube.044
v -3.109413 5.660438 3.147888
v -3.109413 5.660438 -0.532047
v 3.109413 5.660438 3.147888
v 3.109413 5.660438 -0.532047
v -3.259056 7.496528 1.307920
v 3.261765 7.496528 1.307920
v -3.259056 7.227299 1.307920
v 3.109413 7.227299 1.307920
v -3.109413 5.660438 -0.262124
v -3.109413 5.660438 2.877965
v 3.109413 5.660438 2.877965
v 3.109413 5.660438 -0.262124
v -3.000000 0.000000 3.040633
v -3.000000 5.660439 3.040633
v -3.000000 0.000000 -0.424792
v -3.000000 5.660439 -0.424792
v 3.000000 0.000000 3.040633
v 3.000000 5.660439 3.040633
v 3.000000 0.000000 -0.424792
v 3.000000 5.660439 -0.424792
v -3.000000 0.349383 3.040633
v -3.000000 0.349383 -0.424792
v 3.000000 0.349383 -0.424792
v 3.000000 0.349383 3.040633
v -3.000000 0.000000 -0.424792
v -3.000000 0.000000 3.040633
v -3.000000 0.349383 -0.424792
v 3.000000 0.000000 -0.424792
v 3.000000 0.349383 -0.424792
v 3.000000 0.000000 3.040633
v 3.000000 0.349383 3.040633
v -3.000000 0.349383 3.040633
v -3.368851 0.000000 -0.783793
v -3.368851 0.000000 3.399634
v -3.368851 0.349383 -0.783793
v 3.368851 0.000000 -0.783793
v 3.368851 0.349383 -0.783793
v 3.368851 0.000000 3.399634
v 3.368851 0.349383 3.399634
v -3.368851 0.349383 3.399634
v -3.000000 0.000000 1.307920
v -3.000000 7.330985 1.307920
v 3.000000 0.000000 1.307920
v 3.000000 7.330985 1.307920
v 3.000000 0.349383 1.307920
v -3.000000 0.349383 1.307920
v -3.000000 0.000000 1.307920
v 3.000000 0.000000 1.307920
v 3.000000 0.349383 1.307920
v -3.000000 0.349383 1.307920
v -3.368851 0.000000 1.307920
v 3.368851 0.000000 1.307920
v 3.368851 0.349383 1.307920
v -3.368851 0.349383 1.307920
v -0.443306 0.000000 0.787442
v -0.589912 4.328578 0.787442
v -0.443306 0.000000 -3.192080
v -0.589912 3.663965 -3.286913
v 1.996895 0.000000 0.787442
v 2.143501 4.328578 0.787442
v 1.996895 0.000000 -3.192080
v 2.143501 3.663965 -3.286913
v 0.776794 5.699992 0.787442
v 0.776794 5.067920 -3.192080
v -0.443306 0.349383 0.787442
v -0.443306 0.349383 -3.192080
v 1.996895 0.349383 -3.192080
v 1.996895 0.349383 0.787442
v -0.680054 0.000000 -3.399633
v -0.680054 0.000000 0.994996
v -0.680054 0.349383 -3.399633
v 2.233643 0.000000 -3.399633
v 2.233643 0.349383 -3.399633
v 2.233643 0.000000 0.994996
v 2.233643 0.349383 0.994996
v -0.680054 0.349383 0.994996
v -0.443306 4.129191 0.787442
v -0.443306 3.497120 -3.192080
v 1.996895 3.497120 -3.192080
v 1.996895 4.129191 0.787442
vt 0.375000 0.750000
vt 0.625000 0.750000
vt 0.625000 1.000000
vt 0.375000 1.000000
vt 0.000000 0.000000
vt 0.375000 0.250000
vt 0.375000 0.231663
vt 0.375000 0.125000
vt 0.375000 0.018337
vt 0.375000 0.000000
vt 0.000000 0.000000
vt 0.375000 0.731663
vt 0.375000 0.625000
vt 0.375000 0.518337
vt 0.375000 0.500000
vt 0.125000 0.625000
vt 0.125000 0.518337
vt 0.125000 0.731663
vt 0.125000 0.750000
vt 0.125000 0.500000
vt 0.625000 0.250000
vt 0.625000 0.500000
vt 0.389558 0.125000
vt 0.625000 0.125000
vt 0.625000 0.250000
vt 0.389558 0.250000
vt 0.625000 0.500000
vt 0.389558 0.500000
vt 0.389558 0.625000
vt 0.625000 0.625000
vt 0.625000 0.750000
vt 0.389558 0.750000
vt 0.625000 1.000000
vt 0.389558 1.000000
vt 0.125000 0.625000
vt 0.375000 0.625000
vt 0.375000 0.750000
vt 0.125000 0.750000
vt 0.875000 0.625000
vt 0.875000 0.750000
vt 0.375000 0.750000
vt 0.125000 0.750000
vt 0.389558 1.000000
vt 0.389558 0.750000
vt 0.375000 0.500000
vt 0.375000 0.500000
vt 0.375000 0.625000
vt 0.389558 0.500000
vt 0.389558 0.250000
vt 0.389558 0.500000
vt 0.389558 0.250000
vt 0.389558 0.625000
vt 0.389558 0.750000
vt 0.389558 0.625000
vt 0.125000 0.625000
vt 0.125000 0.750000
vt 0.125000 0.625000
vt 0.389558 0.125000
vt 0.389558 0.125000
vt 0.125000 0.500000
vt 0.125000 0.500000
vt 0.375000 0.750000
vt 0.389558 1.000000
vt 0.375000 1.000000
vt 0.375000 0.625000
vt 0.375000 0.250000
vt 0.375000 0.500000
vt 0.375000 0.125000
vt 0.125000 0.500000
vt 0.375000 0.000000
vt 0.389558 0.000000
vt 0.389558 0.000000
vt 0.389558 0.000000
vt 0.875000 0.500000
vt 0.625000 0.000000
vt 0.612296 0.000000
vt 0.625000 0.000000
vt 0.625000 0.250000
vt 0.609922 0.250000
vt 0.625000 0.500000
vt 0.609921 0.500000
vt 0.625000 0.750000
vt 0.612296 0.750000
vt 0.625000 1.000000
vt 0.612296 1.000000
vt 0.125000 0.500000
vt 0.375000 0.500000
vt 0.375000 0.750000
vt 0.125000 0.750000
vt 0.625000 0.500000
vt 0.625000 0.000000
vt 0.625000 0.250000
vt 0.625000 1.000000
vt 0.417219 0.750000
vt 0.417219 1.000000
vt 0.375000 1.000000
vt 0.426179 0.250000
vt 0.426179 0.500000
vt 0.426179 0.500000
vt 0.426179 0.250000
vt 0.375000 0.500000
vt 0.375000 0.750000
vt 0.417219 0.750000
vt 0.375000 0.250000
vt 0.375000 0.000000
vt 0.417219 0.000000
vt 0.417219 1.000000
vt 0.375000 1.000000
vt 0.125000 0.500000
vt 0.417219 0.000000
vt 0.125000 0.750000
vt 0.625000 0.750000
vn 0.0000 0.7079 0.7064
vn -0.9990 -0.0439 0.0000
vn 0.9564 -0.2920 0.0000
vn 0.0000 -0.7078 0.7064
vn 0.0000 -1.0000 0.0000
vn 0.0000 -0.7078 -0.7064
vn 0.0000 0.7079 -0.7064
vn -1.0000 0.0000 0.0000
vn 0.0000 0.0000 -1.0000
vn 1.0000 0.0000 0.0000
vn 0.0000 0.0000 1.0000
vn 0.0000 0.7199 0.6941
vn 0.0000 1.0000 0.0000
vn 0.0000 0.7199 -0.6941
vn -0.7891 -0.6065 0.0976
vn 0.0000 -0.4941 -0.8694
vn 0.7891 -0.6065 0.0976
vn 0.0000 0.0674 -0.9977
vn -0.7060 0.6992 -0.1126
vn -0.6592 0.0000 0.7519
vn 0.6592 0.0000 0.7519
vn 0.7060 0.6992 -0.1126
usemtl Material
s off
f 3/1/1 6/2/1 5/3/1 1/4/1
f 5/5/2 2/6/2 9/7/2 7/8/2 10/9/2 1/10/2
f 6/11/3 3/1/3 11/12/3 8/13/3 12/14/3 4/15/3
f 8/13/4 7/16/4 9/17/4 12/14/4
f 10/18/5 11/12/5 3/1/5 1/19/5
f 2/20/5 4/15/5 12/14/5 9/17/5
f 11/12/6 10/18/6 7/16/6 8/13/6
f 2/6/7 5/21/7 6/22/7 4/15/7
f 46/23/8 42/24/8 16/25/8 22/26/8
f 22/26/9 16/25/9 20/27/9 23/28/9
f 45/29/10 44/30/10 18/31/10 24/32/10
f 24/32/11 18/31/11 14/33/11 21/34/11
f 41/35/5 43/36/5 17/37/5 13/38/5
f 44/30/12 42/39/12 14/40/12 18/31/12
f 13/38/11 17/37/11 30/41/11 26/42/11
f 24/32/11 21/34/11 32/43/11 31/44/11
f 43/36/11 19/45/11 28/46/11 48/47/11
f 22/26/11 23/28/11 29/48/11 27/49/11
f 27/49/13 29/48/13 37/50/13 35/51/13
f 49/52/13 31/44/13 39/53/13 53/54/13
f 47/55/5 26/42/5 34/56/5 51/57/5
f 50/58/13 27/49/13 35/51/13 54/59/13
f 46/23/11 22/26/11 27/49/11 50/58/11
f 45/29/11 24/32/11 31/44/11 49/52/11
f 19/45/11 15/60/11 25/61/11 28/46/11
f 41/35/11 13/38/11 26/42/11 47/55/11
f 38/62/11 39/53/11 40/63/11 34/64/11
f 52/65/10 53/54/10 39/53/10 38/62/10
f 33/66/9 35/51/9 37/50/9 36/67/9
f 51/68/8 54/59/8 35/51/8 33/66/8
f 31/44/13 32/43/13 40/63/13 39/53/13
f 26/42/5 30/41/5 38/62/5 34/56/5
f 48/47/5 28/46/5 36/67/5 52/65/5
f 28/46/5 25/61/5 33/69/5 36/67/5
f 30/41/5 48/47/5 52/65/5 38/62/5
f 34/70/8 40/71/8 54/59/8 51/68/8
f 36/67/10 37/50/10 53/54/10 52/65/10
f 15/60/11 41/35/11 47/55/11 25/61/11
f 23/28/11 45/29/11 49/52/11 29/48/11
f 21/72/11 46/23/11 50/58/11 32/73/11
f 32/73/13 50/58/13 54/59/13 40/71/13
f 25/61/5 47/55/5 51/57/5 33/69/5
f 29/48/13 49/52/13 53/54/13 37/50/13
f 17/37/11 43/36/11 48/47/11 30/41/11
f 20/27/14 16/74/14 42/39/14 44/30/14
f 15/60/5 19/45/5 43/36/5 41/35/5
f 23/28/10 20/27/10 44/30/10 45/29/10
f 21/72/8 14/75/8 42/24/8 46/23/8
f 77/76/15 56/77/15 58/78/15 78/79/15
f 78/79/16 58/78/16 62/80/16 79/81/16
f 79/81/17 62/80/17 60/82/17 80/83/17
f 80/83/11 60/82/11 56/84/11 77/85/11
f 57/86/5 61/87/5 59/88/5 55/89/5
f 62/80/18 58/78/18 64/90/18
f 58/78/19 56/77/19 63/91/19 64/92/19
f 56/84/11 60/82/11 63/93/11
f 59/88/11 68/94/11 65/95/11 55/96/11
f 66/97/13 67/98/13 73/99/13 71/100/13
f 59/88/5 61/87/5 72/101/5 74/102/5
f 68/94/20 59/88/20 74/102/20 75/103/20
f 72/101/10 73/99/10 75/103/10 74/102/10
f 69/104/9 71/100/9 73/99/9 72/101/9
f 70/105/8 76/106/8 71/100/8 69/104/8
f 55/96/21 65/95/21 76/107/21 70/108/21
f 61/87/5 57/86/5 69/109/5 72/101/5
f 65/110/13 66/97/13 71/100/13 76/106/13
f 67/98/13 68/94/13 75/103/13 73/99/13
f 57/86/5 55/89/5 70/111/5 69/109/5
f 68/94/11 80/83/11 77/85/11 65/95/11
f 67/98/10 79/81/10 80/83/10 68/94/10
f 66/97/9 78/79/9 79/81/9 67/98/9
f 65/110/8 77/76/8 78/79/8 66/97/8
f 60/82/22 62/80/22 64/90/22 63/112/22
