# 3ds Max Wavefront OBJ Exporter v0.97b - (c)2007 guruware
# File Created: 02.02.2020 13:50:45

mtllib Hous_12_Cut.mtl

#
# object House12_T
#

v  -0.9568 2.7010 -5.1314
v  -0.9568 0.0000 -5.1314
v  -0.9568 0.0000 -2.0777
v  -0.9568 2.7010 -2.0777
v  2.8952 2.8038 -5.1314
v  2.8952 0.0000 -5.1314
v  0.9692 0.0000 -5.1314
v  0.9692 4.6872 -5.1314
v  2.4692 2.8038 5.4428
v  2.4692 0.0000 5.4428
v  2.4692 0.0000 3.8488
v  2.4692 2.8038 3.8488
v  -0.5308 2.8038 5.4428
v  -0.5308 0.0000 5.4428
v  0.9692 0.0000 5.4428
v  0.9692 2.8038 5.4428
v  0.9692 0.0000 3.8488
v  2.4692 0.0000 2.2548
v  0.9692 0.0000 2.2548
v  0.9692 0.0000 -2.0777
v  2.8952 0.0000 -2.0777
v  2.4692 2.8038 2.2548
v  2.8952 2.8038 -2.0777
v  -3.2824 2.8038 5.4428
v  -3.2824 0.0000 5.4428
v  -3.2824 2.7010 2.2548
v  -3.2824 0.0000 2.2548
v  -3.2824 0.0000 3.8488
v  -3.2824 4.6872 3.8488
v  -0.5308 2.7010 2.2548
v  -0.5308 0.0000 2.2548
v  -0.5308 0.0000 3.8488
v  -3.3822 2.8547 5.3616
v  -3.3822 0.0000 5.3616
v  -3.1586 0.0000 5.3616
v  -3.1586 2.8547 5.3616
v  -3.3822 2.6872 5.5853
v  -3.3822 0.0000 5.5853
v  -3.1586 2.6872 5.5853
v  -3.1586 0.0000 5.5853
v  -3.3422 2.4347 2.2527
v  -3.3422 2.4347 5.5231
v  -3.1013 2.4347 5.5231
v  -3.1013 2.4347 2.2527
v  -3.3422 2.2111 2.2527
v  -3.3422 2.2111 5.5231
v  -3.1013 2.2111 2.2527
v  -3.1013 2.2111 5.5231
v  -3.3822 2.8547 2.4142
v  -3.3822 0.0000 2.4142
v  -3.1586 0.0000 2.4142
v  -3.1586 2.8547 2.4142
v  -3.3822 2.6872 2.1906
v  -3.3822 0.0000 2.1906
v  -3.1586 2.6872 2.1906
v  -3.1586 0.0000 2.1906
# 56 vertices

vn -1.0000 0.0000 -0.0000
vn 0.0000 0.0000 -1.0000
vn 1.0000 0.0000 -0.0000
vn 0.0000 0.0000 1.0000
vn 0.0000 -1.0000 -0.0000
vn 0.9952 0.0000 0.0978
vn -0.9952 0.0000 0.0978
vn 0.0000 1.0000 -0.0000
# 8 vertex normals

vt 0.6250 0.2500 0.0000
vt 0.3750 0.2500 0.0000
vt 0.3750 0.2007 0.0000
vt 0.6250 0.2007 0.0000
vt 0.6250 0.5000 0.0000
vt 0.3750 0.5000 0.0000
vt 0.3750 0.3750 0.0000
vt 0.6250 0.3750 0.0000
vt 0.6250 0.7500 0.0000
vt 0.3750 0.7500 0.0000
vt 0.3750 0.6980 0.0000
vt 0.6250 0.6980 0.0000
vt 0.6250 1.0000 0.0000
vt 0.3750 1.0000 0.0000
vt 0.3750 0.8750 0.0000
vt 0.6250 0.8750 0.0000
vt 0.2500 0.7500 0.0000
vt 0.2500 0.6980 0.0000
vt 0.3750 0.6460 0.0000
vt 0.2500 0.6460 0.0000
vt 0.2500 0.5493 0.0000
vt 0.3750 0.5493 0.0000
vt 0.6250 0.6460 0.0000
vt 0.6250 0.5493 0.0000
vt 0.6250 0.1040 0.0000
vt 0.3750 0.1040 0.0000
vt 0.3750 0.0520 0.0000
vt 0.6250 0.0520 0.0000
vt 0.1250 0.7500 0.0000
vt 0.1250 0.6980 0.0000
vt 0.1250 0.6460 0.0000
vt 0.1250 0.5493 0.0000
vt 0.3750 0.0000 0.0000
vt 0.6250 0.0000 0.0000
vt 0.1250 0.5000 0.0000
vt 0.2500 0.5000 0.0000
vt 0.8750 0.7500 0.0000
vt 0.8750 0.5000 0.0000
# 38 texture coords

o House12_T
g House12_T
usemtl Material
s off
f 1/1/1 2/2/1 3/3/1 
f 3/3/1 4/4/1 1/1/1 
f 5/5/2 6/6/2 7/7/2 
f 7/7/2 8/8/2 5/5/2 
f 9/9/3 10/10/3 11/11/3 
f 11/11/3 12/12/3 9/9/3 
f 13/13/4 14/14/4 15/15/4 
f 15/15/4 16/16/4 13/13/4 
f 10/10/5 15/17/5 17/18/5 
f 17/18/5 11/11/5 10/10/5 
f 18/19/5 19/20/5 20/21/5 
f 20/21/5 21/22/5 18/19/5 
f 22/23/6 18/19/6 21/22/6 
f 21/22/6 23/24/6 22/23/6 
f 24/13/4 25/14/4 14/14/4 
f 14/14/4 13/13/4 24/13/4 
f 26/25/1 27/26/1 28/27/1 
f 28/27/1 29/28/1 26/25/1 
f 27/26/2 26/25/2 30/25/2 
f 30/25/2 31/26/2 27/26/2 
f 25/29/5 28/30/5 32/30/5 
f 32/30/5 14/29/5 25/29/5 
f 19/20/5 31/31/5 3/32/5 
f 3/32/5 20/21/5 19/20/5 
f 15/17/5 14/29/5 32/30/5 
f 32/30/5 17/18/5 15/17/5 
f 16/16/4 15/15/4 10/10/4 
f 10/10/4 9/9/4 16/16/4 
f 8/8/2 7/7/2 2/2/2 
f 2/2/2 1/1/2 8/8/2 
f 17/18/5 32/30/5 31/31/5 
f 31/31/5 19/20/5 17/18/5 
f 28/30/5 27/31/5 31/31/5 
f 31/31/5 32/30/5 28/30/5 
f 29/28/1 28/27/1 25/33/1 
f 25/33/1 24/34/1 29/28/1 
f 11/11/5 17/18/5 19/20/5 
f 19/20/5 18/19/5 11/11/5 
f 12/12/3 11/11/3 18/19/3 
f 18/19/3 22/23/3 12/12/3 
f 20/21/5 3/32/5 2/35/5 
f 2/35/5 7/36/5 20/21/5 
f 23/24/3 21/22/3 6/6/3 
f 6/6/3 5/5/3 23/24/3 
f 21/22/5 20/21/5 7/36/5 
f 7/36/5 6/6/5 21/22/5 
f 4/4/7 3/3/7 31/26/7 
f 31/26/7 30/25/7 4/4/7 
f 33/1/4 34/2/4 35/33/4 
f 35/33/4 36/34/4 33/1/4 
f 37/5/3 38/6/3 34/2/3 
f 34/2/3 33/1/3 37/5/3 
f 39/9/2 40/10/2 38/6/2 
f 38/6/2 37/5/2 39/9/2 
f 36/13/1 35/14/1 40/10/1 
f 40/10/1 39/9/1 36/13/1 
f 40/10/8 35/29/8 34/35/8 
f 34/35/8 38/6/8 40/10/8 
f 41/1/8 42/2/8 43/33/8 
f 43/33/8 44/34/8 41/1/8 
f 45/5/1 46/6/1 42/2/1 
f 42/2/1 41/1/1 45/5/1 
f 47/9/5 48/10/5 46/6/5 
f 46/6/5 45/5/5 47/9/5 
f 44/13/3 43/14/3 48/10/3 
f 48/10/3 47/9/3 44/13/3 
f 48/10/4 43/29/4 42/35/4 
f 42/35/4 46/6/4 48/10/4 
f 44/37/2 47/9/2 45/5/2 
f 45/5/2 41/38/2 44/37/2 
f 49/1/4 50/2/4 51/33/4 
f 51/33/4 52/34/4 49/1/4 
f 53/5/1 54/6/1 50/2/1 
f 50/2/1 49/1/1 53/5/1 
f 55/9/2 56/10/2 54/6/2 
f 54/6/2 53/5/2 55/9/2 
f 52/13/3 51/14/3 56/10/3 
f 56/10/3 55/9/3 52/13/3 
f 56/10/5 51/29/5 50/35/5 
f 50/35/5 54/6/5 56/10/5 
# 80 faces

#
# object House12_R
#

v  -0.5308 2.8038 5.4428
v  0.9692 2.8038 5.4428
v  0.9692 4.6872 3.8488
v  -0.5308 4.6872 3.8488
v  -0.5308 2.7010 2.2548
v  0.9692 4.6872 2.2548
v  0.9692 4.6872 -2.0777
v  -0.9568 2.7010 -2.0777
v  -3.2824 2.7010 2.2548
v  -3.2824 4.6872 3.8488
v  2.4692 2.8038 2.2548
v  2.8952 2.8038 -2.0777
v  2.4692 2.8038 5.4428
v  2.4692 2.8038 3.8488
v  -3.2824 2.8038 5.4428
v  -0.9568 10.5528 -2.0777
v  -0.9568 10.5528 -5.1314
v  -0.9568 2.7010 -5.1314
v  0.9692 10.5528 -2.0777
v  2.8952 10.5528 -2.0777
v  0.9692 10.5528 -5.1314
v  0.9692 4.6872 -5.1314
v  2.8952 10.5528 -5.1314
v  2.8952 2.8038 -5.1314
v  -0.6666 2.6459 5.7716
v  0.9692 2.6459 5.7716
v  1.0174 4.8149 3.8892
v  -0.6666 4.8241 3.8488
v  -3.6347 4.8241 3.8488
v  -3.6347 2.6459 5.7716
v  -0.8386 2.5885 1.9962
v  -3.7027 2.5660 1.9274
v  2.7061 2.6686 5.7716
v  0.9692 4.8241 2.2548
v  2.7061 2.6413 3.8488
v  2.7061 2.6413 2.2548
v  3.3050 2.6413 -2.0783
v  0.9922 4.8241 -2.0783
v  -1.5055 2.5613 -2.0771
v  -0.6666 2.5183 5.6022
v  -0.6666 4.4421 3.8488
v  0.9692 4.4421 3.8488
v  0.9692 2.5183 5.6022
v  -3.6347 4.4421 3.8488
v  -3.6347 2.5183 5.6022
v  -0.7346 2.4384 2.0968
v  -3.7027 2.4384 2.0968
v  2.6050 2.5183 5.6022
v  0.9692 4.4421 2.2548
v  2.6050 2.5183 2.2548
v  2.6050 2.5183 3.8488
v  0.9922 4.4421 -2.0783
v  3.1703 2.5183 -2.0783
v  -1.2765 2.4384 -2.0771
v  -3.1586 2.8547 5.3616
v  -3.1586 2.6872 5.5853
v  -3.3822 2.6872 5.5853
v  -3.3822 2.8547 5.3616
v  -3.1586 2.8547 2.4142
v  -3.1586 2.6872 2.1906
v  -3.3822 2.6872 2.1906
v  -3.3822 2.8547 2.4142
v  0.0763 4.6549 -0.6600
v  0.0763 3.1851 -0.6600
v  0.0763 3.1851 -0.2163
v  0.0763 4.6549 -0.2163
v  0.5200 4.6549 -0.6600
v  0.5200 3.1851 -0.6600
v  0.5200 4.6549 -0.2163
v  0.5200 3.1851 -0.2163
v  -1.5675 4.0733 2.8470
v  -1.5675 3.1550 2.8470
v  -1.5675 3.1550 3.2446
v  -1.5675 4.0733 3.2446
v  -1.1237 4.0733 2.8470
v  -1.1237 3.1550 2.8470
v  -1.3456 3.1550 2.8470
v  -1.3456 4.4647 2.8470
v  -1.1237 4.0733 3.2446
v  -1.1237 3.1550 3.2446
v  -1.3456 3.1550 3.2446
v  -1.3456 4.4647 3.2446
v  -1.3456 4.5380 2.8009
v  -1.6785 3.9861 2.8009
v  -1.6785 3.9861 3.6548
v  -1.3456 4.5380 3.6548
v  -1.0127 3.9861 3.6548
v  -1.0724 3.9861 3.6548
v  -1.0724 3.9861 2.8009
v  -1.0127 3.9861 2.8009
v  -1.3456 4.4604 3.6548
v  -1.3456 4.4604 2.8009
v  -1.6189 3.9861 3.6548
v  -1.6189 3.9861 2.8009
v  2.2397 11.2976 -2.5974
v  3.7027 10.2407 -1.4375
v  3.7027 10.2407 -5.7716
v  2.2397 11.2976 -4.6118
v  -0.2972 11.3019 -2.6006
v  -1.7643 10.2407 -1.4375
v  -0.3013 11.2977 -4.6118
v  0.9592 14.6193 -3.5896
v  -1.7643 10.2407 -5.7716
v  3.3360 10.0238 -5.4809
v  -1.3977 10.0238 -5.4809
v  3.3360 10.0238 -1.7282
v  -1.3977 10.0238 -1.7282
# 107 vertices

vn 0.0000 0.6460 0.7633
vn -0.7980 0.6027 -0.0000
vn -0.7161 0.6944 0.0704
vn 0.0000 0.6259 -0.7799
vn 0.7799 0.6211 0.0767
vn 0.6992 0.7150 -0.0000
vn 0.7822 0.6230 -0.0000
vn -1.0000 0.0000 -0.0000
vn 0.0000 0.0000 1.0000
vn 0.0000 0.0000 -1.0000
vn 1.0000 0.0000 -0.0000
vn 0.0000 0.6555 0.7552
vn -0.0144 0.6617 0.7496
vn 0.0000 0.6618 0.7497
vn 0.0220 0.6369 -0.7706
vn 0.0000 0.6480 -0.7616
vn 0.0135 0.6374 -0.7704
vn -0.0085 0.6555 0.7551
vn -0.7788 0.6267 0.0265
vn 0.7897 0.6135 -0.0000
vn 0.7823 0.6225 -0.0196
vn 0.7896 0.6136 -0.0087
vn 0.7780 0.6190 0.1075
vn 0.6864 0.7272 0.0036
vn -0.7773 0.6291 -0.0041
vn -0.6677 0.7371 0.1044
vn 0.0000 -0.6736 -0.7391
vn 0.0000 -0.6582 0.7528
vn 0.7618 -0.6478 -0.0000
vn -0.7618 -0.6478 -0.0000
vn -0.6620 -0.7495 -0.0035
vn -0.7581 -0.6446 -0.0989
vn 0.6595 -0.7468 -0.0856
vn 0.7617 -0.6480 0.0040
vn 0.0000 -0.7988 0.6016
vn 0.7724 -0.6351 -0.0000
vn 0.8253 -0.5647 0.0080
vn 0.0000 -0.7483 0.6634
vn 0.0104 -0.7987 0.6016
vn 0.6718 -0.7355 0.0877
vn 0.7680 -0.6315 0.1062
vn -0.0002 -0.0004 -1.0000
vn -0.0005 0.0000 -1.0000
vn -0.8501 -0.5149 0.1104
vn -0.4714 -0.8780 0.0830
vn -0.9992 0.0000 0.0388
vn -0.9997 0.0183 0.0138
vn 0.0000 -0.7988 -0.6016
vn 0.0244 -0.5448 -0.8382
vn 0.0000 -0.8002 -0.5997
vn 0.0000 0.8002 -0.5997
vn 0.0000 -1.0000 -0.0000
vn 0.0000 1.0000 -0.0000
vn -0.8700 0.4931 -0.0000
vn 0.8700 0.4931 -0.0000
vn -0.8563 0.5164 -0.0000
vn 0.8563 0.5164 -0.0000
vn -0.8665 -0.4991 -0.0000
vn 0.0000 0.0000 -0.0000
vn 0.8665 -0.4991 -0.0000
vn 0.5856 0.8106 -0.0000
vn 0.0004 0.7385 0.6743
vn 0.0000 0.7391 0.6736
vn 0.0000 0.2941 -0.9558
vn -0.0008 0.2860 0.9582
vn 0.0000 -0.8014 -0.5981
vn 0.5092 -0.8607 -0.0000
vn -0.5092 -0.8607 -0.0000
vn 0.0000 -0.8014 0.5981
vn 0.0000 0.7391 -0.6736
vn -0.5856 0.8106 -0.0000
vn -0.5864 0.8100 -0.0005
vn 0.9331 0.3597 -0.0000
vn -0.9351 0.3545 0.0012
# 74 vertex normals

vt 0.8750 0.7500 0.0000
vt 0.7500 0.7500 0.0000
vt 0.7500 0.6980 0.0000
vt 0.8750 0.6980 0.0000
vt 0.8750 0.6460 0.0000
vt 0.7500 0.6460 0.0000
vt 0.7500 0.5493 0.0000
vt 0.8750 0.5493 0.0000
vt 0.6250 0.6460 0.0000
vt 0.6250 0.5493 0.0000
vt 0.0000 0.0000 0.0000
vt 0.6250 0.6980 0.0000
vt 0.6250 0.2007 0.0000
vt 0.6250 0.2500 0.0000
vt 0.6250 0.3750 0.0000
vt 0.6250 0.5000 0.0000
vt 0.7500 0.5000 0.0000
vt 0.8750 0.5000 0.0000
vt 0.6250 0.7500 0.0000
vt 0.3750 0.2500 0.0000
vt 0.3750 0.0000 0.0000
vt 0.6250 0.0000 0.0000
vt 0.3750 0.5000 0.0000
vt 0.3750 0.7500 0.0000
vt 0.6250 1.0000 0.0000
vt 0.3750 1.0000 0.0000
vt 0.1250 0.7500 0.0000
vt 0.1250 0.5000 0.0000
vt 0.3750 0.3750 0.0000
vt 0.3750 0.8750 0.0000
vt 0.6250 0.8750 0.0000
vt 0.2500 0.7500 0.0000
vt 0.2500 0.5000 0.0000
vt 0.3526 0.7500 0.0000
vt 0.3526 0.5000 0.0000
vt 0.3750 0.9776 0.0000
vt 0.3750 0.7724 0.0000
vt 0.3750 0.4776 0.0000
vt 0.3750 0.2724 0.0000
vt 0.1474 0.7500 0.0000
vt 0.1474 0.5000 0.0000
vt 0.6806 0.5493 0.0000
vt 0.6806 0.5219 0.0000
vt 0.8192 0.5493 0.0000
vt 0.6250 0.4444 0.0000
vt 0.6250 0.3056 0.0000
# 46 texture coords

o House12_R
g House12_R
usemtl Material
s off
f 57/39/9 58/40/9 59/41/9 
f 59/41/9 60/42/9 57/39/9 
f 61/43/10 62/44/10 63/45/10 
f 63/45/11 64/46/11 61/43/11 
f 65/43/12 66/42/12 60/42/12 
f 60/42/12 61/43/12 65/43/12 
f 62/44/13 67/47/13 68/48/13 
f 68/48/14 63/45/14 62/44/14 
f 58/49/9 69/49/9 59/49/9 
f 59/41/15 70/50/15 67/47/15 
f 67/47/15 62/44/15 59/41/15 
f 66/42/9 71/39/9 57/39/9 
f 57/39/9 60/42/9 66/42/9 
f 59/49/10 62/49/10 61/49/10 
f 69/49/15 70/49/15 59/49/15 
f 59/49/12 61/49/12 60/49/12 
f 72/51/16 73/52/16 74/52/16 
f 74/52/16 64/51/16 72/51/16 
f 75/45/17 72/46/17 64/46/17 
f 64/46/17 63/45/17 75/45/17 
f 76/48/17 75/45/17 63/45/17 
f 63/45/17 68/48/17 76/48/17 
f 73/52/18 77/53/18 78/53/18 
f 78/53/18 74/52/18 73/52/18 
f 77/53/18 79/54/18 80/54/18 
f 80/54/18 78/53/18 77/53/18 
f 79/54/19 76/48/19 68/48/19 
f 68/48/19 80/54/19 79/54/19 
f 81/39/20 82/40/20 83/41/20 
f 83/41/21 84/42/21 81/39/21 
f 85/42/22 86/39/22 81/39/22 
f 81/39/22 84/42/22 85/42/22 
f 83/49/23 87/49/23 84/49/23 
f 88/43/24 85/42/24 84/42/24 
f 84/42/25 87/43/25 88/43/25 
f 82/49/26 89/49/26 83/49/26 
f 83/49/27 90/49/27 87/49/27 
f 83/41/28 91/50/28 92/47/28 
f 92/47/29 90/44/29 83/41/29 
f 89/49/30 91/49/30 83/49/30 
f 90/44/31 92/47/31 93/54/31 
f 93/54/32 94/55/32 90/44/32 
f 87/43/33 90/44/33 94/55/33 
f 94/55/34 95/56/34 87/43/34 
f 96/39/35 97/42/35 98/41/35 
f 98/41/35 99/40/35 96/39/35 
f 100/42/35 97/42/35 96/39/35 
f 96/39/35 101/39/35 100/42/35 
f 98/49/36 97/49/36 102/49/36 
f 103/43/36 102/43/36 97/42/36 
f 97/42/36 100/42/36 103/43/36 
f 99/49/35 98/49/35 104/49/35 
f 98/49/37 102/49/37 105/49/37 
f 98/41/38 105/44/38 106/47/38 
f 106/47/38 107/50/38 98/41/38 
f 104/49/38 98/49/38 107/49/38 
f 105/44/39 108/55/39 109/54/39 
f 109/54/40 106/47/40 105/44/40 
f 102/43/41 110/56/41 108/55/41 
f 108/55/42 105/44/42 102/43/42 
f 96/39/43 99/40/43 82/40/43 
f 82/40/43 81/39/43 96/39/43 
f 101/39/43 96/39/43 81/39/43 
f 81/39/43 86/39/43 101/39/43 
f 104/49/44 107/49/44 91/49/44 
f 91/49/45 89/49/45 104/49/45 
f 99/49/46 104/49/46 89/49/46 
f 89/49/47 82/49/47 99/49/47 
f 107/50/44 106/47/44 92/47/44 
f 92/47/44 91/50/44 107/50/44 
f 106/47/48 109/54/48 93/54/48 
f 93/54/49 92/47/49 106/47/49 
f 109/54/18 108/55/18 94/55/18 
f 94/55/18 93/54/18 109/54/18 
f 108/55/50 110/56/50 95/56/50 
f 95/56/51 94/55/51 108/55/51 
f 110/56/52 102/43/52 87/43/52 
f 87/43/53 95/56/53 110/56/53 
f 103/43/54 100/42/54 85/42/54 
f 85/42/55 88/43/55 103/43/55 
f 100/42/16 101/39/16 86/39/16 
f 86/39/16 85/42/16 100/42/16 
f 102/43/56 103/43/56 88/43/56 
f 88/43/57 87/43/57 102/43/57 
f 111/39/58 112/57/58 113/54/58 
f 113/54/58 114/56/58 111/39/58 
f 115/39/59 116/57/59 117/54/59 
f 117/54/59 118/56/59 115/39/59 
f 119/52/16 120/58/16 121/59/16 
f 121/59/16 122/60/16 119/52/16 
f 123/54/18 124/61/18 120/58/18 
f 120/58/18 119/52/18 123/54/18 
f 125/57/19 126/62/19 124/61/19 
f 124/61/19 123/54/19 125/57/19 
f 122/63/17 121/64/17 126/62/17 
f 126/62/17 125/57/17 122/63/17 
f 126/62/60 121/65/60 120/66/60 
f 120/66/60 124/61/60 126/62/60 
f 122/39/61 125/57/61 123/54/61 
f 123/54/61 119/56/61 122/39/61 
f 127/52/16 128/58/16 129/59/16 
f 129/59/16 130/60/16 127/52/16 
f 131/54/18 132/61/18 133/67/18 
f 133/67/18 134/53/18 131/54/18 
f 135/57/19 136/62/19 132/61/19 
f 132/61/19 131/54/19 135/57/19 
f 130/63/17 129/64/17 137/68/17 
f 137/68/17 138/69/17 130/63/17 
f 136/62/60 137/70/60 133/71/60 
f 133/71/60 132/61/60 136/62/60 
f 130/39/62 138/40/62 134/55/62 
f 134/55/62 127/56/62 130/39/62 
f 138/40/63 135/57/63 131/54/63 
f 131/54/63 134/55/63 138/40/63 
f 137/70/60 129/65/60 128/66/60 
f 128/66/60 133/71/60 137/70/60 
f 138/69/17 137/68/17 136/62/17 
f 136/62/17 135/57/17 138/69/17 
f 134/53/18 133/67/18 128/58/18 
f 128/58/18 127/52/18 134/53/18 
f 139/52/64 140/58/64 141/59/64 
f 141/59/64 142/60/64 139/52/64 
f 143/62/60 144/72/60 145/73/60 
f 145/73/60 146/61/60 143/62/60 
f 142/57/65 143/62/65 146/61/65 
f 146/61/65 139/54/65 142/57/65 
f 147/70/66 148/71/66 145/73/66 
f 145/73/66 144/72/66 147/70/66 
f 143/62/17 142/63/17 141/64/17 
f 143/62/67 141/64/67 149/74/67 
f 143/62/18 149/74/18 147/68/18 
f 143/62/17 147/68/17 144/75/17 
f 140/58/18 139/54/18 146/61/18 
f 140/58/67 146/61/67 145/76/67 
f 140/58/17 145/76/17 148/67/17 
f 140/58/18 148/67/18 150/77/18 
f 149/78/68 150/79/68 148/71/68 
f 148/71/68 147/70/68 149/78/68 
f 149/78/60 141/65/60 140/66/60 
f 140/66/60 150/79/60 149/78/60 
f 151/80/69 152/48/69 153/54/69 
f 153/54/69 154/81/69 151/80/69 
f 151/80/70 155/82/70 156/46/70 
f 156/46/71 152/48/71 151/80/71 
f 154/83/72 157/84/72 158/83/72 
f 155/82/73 151/80/73 158/82/73 
f 159/52/74 153/54/74 160/54/74 
f 160/54/74 161/52/74 159/52/74 
f 153/54/75 152/48/75 162/48/75 
f 162/48/75 160/54/75 153/54/75 
f 156/46/76 159/56/76 161/56/76 
f 161/56/76 163/46/76 156/46/76 
f 152/48/77 156/46/77 163/46/77 
f 163/46/77 162/48/77 152/48/77 
f 157/84/78 154/83/78 153/54/78 
f 153/54/78 159/52/78 157/84/78 
f 157/84/79 159/52/79 156/46/79 
f 156/46/80 155/82/80 157/84/80 
f 151/80/81 154/81/81 158/80/81 
f 157/84/82 155/82/82 158/84/82 
# 160 faces

