# Blender v2.81 (sub 16) OBJ File: ''
# www.blender.org
mtllib cherch.mtl
o Cube.039
v -0.934121 7.295124 4.626195
v 0.850039 10.071827 2.842034
v -0.934121 7.295124 1.057874
v 2.634200 7.295124 4.626195
v 2.634200 7.295124 1.057874
v -0.649961 0.000000 4.342034
v -0.649961 7.507129 4.342034
v -0.649961 0.000000 1.342034
v -0.649961 7.507129 1.342034
v 2.350039 0.000000 4.342034
v 2.350039 7.507129 4.342034
v 2.350039 0.000000 1.342034
v 2.350039 7.507129 1.342034
v -0.649961 0.000000 1.342034
v -0.649961 3.000000 1.342034
v -0.649961 0.000000 -4.328903
v -0.649961 3.000000 -4.328903
v 2.350039 0.000000 1.342034
v 2.350039 3.000000 1.342034
v 2.350039 0.000000 -4.328903
v 2.350039 3.000000 -4.328903
v -0.649961 0.000000 -1.638206
v -0.649961 3.000000 -1.638206
v 2.350039 0.000000 -1.638206
v 2.350039 3.000000 -1.638206
v -4.552247 3.000000 -1.638206
v -4.552247 3.000000 -4.328903
v -4.552247 0.000000 -4.328903
v -4.552247 0.000000 -1.638206
v -1.224984 2.931684 1.342034
v 0.717142 5.931684 1.342034
v -0.803858 2.931684 -4.871273
v 0.717142 5.931684 -3.167831
v 2.790808 2.931684 1.342034
v 2.790808 2.931684 -4.871273
v -1.224984 2.931684 -1.051348
v 2.790808 2.931684 -1.601387
v -3.659115 5.931684 -2.966782
v -5.254556 2.931684 -4.871273
v -5.254556 2.931684 -1.051348
v 0.441857 8.968918 3.250216
v 0.850039 12.361881 2.842034
v 0.441857 8.968918 2.433852
v 1.258222 8.968918 3.250216
v 1.258222 8.968918 2.433852
vt 0.375000 0.000000
vt 0.625000 0.250000
vt 0.375000 0.250000
vt 0.625000 0.500000
vt 0.375000 0.500000
vt 0.625000 0.750000
vt 0.375000 0.750000
vt 0.625000 1.000000
vt 0.375000 1.000000
vt 0.125000 0.500000
vt 0.125000 0.750000
vt 0.375000 0.000000
vt 0.625000 0.000000
vt 0.625000 0.250000
vt 0.375000 0.250000
vt 0.625000 0.500000
vt 0.375000 0.500000
vt 0.625000 0.750000
vt 0.375000 0.750000
vt 0.625000 1.000000
vt 0.375000 1.000000
vt 0.125000 0.500000
vt 0.125000 0.750000
vt 0.875000 0.500000
vt 0.875000 0.750000
vt 0.375000 0.140733
vt 0.625000 0.140733
vt 0.625000 0.140733
vt 0.375000 0.140733
vt 0.375000 0.250000
vt 0.625000 0.250000
vt 0.625000 0.500000
vt 0.375000 0.500000
vt 0.375000 0.609267
vt 0.625000 0.609267
vt 0.625000 0.750000
vt 0.375000 0.750000
vt 0.125000 0.609267
vt 0.125000 0.750000
vt 0.875000 0.609267
vt 0.875000 0.750000
vt 0.875000 0.500000
vt 0.125000 0.500000
vt 0.375000 0.000000
vt 0.625000 0.000000
vt 0.625000 0.250000
vt 0.375000 0.250000
vt 0.875000 0.500000
vt 0.875000 0.609267
vt 0.125000 0.609267
vt 0.125000 0.500000
vt 0.375000 0.140733
vt 0.625000 0.140733
vt 0.625000 0.140733
vt 0.375000 0.140733
vt 0.375000 0.250000
vt 0.625000 0.500000
vt 0.375000 0.500000
vt 0.375000 0.609267
vt 0.625000 0.609267
vt 0.625000 0.750000
vt 0.375000 0.750000
vt 0.125000 0.609267
vt 0.125000 0.750000
vt 0.125000 0.500000
vt 0.375000 0.000000
vt 0.625000 0.000000
vt 0.625000 0.250000
vt 0.375000 0.250000
vt 0.625000 0.250000
vt 0.125000 0.609267
vt 0.125000 0.500000
vt 0.375000 0.000000
vt 0.625000 0.250000
vt 0.375000 0.250000
vt 0.625000 0.500000
vt 0.375000 0.500000
vt 0.625000 0.750000
vt 0.375000 0.750000
vt 0.625000 1.000000
vt 0.375000 1.000000
vt 0.125000 0.500000
vt 0.125000 0.750000
vt 0.000000 0.000000
vt 0.000000 0.000000
vt 0.000000 0.000000
vn -0.8413 0.5406 0.0000
vn 0.0000 0.5406 -0.8413
vn 0.8413 0.5406 0.0000
vn 0.0000 0.5406 0.8413
vn 0.0000 -1.0000 0.0000
vn -1.0000 0.0000 0.0000
vn 0.0000 0.0000 -1.0000
vn 1.0000 0.0000 0.0000
vn 0.0000 0.0000 1.0000
vn 0.0000 1.0000 0.0000
vn 0.0200 0.5495 0.8353
vn 0.0000 0.4938 -0.8696
vn 0.8226 0.5686 0.0000
vn -0.8394 0.5434 0.0000
vn -0.8829 0.4695 0.0000
vn -0.0194 0.5226 -0.8523
vn -0.9928 0.1194 0.0000
vn 0.0000 0.1194 -0.9928
vn 0.9928 0.1194 0.0000
vn 0.0000 0.1194 0.9928
usemtl None
s off
f 1/1/1 2/2/1 3/3/1
f 3/3/2 2/4/2 5/5/2
f 5/5/3 2/6/3 4/7/3
f 4/7/4 2/8/4 1/9/4
f 3/10/5 5/5/5 4/7/5 1/11/5
f 6/12/6 7/13/6 9/14/6 8/15/6
f 8/15/7 9/14/7 13/16/7 12/17/7
f 12/17/8 13/16/8 11/18/8 10/19/8
f 10/19/9 11/18/9 7/20/9 6/21/9
f 8/22/5 12/17/5 10/19/5 6/23/5
f 13/16/10 9/24/10 7/25/10 11/18/10
f 22/26/9 23/27/9 26/28/9 29/29/9
f 16/30/7 17/31/7 21/32/7 20/33/7
f 24/34/8 25/35/8 19/36/8 18/37/8
f 22/38/5 24/34/5 18/37/5 14/39/5
f 25/35/10 23/40/10 15/41/10 19/36/10
f 21/32/10 17/42/10 23/40/10 25/35/10
f 16/43/5 20/33/5 24/34/5 22/38/5
f 20/33/8 21/32/8 25/35/8 24/34/8
f 14/44/6 15/45/6 23/27/6 22/26/6
f 29/29/6 26/28/6 27/46/6 28/47/6
f 23/40/10 17/42/10 27/48/10 26/49/10
f 17/31/7 16/30/7 28/47/7 27/46/7
f 16/43/5 22/38/5 29/50/5 28/51/5
f 36/52/11 33/53/11 38/54/11 40/55/11
f 32/56/12 33/57/12 35/58/12
f 37/59/13 33/60/13 31/61/13 34/62/13
f 36/63/5 37/59/5 34/62/5 30/64/5
f 32/65/5 35/58/5 37/59/5 36/63/5
f 35/58/13 33/60/13 37/59/13
f 30/66/14 31/67/14 33/53/14 36/52/14
f 40/55/15 38/68/15 39/69/15
f 33/70/16 32/56/16 39/69/16 38/68/16
f 32/65/5 36/63/5 40/71/5 39/72/5
f 41/73/17 42/74/17 43/75/17
f 43/75/18 42/76/18 45/77/18
f 45/77/19 42/78/19 44/79/19
f 44/79/20 42/80/20 41/81/20
f 43/82/5 45/77/5 44/79/5 41/83/5
f 31/84/9 30/85/9 34/86/9
