# Blender v2.81 (sub 16) OBJ File: 'all_houses.blend'
# www.blender.org
mtllib house_1_9.mtl
o Cube.121_Cube.145
v -3.493935 8.591236 0.165691
v 3.520081 8.591236 0.165691
v -3.493935 11.285074 -1.962978
v -3.493935 8.644503 0.427164
v 3.520081 8.644503 0.427164
v -3.493935 11.669239 -1.962978
v -3.493935 8.644503 -4.353119
v 3.520081 11.669239 -1.962978
v 3.520081 8.644503 -4.353119
v 3.520081 11.285074 -1.962978
v 3.520081 8.591236 -4.091644
v -3.493935 8.591236 -4.091644
v -3.345543 0.000000 0.046030
v -3.345543 9.038116 0.046030
v -3.345543 0.000000 -3.971985
v -3.345543 9.038116 -3.971985
v 3.190269 0.000000 0.046030
v 3.190269 9.038116 0.046030
v 3.190269 0.000000 -3.971985
v 3.190269 9.038116 -3.971985
v -3.345543 3.071504 0.046030
v -3.345543 3.071504 -3.971985
v 3.190269 3.071504 -3.971985
v 3.190269 3.071504 0.046030
v -3.345543 2.783225 -3.971985
v 3.190269 2.783225 -3.971985
v 3.190269 2.783225 0.046030
v -3.345543 2.783225 0.046030
v -3.345543 5.927325 0.046030
v -3.345543 5.927325 -3.971985
v 3.190269 5.927325 -3.971985
v 3.190269 5.927325 0.046030
v -3.345543 5.629489 -3.971985
v 3.190269 5.629489 -3.971985
v 3.190269 5.629489 0.046030
v -3.345543 5.629489 0.046030
v -3.432144 2.807296 0.150236
v -3.432144 3.047433 0.150236
v 3.276871 3.047433 0.150236
v 3.276871 3.047433 -4.076195
v -3.432144 3.047433 -4.076195
v -3.432144 2.807295 -4.076195
v 3.276871 2.807295 -4.076195
v 3.276871 2.807295 0.150236
v -3.432144 5.658649 0.150236
v -3.432144 5.898164 0.150236
v 3.276871 5.898164 0.150236
v 3.276871 5.898164 -4.076195
v -3.432144 5.898164 -4.076195
v -3.432144 5.658649 -4.076195
v 3.276871 5.658649 -4.076195
v 3.276871 5.658649 0.150236
v -3.345543 0.000000 -1.962978
v -3.345543 11.580524 -1.962978
v 3.190269 0.000000 -1.962978
v 3.190269 11.580524 -1.962978
v 3.190269 3.071504 -1.962978
v -3.345543 3.071504 -1.962978
v -3.345543 2.783225 -1.962978
v 3.190269 2.783225 -1.962978
v 3.190269 5.927325 -1.962978
v -3.345543 5.927325 -1.962978
v -3.345543 5.629489 -1.962978
v 3.190269 5.629489 -1.962978
v 3.276871 3.047433 -1.962978
v -3.432144 3.047433 -1.962978
v -3.432144 2.807296 -1.962978
v 3.276871 2.807295 -1.962978
v 3.276871 5.898164 -1.962978
v -3.432144 5.898164 -1.962978
v -3.432144 5.658649 -1.962978
v 3.276871 5.658649 -1.962978
v -3.345543 9.000820 0.046030
v -3.345543 9.000820 -3.971985
v 3.190269 9.000820 -3.971985
v 3.190269 9.000820 0.046030
v 3.190269 9.000822 -1.962978
v -3.345543 9.000822 -1.962978
v -3.345543 8.753956 -3.971985
v 3.190269 8.753956 -3.971985
v 3.190269 8.753956 0.046030
v 3.190269 8.753956 -1.962978
v -3.345543 8.753956 -1.962978
v -3.345543 8.753956 0.046030
v -3.411110 8.770800 0.086336
v -3.411110 8.983978 0.086336
v -3.411110 8.983978 -1.962978
v 3.255836 8.983978 -4.012295
v 3.255836 8.983978 -1.962978
v 3.255836 8.983978 0.086336
v -3.411110 8.983978 -4.012295
v -3.411110 8.770800 -4.012295
v 3.255836 8.770800 -4.012295
v 3.255836 8.770800 0.086336
v 3.255836 8.770800 -1.962978
v -3.411110 8.770800 -1.962978
v -3.345543 0.217617 -3.971985
v 3.190269 0.217617 -3.971985
v 3.190269 0.217617 0.046030
v -3.345543 0.217617 0.046030
v 3.190269 0.217617 -1.962978
v -3.345543 0.217617 -1.962978
v -3.520073 0.000000 -1.962978
v -3.520073 0.000000 0.153322
v -3.520073 0.174753 -4.079281
v -3.520073 0.000000 -4.079281
v 3.364799 0.000000 -4.079281
v 3.364799 0.174753 -4.079281
v 3.364799 0.000000 -1.962978
v 3.364799 0.174753 0.153322
v 3.364799 0.000000 0.153322
v 3.364799 0.174753 -1.962978
v -3.520073 0.174753 -1.962978
v -3.520073 0.174753 0.153322
v -1.678719 0.000000 3.942280
v -1.678719 2.975127 3.942280
v -1.678719 0.000000 -0.075737
v -1.678719 4.288423 -0.075737
v 1.523445 0.000000 3.942280
v 1.523445 2.975127 3.942280
v 1.523445 0.000000 -0.075737
v 1.523445 4.288423 -0.075737
v -0.077637 0.000000 -0.075737
v -0.077637 5.401553 -0.075737
v -0.077637 0.000000 3.942280
v -0.077637 4.088256 3.942280
v -1.678719 0.174753 3.942280
v -1.678719 0.174753 -0.075737
v 1.523445 0.174753 -0.075737
v 1.523445 0.174753 3.942280
v -0.077637 0.174753 3.942280
v -0.077637 0.174753 -0.075737
v -1.755974 0.000000 -0.172672
v -1.755974 0.000000 4.039215
v -1.755974 0.174753 -0.172672
v -0.077637 0.000000 -0.172672
v 1.600700 0.174753 -0.172672
v 1.600700 0.000000 -0.172672
v 1.600700 0.000000 4.039215
v 1.600700 0.174753 4.039215
v -0.077637 0.000000 4.039215
v -0.077637 0.174753 4.039215
v -0.077637 0.174753 -0.172672
v -1.755974 0.174753 4.039215
v -1.984604 2.712611 4.353119
v -1.984604 4.183626 -0.464712
v 1.829330 2.712611 4.353119
v 1.829330 4.183626 -0.464712
v -0.077637 5.509414 -0.464712
v -0.077637 4.038399 4.353119
v -1.984604 2.922051 4.353119
v -1.984604 4.393066 -0.400335
v -0.077637 5.718854 -0.400335
v 1.829330 4.393066 -0.400335
v 1.829330 2.922051 4.353119
v -0.077637 4.247839 4.353119
v 1.764481 10.123741 -1.477146
v 1.764481 11.042011 -1.477146
v 1.764481 10.123741 -1.079523
v 1.764481 11.042011 -1.079523
v 1.138931 10.123741 -1.477146
v 1.138931 11.042011 -1.477146
v 1.138931 10.123741 -1.079523
v 1.138931 11.042011 -1.079523
v 1.451706 10.123741 -1.079523
v 1.451706 11.433441 -1.079523
v 1.451706 10.123741 -1.477146
v 1.451706 11.433441 -1.477146
v 1.920975 10.954817 -1.887287
v 1.451706 11.506792 -1.887287
v 1.920975 10.954817 -1.033382
v 1.451706 11.506792 -1.033382
v 0.982437 10.954817 -1.887287
v 0.982437 10.954817 -1.033382
v 1.451706 11.429195 -1.887287
v 1.451706 11.429195 -1.033382
v 1.066505 10.954817 -1.033382
v 1.836906 10.954817 -1.033382
v 1.836906 10.954817 -1.887287
v 1.066505 10.954817 -1.887287
v -1.571259 10.123741 -1.477146
v -1.571259 11.042011 -1.477146
v -1.571259 10.123741 -1.079523
v -1.571259 11.042011 -1.079523
v -2.196808 10.123741 -1.477146
v -2.196808 11.042011 -1.477146
v -2.196808 10.123741 -1.079523
v -2.196808 11.042011 -1.079523
v -1.884033 10.123741 -1.079523
v -1.884033 11.433441 -1.079523
v -1.884033 10.123741 -1.477146
v -1.884033 11.433441 -1.477146
v -1.414764 10.954817 -1.887287
v -1.884033 11.506792 -1.887287
v -1.414764 10.954817 -1.033382
v -1.884033 11.506792 -1.033382
v -2.353302 10.954817 -1.887287
v -2.353302 10.954817 -1.033382
v -1.884033 11.429195 -1.887287
v -1.884033 11.429195 -1.033382
v -2.269234 10.954817 -1.033382
v -1.498833 10.954817 -1.033382
v -1.498833 10.954817 -1.887287
v -2.269234 10.954817 -1.887287
vt 0.875000 0.736325
vt 0.625000 0.736325
vt 0.625000 0.750000
vt 0.875000 0.750000
vt 0.625000 0.625000
vt 0.875000 0.625000
vt 0.875000 0.625000
vt 0.625000 0.625000
vt 0.875000 0.513675
vt 0.875000 0.500000
vt 0.625000 0.500000
vt 0.625000 0.513675
vt 0.586703 0.125000
vt 0.625000 0.125000
vt 0.625000 0.250000
vt 0.624975 0.250000
vt 0.625000 0.500000
vt 0.624975 0.500000
vt 0.586703 0.625000
vt 0.625000 0.625000
vt 0.625000 0.750000
vt 0.624975 0.750000
vt 0.625000 1.000000
vt 0.624975 1.000000
vt 0.125000 0.625000
vt 0.375000 0.625000
vt 0.375000 0.750000
vt 0.125000 0.750000
vt 0.454221 0.625000
vt 0.454221 0.500000
vt 0.454221 0.500000
vt 0.454221 0.625000
vt 0.543713 0.625000
vt 0.543713 0.750000
vt 0.543713 0.750000
vt 0.543713 0.625000
vt 0.462426 0.250000
vt 0.462426 0.500000
vt 0.462426 0.500000
vt 0.462426 0.250000
vt 0.535236 0.125000
vt 0.535236 0.000000
vt 0.535236 0.000000
vt 0.535236 0.125000
vt 0.380308 0.125000
vt 0.454221 0.125000
vt 0.454221 0.250000
vt 0.380308 0.250000
vt 0.380308 0.500000
vt 0.380308 0.625000
vt 0.454221 0.750000
vt 0.380308 0.750000
vt 0.454221 1.000000
vt 0.380308 1.000000
vt 0.454221 0.250000
vt 0.543713 1.000000
vt 0.543713 1.000000
vt 0.462426 0.625000
vt 0.462426 0.750000
vt 0.462426 0.750000
vt 0.462426 0.625000
vt 0.454221 0.000000
vt 0.454221 0.000000
vt 0.454221 0.125000
vt 0.462426 0.125000
vt 0.535236 0.250000
vt 0.535236 0.500000
vt 0.535236 0.625000
vt 0.535236 0.750000
vt 0.535236 1.000000
vt 0.462426 1.000000
vt 0.454221 0.750000
vt 0.462426 1.000000
vt 0.454221 1.000000
vt 0.462426 0.125000
vt 0.535236 0.750000
vt 0.535236 1.000000
vt 0.535236 0.625000
vt 0.535236 0.250000
vt 0.543713 0.250000
vt 0.543713 0.500000
vt 0.535236 0.500000
vt 0.543713 0.125000
vt 0.543713 0.250000
vt 0.543713 0.500000
vt 0.543713 0.125000
vt 0.543713 0.000000
vt 0.543713 0.000000
vt 0.462426 0.000000
vt 0.462426 0.000000
vt 0.380308 0.000000
vt 0.125000 0.500000
vt 0.375000 0.500000
vt 0.624975 0.000000
vt 0.625000 0.000000
vt 0.617949 0.750000
vt 0.582986 0.625000
vt 0.582986 0.625000
vt 0.617949 0.750000
vt 0.586703 0.125000
vt 0.624975 0.000000
vt 0.582986 0.125000
vt 0.617949 0.000000
vt 0.617949 0.000000
vt 0.582986 0.125000
vt 0.624975 0.750000
vt 0.586703 0.625000
vt 0.617949 0.500000
vt 0.617949 0.250000
vt 0.617949 0.250000
vt 0.617949 0.500000
vt 0.617949 1.000000
vt 0.624975 0.500000
vt 0.624975 1.000000
vt 0.617949 1.000000
vt 0.624975 0.250000
vt 0.375000 0.500000
vt 0.375000 0.625000
vt 0.125000 0.750000
vt 0.125000 0.625000
vt 0.380308 0.125000
vt 0.380308 0.000000
vt 0.375000 0.750000
vt 0.380308 0.750000
vt 0.380308 0.625000
vt 0.375000 0.000000
vt 0.375000 0.125000
vt 0.380308 0.500000
vt 0.380308 1.000000
vt 0.375000 1.000000
vt 0.375000 0.250000
vt 0.380308 0.250000
vt 0.125000 0.500000
vt 0.389684 0.000000
vt 0.625000 0.000000
vt 0.625000 0.250000
vt 0.385187 0.250000
vt 0.383088 0.375000
vt 0.625000 0.375000
vt 0.625000 0.500000
vt 0.385187 0.500000
vt 0.625000 0.750000
vt 0.389684 0.750000
vt 0.385686 0.875000
vt 0.625000 0.875000
vt 0.625000 1.000000
vt 0.389684 1.000000
vt 0.250000 0.500000
vt 0.375000 0.500000
vt 0.375000 0.750000
vt 0.250000 0.750000
vt 0.750000 0.500000
vt 0.875000 0.500000
vt 0.875000 0.750000
vt 0.750000 0.750000
vt 0.125000 0.500000
vt 0.125000 0.750000
vt 0.375000 0.500000
vt 0.375000 0.750000
vt 0.125000 0.750000
vt 0.125000 0.500000
vt 0.385686 0.875000
vt 0.389684 0.750000
vt 0.250000 0.750000
vt 0.385187 0.500000
vt 0.383088 0.375000
vt 0.385187 0.250000
vt 0.375000 0.250000
vt 0.375000 0.375000
vt 0.375000 0.875000
vt 0.389684 1.000000
vt 0.375000 1.000000
vt 0.375000 0.000000
vt 0.389684 0.000000
vt 0.250000 0.500000
vt 0.750000 0.500000
vt 0.750000 0.750000
vt 0.875000 0.750000
vt 0.875000 0.500000
vt 0.625000 0.500000
vt 0.625000 0.750000
vt 0.750000 0.500000
vt 0.875000 0.500000
vt 0.875000 0.750000
vt 0.750000 0.750000
vt 0.625000 0.500000
vt 0.625000 0.750000
vt 0.375000 0.000000
vt 0.625000 0.000000
vt 0.625000 0.250000
vt 0.375000 0.250000
vt 0.375000 0.375000
vt 0.625000 0.375000
vt 0.625000 0.500000
vt 0.375000 0.500000
vt 0.625000 0.750000
vt 0.375000 0.750000
vt 0.375000 0.875000
vt 0.625000 0.875000
vt 0.625000 1.000000
vt 0.375000 1.000000
vt 0.250000 0.500000
vt 0.250000 0.750000
vt 0.750000 0.500000
vt 0.875000 0.500000
vt 0.875000 0.750000
vt 0.750000 0.750000
vt 0.125000 0.500000
vt 0.125000 0.750000
vt 0.375000 0.000000
vt 0.625000 0.000000
vt 0.625000 0.250000
vt 0.375000 0.250000
vt 0.352606 0.500000
vt 0.375000 0.500000
vt 0.375000 0.750000
vt 0.352606 0.750000
vt 0.625000 0.500000
vt 0.625000 0.750000
vt 0.250000 0.750000
vt 0.250000 0.500000
vt 0.625000 1.000000
vt 0.375000 1.000000
vt 0.375000 0.977606
vt 0.375000 0.875000
vt 0.375000 0.772394
vt 0.375000 0.477606
vt 0.375000 0.375000
vt 0.375000 0.272394
vt 0.147394 0.750000
vt 0.147394 0.500000
vt 0.125000 0.500000
vt 0.125000 0.750000
vt 0.375000 0.000000
vt 0.625000 0.000000
vt 0.625000 0.250000
vt 0.375000 0.250000
vt 0.375000 0.375000
vt 0.625000 0.375000
vt 0.625000 0.500000
vt 0.375000 0.500000
vt 0.625000 0.750000
vt 0.375000 0.750000
vt 0.375000 0.875000
vt 0.625000 0.875000
vt 0.625000 1.000000
vt 0.375000 1.000000
vt 0.250000 0.500000
vt 0.250000 0.750000
vt 0.750000 0.500000
vt 0.875000 0.500000
vt 0.875000 0.750000
vt 0.750000 0.750000
vt 0.125000 0.500000
vt 0.125000 0.750000
vt 0.375000 0.000000
vt 0.625000 0.000000
vt 0.625000 0.250000
vt 0.375000 0.250000
vt 0.352606 0.500000
vt 0.375000 0.500000
vt 0.375000 0.750000
vt 0.352606 0.750000
vt 0.625000 0.500000
vt 0.625000 0.750000
vt 0.250000 0.750000
vt 0.250000 0.500000
vt 0.625000 1.000000
vt 0.375000 1.000000
vt 0.375000 0.977606
vt 0.375000 0.875000
vt 0.375000 0.772394
vt 0.375000 0.477606
vt 0.375000 0.375000
vt 0.375000 0.272394
vt 0.147394 0.750000
vt 0.147394 0.500000
vt 0.125000 0.500000
vt 0.125000 0.750000
vn 0.0000 -0.9799 0.1996
vn 0.0000 -0.6200 -0.7846
vn -1.0000 0.0000 0.0000
vn 0.0000 0.6200 0.7846
vn 0.0000 0.6200 -0.7846
vn 1.0000 0.0000 0.0000
vn 0.0000 -0.6200 0.7846
vn 0.0000 -0.9799 -0.1996
vn 0.0000 0.0000 -1.0000
vn 0.0000 0.0000 1.0000
vn 0.0000 -1.0000 0.0000
vn 0.2678 -0.9635 0.0000
vn 0.3191 0.9477 0.0000
vn 0.0000 0.9743 -0.2251
vn -0.3191 -0.9477 0.0000
vn 0.0000 -0.9743 -0.2251
vn 0.0000 0.9630 0.2695
vn 0.2678 0.9635 0.0000
vn -0.2678 -0.9635 0.0000
vn 0.0000 -0.9630 -0.2695
vn -0.2678 0.9635 0.0000
vn 0.0000 0.9630 -0.2695
vn -0.0000 -0.9743 0.2251
vn 0.3191 -0.9477 0.0000
vn -0.3191 0.9477 0.0000
vn 0.0000 -0.9630 0.2695
vn 0.0000 0.9743 0.2251
vn 0.2488 -0.9686 0.0000
vn -0.2488 0.9686 0.0000
vn -0.2488 -0.9686 0.0000
vn 0.2488 0.9686 0.0000
vn 0.0000 -0.9227 -0.3855
vn 0.0000 0.9227 -0.3855
vn 0.0000 -0.9227 0.3856
vn 0.0000 0.9227 0.3855
vn -0.2385 0.9711 0.0000
vn 0.2385 0.9711 0.0000
vn 0.0000 0.9286 -0.3710
vn 0.0000 0.9286 0.3710
vn -0.5513 0.7930 0.2592
vn 0.5513 0.7930 0.2592
vn 0.0000 1.0000 0.0000
vn 0.5537 -0.7964 -0.2432
vn -0.5537 -0.7964 -0.2432
vn -0.5533 0.7958 0.2463
vn 0.5533 0.7958 0.2463
vn 0.2001 0.2879 -0.9365
vn -0.2001 0.2879 -0.9365
vn 0.7812 0.6242 0.0000
vn -0.7812 0.6242 0.0000
vn 0.7619 0.6477 0.0000
vn -0.7619 0.6477 0.0000
vn 0.7763 -0.6304 0.0000
vn -0.7763 -0.6304 0.0000
usemtl Material
s off
f 1/1/1 2/2/1 5/3/1 4/4/1
f 10/5/2 2/2/2 1/1/2 3/6/2
f 3/6/3 1/1/3 4/4/3 6/7/3
f 8/8/4 6/7/4 4/4/4 5/3/4
f 12/9/3 3/6/3 6/7/3 7/10/3
f 9/11/5 7/10/5 6/7/5 8/8/5
f 2/2/6 10/5/6 8/8/6 5/3/6
f 10/5/6 11/12/6 9/11/6 8/8/6
f 11/12/7 10/5/7 3/6/7 12/9/7
f 11/12/8 12/9/8 7/10/8 9/11/8
f 78/13/3 54/14/3 16/15/3 74/16/3
f 74/16/9 16/15/9 20/17/9 75/18/9
f 77/19/6 56/20/6 18/21/6 76/22/6
f 76/22/10 18/21/10 14/23/10 73/24/10
f 53/25/11 55/26/11 17/27/11 13/28/11
f 60/29/12 26/30/12 43/31/12 68/32/12
f 61/33/13 32/34/13 47/35/13 69/36/13
f 22/37/14 23/38/14 40/39/14 41/40/14
f 63/41/15 36/42/15 45/43/15 71/44/15
f 102/45/3 59/46/3 25/47/3 97/48/3
f 97/48/9 25/47/9 26/30/9 98/49/9
f 101/50/6 60/29/6 27/51/6 99/52/6
f 99/52/10 27/51/10 28/53/10 100/54/10
f 26/30/16 25/47/16 42/55/16 43/31/16
f 32/34/17 29/56/17 46/57/17 47/35/17
f 57/58/18 24/59/18 39/60/18 65/61/18
f 59/46/19 28/62/19 37/63/19 67/64/19
f 58/65/3 63/41/3 33/66/3 22/37/3
f 22/37/9 33/66/9 34/67/9 23/38/9
f 57/58/6 64/68/6 35/69/6 24/59/6
f 24/59/10 35/69/10 36/70/10 21/71/10
f 44/72/10 39/60/10 38/73/10 37/74/10
f 68/32/6 65/61/6 39/60/6 44/72/6
f 42/55/9 41/40/9 40/39/9 43/31/9
f 67/64/3 66/75/3 41/40/3 42/55/3
f 52/76/10 47/35/10 46/57/10 45/77/10
f 72/78/6 69/36/6 47/35/6 52/76/6
f 50/79/9 49/80/9 48/81/9 51/82/9
f 71/44/3 70/83/3 49/80/3 50/79/3
f 34/67/20 33/66/20 50/79/20 51/82/20
f 58/65/21 22/37/21 41/40/21 66/75/21
f 30/84/22 31/85/22 48/81/22 49/80/22
f 28/53/23 27/51/23 44/72/23 37/74/23
f 64/68/24 34/67/24 51/82/24 72/78/24
f 62/86/25 30/84/25 49/80/25 70/83/25
f 36/70/26 35/69/26 52/76/26 45/77/26
f 24/59/27 21/71/27 38/73/27 39/60/27
f 29/87/25 62/86/25 70/83/25 46/88/25
f 35/69/24 64/68/24 72/78/24 52/76/24
f 21/89/21 58/65/21 66/75/21 38/90/21
f 45/43/3 46/88/3 70/83/3 71/44/3
f 51/82/6 48/81/6 69/36/6 72/78/6
f 37/63/3 38/90/3 66/75/3 67/64/3
f 43/31/6 40/39/6 65/61/6 68/32/6
f 23/38/6 34/67/6 64/68/6 57/58/6
f 21/89/3 36/42/3 63/41/3 58/65/3
f 25/47/19 59/46/19 67/64/19 42/55/19
f 23/38/18 57/58/18 65/61/18 40/39/18
f 98/49/6 26/30/6 60/29/6 101/50/6
f 100/91/3 28/62/3 59/46/3 102/45/3
f 33/66/15 63/41/15 71/44/15 50/79/15
f 31/85/13 61/33/13 69/36/13 48/81/13
f 27/51/12 60/29/12 68/32/12 44/72/12
f 15/92/11 19/93/11 55/26/11 53/25/11
f 75/18/6 20/17/6 56/20/6 77/19/6
f 73/94/3 14/95/3 54/14/3 78/13/3
f 81/96/28 82/97/28 95/98/28 94/99/28
f 73/94/29 78/13/29 87/100/29 86/101/29
f 83/102/30 84/103/30 85/104/30 96/105/30
f 77/19/31 76/22/31 90/106/31 89/107/31
f 80/108/32 79/109/32 92/110/32 93/111/32
f 82/97/28 80/108/28 93/111/28 95/98/28
f 62/86/3 83/102/3 79/109/3 30/84/3
f 30/84/9 79/109/9 80/108/9 31/85/9
f 61/33/6 82/97/6 81/96/6 32/34/6
f 32/34/10 81/96/10 84/112/10 29/56/10
f 31/85/6 80/108/6 82/97/6 61/33/6
f 29/87/3 84/103/3 83/102/3 62/86/3
f 85/104/3 86/101/3 87/100/3 96/105/3
f 93/111/6 88/113/6 89/107/6 95/98/6
f 94/99/10 90/106/10 86/114/10 85/115/10
f 95/98/6 89/107/6 90/106/6 94/99/6
f 92/110/9 91/116/9 88/113/9 93/111/9
f 96/105/3 87/100/3 91/116/3 92/110/3
f 74/16/33 75/18/33 88/113/33 91/116/33
f 75/18/31 77/19/31 89/107/31 88/113/31
f 84/112/34 81/96/34 94/99/34 85/115/34
f 78/13/29 74/16/29 91/116/29 87/100/29
f 79/109/30 83/102/30 96/105/30 92/110/30
f 76/22/35 73/24/35 86/114/35 90/106/35
f 55/26/11 19/93/11 107/117/11 109/118/11
f 53/25/11 13/28/11 104/119/11 103/120/11
f 100/91/36 102/45/36 113/121/36 114/122/36
f 17/27/11 55/26/11 109/118/11 111/123/11
f 13/28/11 17/27/11 111/123/11 104/119/11
f 101/50/37 99/52/37 110/124/37 112/125/37
f 104/126/3 114/122/3 113/121/3 103/127/3
f 107/117/6 108/128/6 112/125/6 109/118/6
f 111/123/10 110/124/10 114/129/10 104/130/10
f 109/118/6 112/125/6 110/124/6 111/123/6
f 106/131/9 105/132/9 108/128/9 107/117/9
f 103/127/3 113/121/3 105/132/3 106/131/3
f 97/48/38 98/49/38 108/128/38 105/132/38
f 19/93/11 15/92/11 106/133/11 107/117/11
f 98/49/37 101/50/37 112/125/37 108/128/37
f 15/92/11 53/25/11 103/120/11 106/133/11
f 102/45/36 97/48/36 105/132/36 113/121/36
f 99/52/39 100/54/39 114/129/39 110/124/39
f 127/134/3 116/135/3 118/136/3 128/137/3
f 132/138/9 124/139/9 122/140/9 129/141/9
f 129/141/6 122/140/6 120/142/6 130/143/6
f 131/144/10 126/145/10 116/146/10 127/147/10
f 123/148/11 121/149/11 119/150/11 125/151/11
f 124/152/40 118/153/40 116/154/40 126/155/40
f 122/140/41 124/152/41 126/155/41 120/142/41
f 117/156/11 123/148/11 125/151/11 115/157/11
f 130/143/10 120/142/10 126/145/10 131/144/10
f 128/137/9 118/136/9 124/139/9 132/138/9
f 119/150/11 121/149/11 138/158/11 139/159/11
f 117/156/11 115/157/11 134/160/11 133/161/11
f 130/143/42 131/144/42 142/162/42 140/163/42
f 125/151/11 119/150/11 139/159/11 141/164/11
f 132/138/42 129/141/42 137/165/42 143/166/42
f 128/137/42 132/138/42 143/166/42 135/167/42
f 133/168/9 135/167/9 143/166/9 136/169/9
f 139/159/10 140/163/10 142/162/10 141/170/10
f 141/170/10 142/162/10 144/171/10 134/172/10
f 138/158/6 137/165/6 140/163/6 139/159/6
f 136/169/9 143/166/9 137/165/9 138/158/9
f 134/173/3 144/174/3 135/167/3 133/168/3
f 127/134/42 128/137/42 135/167/42 144/174/42
f 115/157/11 125/151/11 141/164/11 134/160/11
f 123/148/11 117/156/11 133/161/11 136/175/11
f 131/144/42 127/147/42 144/171/42 142/162/42
f 129/141/42 130/143/42 140/163/42 137/165/42
f 121/149/11 123/148/11 136/175/11 138/158/11
f 149/176/43 150/177/43 145/178/43 146/179/43
f 148/180/44 147/181/44 150/177/44 149/176/44
f 153/182/45 152/183/45 151/184/45 156/185/45
f 154/186/46 153/182/46 156/185/46 155/187/46
f 150/177/10 147/181/10 155/187/10 156/185/10
f 145/178/10 150/177/10 156/185/10 151/184/10
f 148/180/47 149/176/47 153/182/47 154/186/47
f 149/176/48 146/179/48 152/183/48 153/182/48
f 147/181/6 148/180/6 154/186/6 155/187/6
f 146/179/3 145/178/3 151/184/3 152/183/3
f 157/188/6 158/189/6 160/190/6 159/191/6
f 165/192/10 166/193/10 164/194/10 163/195/10
f 163/195/3 164/194/3 162/196/3 161/197/3
f 167/198/9 168/199/9 158/200/9 157/201/9
f 165/202/11 163/195/11 161/197/11 167/203/11
f 166/204/49 160/205/49 158/206/49 168/207/49
f 164/194/50 166/204/50 168/207/50 162/196/50
f 159/208/11 165/202/11 167/203/11 157/209/11
f 161/197/9 162/196/9 168/199/9 167/198/9
f 159/191/10 160/190/10 166/193/10 165/192/10
f 169/210/51 170/211/51 172/212/51 171/213/51
f 177/214/11 174/215/11 173/216/11 180/217/11
f 174/215/52 172/218/52 170/219/52 173/216/52
f 177/214/53 180/217/53 175/220/53 176/221/53
f 173/216/9 170/222/9 169/223/9 179/224/9 175/225/9 180/226/9
f 171/213/10 172/218/10 174/215/10 177/227/10 176/228/10 178/229/10
f 176/221/54 175/220/54 179/230/54 178/231/54
f 171/232/11 178/231/11 179/230/11 169/233/11
f 181/234/6 182/235/6 184/236/6 183/237/6
f 189/238/10 190/239/10 188/240/10 187/241/10
f 187/241/3 188/240/3 186/242/3 185/243/3
f 191/244/9 192/245/9 182/246/9 181/247/9
f 189/248/11 187/241/11 185/243/11 191/249/11
f 190/250/49 184/251/49 182/252/49 192/253/49
f 188/240/50 190/250/50 192/253/50 186/242/50
f 183/254/11 189/248/11 191/249/11 181/255/11
f 185/243/9 186/242/9 192/245/9 191/244/9
f 183/237/10 184/236/10 190/239/10 189/238/10
f 193/256/51 194/257/51 196/258/51 195/259/51
f 201/260/11 198/261/11 197/262/11 204/263/11
f 198/261/52 196/264/52 194/265/52 197/262/52
f 201/260/53 204/263/53 199/266/53 200/267/53
f 197/262/9 194/268/9 193/269/9 203/270/9 199/271/9 204/272/9
f 195/259/10 196/264/10 198/261/10 201/273/10 200/274/10 202/275/10
f 200/267/54 199/266/54 203/276/54 202/277/54
f 195/278/11 202/277/11 203/276/11 193/279/11
