# 3ds Max Wavefront OBJ Exporter v0.97b - (c)2007 guruware
# File Created: 02.02.2020 13:26:31

mtllib Hous_9_Cut.mtl

#
# object House9_T
#

v  -3.0000 2.7739 2.8595
v  -3.0000 0.0000 2.8595
v  3.0000 0.0000 2.8595
v  3.0000 2.7739 2.8595
v  -3.0000 0.0000 0.0000
v  -3.0000 1.3869 0.0000
v  -3.0000 2.7739 0.0000
v  -3.0000 2.7739 -2.8595
v  -3.0000 0.0000 -2.8595
v  3.0000 0.0000 0.0000
v  3.0000 1.3869 0.0000
v  3.0000 2.7739 0.0000
v  3.0000 2.7739 -2.8595
v  3.0000 0.0000 -2.8595
v  -3.1543 0.0000 -3.0765
v  -3.1543 0.0000 2.9366
v  -2.9778 0.3976 2.7025
v  -3.1441 0.0785 2.9137
v  3.1441 0.0785 2.9137
v  2.9778 0.3976 2.7025
v  2.9778 0.3976 -2.8424
v  -2.9778 0.3976 -2.8424
v  3.1543 0.0000 2.9366
v  3.1543 0.0000 -3.0765
v  3.1441 0.0785 -3.0536
v  -3.1441 0.0785 -3.0536
# 26 vertices

vn 0.0000 0.0000 1.0000
vn -1.0000 0.0000 -0.0000
vn 1.0000 0.0000 -0.0000
vn 0.0000 0.0000 -1.0000
vn 0.0000 0.5519 0.8339
vn 0.0000 1.0000 -0.0000
vn 0.8869 0.4620 -0.0000
vn 0.0000 0.5519 -0.8339
vn 0.0000 0.2800 0.9600
vn 0.9916 0.1296 -0.0000
vn 0.0000 0.2800 -0.9600
vn -0.9916 0.1296 -0.0000
vn -0.8869 0.4620 -0.0000
# 13 vertex normals

vt 0.5094 1.0000 0.0000
vt 0.3896 1.0000 0.0000
vt 0.3896 0.7500 0.0000
vt 0.5094 0.7500 0.0000
vt 0.3896 0.1250 0.0000
vt 0.4495 0.1250 0.0000
vt 0.5094 0.1250 0.0000
vt 0.5094 0.2500 0.0000
vt 0.3896 0.2500 0.0000
vt 0.3896 0.6250 0.0000
vt 0.4495 0.6250 0.0000
vt 0.5094 0.6250 0.0000
vt 0.5094 0.5000 0.0000
vt 0.3896 0.5000 0.0000
vt 0.3896 0.0000 0.0000
vt 0.5094 0.0000 0.0000
vt 0.6250 1.0000 0.0000
vt 0.4360 1.0000 0.0000
vt 0.4360 0.7500 0.0000
vt 0.6250 0.7500 0.0000
vt 0.8750 0.7500 0.0000
vt 0.6250 0.5000 0.0000
vt 0.8750 0.5000 0.0000
vt 0.4360 0.5000 0.0000
vt 0.4360 0.2500 0.0000
vt 0.6250 0.2500 0.0000
vt 0.4360 0.0000 0.0000
vt 0.6250 0.0000 0.0000
# 28 texture coords

o House9_T
g House9_T
usemtl Material
s off
f 1/1/1 2/2/1 3/3/1 
f 3/3/1 4/4/1 1/1/1 
f 5/5/2 6/6/2 7/7/2 
f 5/5/2 7/7/2 8/8/2 
f 5/5/2 8/8/2 9/9/2 
f 10/10/3 11/11/3 12/12/3 
f 10/10/3 12/12/3 4/4/3 
f 10/10/3 4/4/3 3/3/3 
f 13/13/4 14/14/4 9/9/4 
f 9/9/4 8/8/4 13/13/4 
f 14/14/3 13/13/3 12/12/3 
f 14/14/3 12/12/3 11/11/3 
f 14/14/3 11/11/3 10/10/3 
f 2/15/2 1/16/2 7/7/2 
f 2/15/2 7/7/2 6/6/2 
f 2/15/2 6/6/2 5/5/2 
f 15/9/1 16/15/1 16/15/1 
f 16/15/1 15/9/1 15/9/1 
f 17/17/5 18/18/5 19/19/5 
f 19/19/5 20/20/5 17/17/5 
f 17/21/6 20/20/6 21/22/6 
f 21/22/6 22/23/6 17/21/6 
f 23/3/1 24/14/1 24/14/1 
f 24/14/1 23/3/1 23/3/1 
f 20/20/7 19/19/7 25/24/7 
f 25/24/7 21/22/7 20/20/7 
f 24/14/1 15/9/1 15/9/1 
f 15/9/1 24/14/1 24/14/1 
f 21/22/8 25/24/8 26/25/8 
f 26/25/8 22/26/8 21/22/8 
f 16/2/1 23/3/1 23/3/1 
f 23/3/1 16/2/1 16/2/1 
f 16/2/9 23/3/9 19/19/9 
f 19/19/9 18/18/9 16/2/9 
f 23/3/10 24/14/10 25/24/10 
f 25/24/10 19/19/10 23/3/10 
f 24/14/11 15/9/11 26/25/11 
f 26/25/11 25/24/11 24/14/11 
f 15/9/12 16/15/12 18/27/12 
f 18/27/12 26/25/12 15/9/12 
f 22/26/13 26/25/13 18/27/13 
f 18/27/13 17/28/13 22/26/13 
# 42 faces

#
# object House9_R
#

v  -3.0000 5.4487 2.8595
v  -3.0000 3.0972 2.8595
v  3.0000 3.0972 2.8595
v  3.0000 5.4487 2.8595
v  -3.0000 3.0972 0.0000
v  -3.0000 4.2729 0.0000
v  -3.0000 8.0909 0.0000
v  -3.0000 5.4487 -2.8595
v  -3.0000 3.0972 -2.8595
v  3.0000 8.0909 0.0000
v  3.0000 3.0972 0.0000
v  3.0000 4.2729 0.0000
v  -3.0000 0.0000 2.8595
v  3.0000 0.0000 2.8595
v  3.0000 0.0000 0.0000
v  3.0000 0.0000 -2.8595
v  -3.0000 0.0000 -2.8595
v  -3.0000 0.0000 0.0000
v  3.0000 5.4487 -2.8595
v  3.0000 3.0972 -2.8595
v  3.0000 2.7739 0.0000
v  3.0000 2.7739 -2.8595
v  3.0744 2.7922 -2.9304
v  3.0744 2.7922 -0.0000
v  3.0372 2.7830 0.0000
v  3.0744 3.0789 2.9304
v  3.0744 3.0789 -0.0000
v  3.0372 3.0881 0.0000
v  -3.0744 3.0789 2.9304
v  -3.0000 2.7739 0.0000
v  -3.0000 2.7739 2.8595
v  -3.0744 2.7922 2.9304
v  -3.0744 2.7922 0.0000
v  -3.0372 2.7830 0.0000
v  3.0744 3.0789 -2.9304
v  -3.0744 2.7922 -2.9304
v  -3.0744 3.0789 -2.9304
v  3.0744 2.9355 -0.0000
v  3.0744 2.7922 2.9304
v  -3.0744 2.9355 0.0000
v  -3.0744 3.0789 0.0000
v  3.0000 2.7739 2.8595
v  -3.0372 3.0881 0.0000
v  -3.0000 2.7739 -2.8595
v  3.1434 5.4487 -2.7497
v  -3.1434 5.4487 -2.7497
v  -3.1434 5.4487 -3.1434
v  3.1434 5.4487 -3.1434
v  3.1434 8.4487 -0.0000
v  -3.1434 8.4487 -0.0000
v  -3.1434 8.0909 -0.0000
v  3.1434 8.0909 -0.0000
v  3.1434 5.4487 2.7497
v  -3.1434 5.4487 2.7497
v  -3.1434 5.4487 3.1434
v  3.1434 5.4487 3.1434
v  0.9345 8.9453 -0.7258
v  0.9345 6.3757 -0.7258
v  2.0574 6.3757 -0.7258
v  2.0574 8.9453 -0.7258
v  0.9345 8.9453 -1.7962
v  0.9345 6.3757 -1.7962
v  2.0574 8.9453 -1.7962
v  2.0574 6.3757 -1.7962
# 64 vertices

vn 0.0000 0.0000 1.0000
vn 0.0000 0.0000 -0.0000
vn -1.0000 0.0000 -0.0000
vn 0.0000 0.7345 0.6787
vn 1.0000 0.0000 -0.0000
vn 0.0000 0.0000 -1.0000
vn 0.2385 -0.9711 -0.0000
vn 0.1701 -0.6925 0.7011
vn 0.2385 0.9711 -0.0000
vn -0.1701 -0.6925 -0.7011
vn 0.0000 0.9684 0.2495
vn -0.2385 -0.9711 -0.0000
vn 0.0000 -0.9684 0.2495
vn -0.2385 0.9711 -0.0000
vn 0.0000 -0.9684 -0.2495
vn 0.0000 0.9684 -0.2495
vn -0.2385 -0.9711 0.0000
vn 0.2385 0.9711 0.0000
vn 0.0000 0.7345 -0.6787
vn 0.0000 -1.0000 -0.0000
vn 0.0000 0.7234 -0.6904
vn 0.0000 -0.7211 -0.6929
vn 0.0000 0.7234 0.6904
vn 0.0000 -0.7211 0.6929
vn 0.0000 1.0000 -0.0000
# 25 vertex normals

vt 0.6250 1.0000 0.0000
vt 0.5234 1.0000 0.0000
vt 0.5234 0.7500 0.0000
vt 0.6250 0.7500 0.0000
vt 0.5234 0.1250 0.0000
vt 0.5742 0.1250 0.0000
vt 0.6250 0.1250 0.0000
vt 0.6250 0.2500 0.0000
vt 0.5234 0.2500 0.0000
vt 0.8750 0.7500 0.0000
vt 0.6250 0.6250 0.0000
vt 0.8750 0.6250 0.0000
vt 0.5234 0.6250 0.0000
vt 0.5742 0.6250 0.0000
vt 0.3896 1.0000 0.0000
vt 0.3896 0.7500 0.0000
vt 0.3896 0.6250 0.0000
vt 0.3896 0.5000 0.0000
vt 0.3896 0.2500 0.0000
vt 0.3896 0.1250 0.0000
vt 0.6250 0.5000 0.0000
vt 0.5234 0.5000 0.0000
vt 0.5094 0.6250 0.0000
vt 0.5094 0.5000 0.0000
vt 0.5094 0.1250 0.0000
vt 0.5094 0.0000 0.0000
vt 0.5094 0.2500 0.0000
vt 0.5164 0.6250 0.0000
vt 0.5094 0.7500 0.0000
vt 0.5164 0.1250 0.0000
vt 0.5094 1.0000 0.0000
vt 0.5234 0.0000 0.0000
vt 0.3896 0.0000 0.0000
vt 0.8750 0.5000 0.0000
vt 0.6250 0.0000 0.0000
vt 0.3750 0.5157 0.0000
vt 0.1250 0.5157 0.0000
vt 0.1250 0.5000 0.0000
vt 0.3750 0.5000 0.0000
vt 0.3750 0.2500 0.0000
vt 0.1250 0.6250 0.0000
vt 0.3750 0.6250 0.0000
vt 0.3750 0.7343 0.0000
vt 0.1250 0.7343 0.0000
vt 0.3750 1.0000 0.0000
vt 0.3750 0.7500 0.0000
vt 0.3750 0.0000 0.0000
vt 0.3750 0.2343 0.0000
vt 0.3750 0.1250 0.0000
vt 0.3750 0.0157 0.0000
vt 0.1250 0.7500 0.0000
# 51 texture coords

o House9_R
g House9_R
usemtl Material
s off
f 27/29/14 28/30/14 29/31/14 
f 29/31/14 30/32/14 27/29/14 
f 31/33/15 32/34/15 33/35/15 
f 31/33/16 33/35/16 34/36/16 
f 31/33/16 34/36/16 35/37/16 
f 27/38/17 30/32/17 36/39/17 
f 36/39/17 33/40/17 27/38/17 
f 37/41/15 38/42/15 36/39/15 
f 37/41/18 36/39/18 30/32/18 
f 37/41/18 30/32/18 29/31/18 
f 39/43/15 40/44/15 40/44/15 
f 40/44/15 39/43/15 39/43/15 
f 41/45/15 40/44/15 40/44/15 
f 41/45/15 40/44/15 41/45/15 
f 41/45/15 41/45/15 41/45/15 
f 42/46/15 43/47/15 43/47/15 
f 43/47/15 42/46/15 42/46/15 
f 44/48/15 43/47/15 43/47/15 
f 44/48/15 43/47/15 44/48/15 
f 44/48/15 44/48/15 44/48/15 
f 45/49/19 46/50/19 35/37/19 
f 35/37/19 34/36/19 45/49/19 
f 47/51/20 48/52/20 49/52/20 
f 47/51/20 49/52/20 50/51/20 
f 47/51/21 50/51/21 51/51/21 
f 37/41/22 29/31/22 52/31/22 
f 37/41/22 52/31/22 53/41/22 
f 37/41/23 53/41/23 54/41/23 
f 55/30/24 52/31/24 29/31/24 
f 29/31/24 28/30/24 55/30/24 
f 56/53/25 57/54/25 58/54/25 
f 56/53/25 58/54/25 59/53/25 
f 56/53/19 59/53/19 60/53/19 
f 61/50/19 49/52/19 62/55/19 
f 62/55/19 63/37/19 61/50/19 
f 50/51/15 64/56/15 53/41/15 
f 50/51/18 53/41/18 52/31/18 
f 50/51/18 52/31/18 65/57/18 
f 59/53/15 66/58/15 67/33/15 
f 59/53/16 67/33/16 63/37/16 
f 59/53/16 63/37/16 62/55/16 
f 55/30/14 58/59/14 65/57/14 
f 65/57/14 52/31/14 55/30/14 
f 65/57/26 58/59/26 57/59/26 
f 57/59/26 68/57/26 65/57/26 
f 31/33/27 35/37/27 63/37/27 
f 31/33/27 63/37/27 67/33/27 
f 31/33/14 67/33/14 69/33/14 
f 62/55/28 49/52/28 48/52/28 
f 48/52/28 70/55/28 62/55/28 
f 61/50/29 63/37/29 35/37/29 
f 35/37/29 46/50/29 61/50/29 
f 28/60/27 31/33/27 69/33/27 
f 28/60/27 69/33/27 67/33/27 
f 28/60/27 67/33/27 55/60/27 
f 58/54/16 55/60/16 67/33/16 
f 58/54/16 67/33/16 66/58/16 
f 58/54/16 66/58/16 59/53/16 
f 49/52/18 61/50/18 53/41/18 
f 49/52/18 53/41/18 64/56/18 
f 49/52/18 64/56/18 50/51/18 
f 70/55/25 56/53/25 60/53/25 
f 70/55/30 60/53/30 59/53/30 
f 70/55/25 59/53/25 62/55/25 
f 46/50/22 37/41/22 54/41/22 
f 46/50/31 54/41/31 53/41/31 
f 46/50/22 53/41/22 61/50/22 
f 68/57/20 47/51/20 51/51/20 
f 68/57/20 51/51/20 50/51/20 
f 68/57/20 50/51/20 65/57/20 
f 39/61/15 44/48/15 44/48/15 
f 39/61/15 44/48/15 44/48/15 
f 39/61/15 44/48/15 39/61/15 
f 42/46/15 41/45/15 41/45/15 
f 42/46/15 41/45/15 41/45/15 
f 42/46/15 41/45/15 42/46/15 
f 46/50/18 45/49/18 36/39/18 
f 46/50/18 36/39/18 38/42/18 
f 46/50/18 38/42/18 37/41/18 
f 33/40/32 36/39/32 45/49/32 
f 45/49/32 34/62/32 33/40/32 
f 28/60/16 27/63/16 33/35/16 
f 28/60/16 33/35/16 32/34/16 
f 28/60/16 32/34/16 31/33/16 
f 71/64/33 72/65/33 73/66/33 
f 73/66/33 74/67/33 71/64/33 
f 75/49/34 74/67/34 73/68/34 
f 73/68/34 76/36/34 75/49/34 
f 77/69/35 78/70/35 79/71/35 
f 79/71/35 80/72/35 77/69/35 
f 76/29/36 81/73/36 82/74/36 
f 82/74/36 75/32/36 76/29/36 
f 81/75/16 76/36/16 73/68/16 
f 81/75/15 73/68/15 72/76/15 
f 81/75/18 72/76/18 77/77/18 
f 81/75/16 77/77/16 80/78/16 
f 74/67/18 75/32/18 82/74/18 
f 74/67/15 82/74/15 79/71/15 
f 74/67/16 79/71/16 78/70/16 
f 74/67/18 78/70/18 71/64/18 
f 72/65/37 71/64/37 78/70/37 
f 78/70/37 77/69/37 72/65/37 
f 82/74/33 81/79/33 80/72/33 
f 80/72/33 79/71/33 82/74/33 
f 83/29/14 84/43/14 85/44/14 
f 85/44/14 86/32/14 83/29/14 
f 87/36/16 88/47/16 84/61/16 
f 84/61/16 83/63/16 87/36/16 
f 83/38/38 86/32/38 89/49/38 
f 89/49/38 87/62/38 83/38/38 
f 86/32/18 85/44/18 90/46/18 
f 90/46/18 89/49/18 86/32/18 
f 84/43/15 85/44/15 85/44/15 
f 85/44/15 84/43/15 84/43/15 
f 85/44/15 90/46/15 90/46/15 
f 90/46/15 85/44/15 85/44/15 
f 90/46/15 88/47/15 88/47/15 
f 88/47/15 90/46/15 90/46/15 
f 88/47/15 84/61/15 84/61/15 
f 84/61/15 88/47/15 88/47/15 
f 89/49/19 90/46/19 88/47/19 
f 88/47/19 87/36/19 89/49/19 
# 122 faces

