# Blender v2.81 (sub 16) OBJ File: 'all_houses.blend'
# www.blender.org
mtllib house_1_11.mtl.mtl
o Cube.129_Cube.165
v -0.530819 0.000000 5.442820
v -0.530819 2.803780 5.442820
v -0.956799 0.000000 -5.131435
v -0.956799 2.701034 -5.131435
v 2.469181 0.000000 5.442820
v 2.469181 2.803780 5.442820
v 2.895161 0.000000 -5.131435
v 2.895161 2.803780 -5.131435
v -0.530819 0.000000 2.254850
v -0.530819 2.701034 2.254850
v 2.469181 0.000000 2.254850
v 2.469181 2.803780 2.254850
v -3.282387 0.000000 2.254850
v -3.282387 0.000000 5.442820
v -3.282387 2.803780 5.442820
v -3.282387 2.701034 2.254850
v 0.969181 0.000000 -5.131435
v 0.969181 4.687241 -5.131435
v 0.969181 0.000000 5.442820
v 0.969181 2.803780 5.442820
v 0.969181 4.687241 2.254850
v 0.969181 0.000000 2.254850
v -0.530819 0.000000 3.848835
v 2.469181 2.803780 3.848835
v -0.530819 4.687241 3.848835
v 2.469181 0.000000 3.848835
v -3.282387 0.000000 3.848835
v -3.282387 4.687241 3.848835
v 0.969181 4.687241 3.848835
v 0.969181 0.000000 3.848835
v -0.956799 2.701034 -2.077705
v 2.895161 0.000000 -2.077705
v -0.956799 0.000000 -2.077707
v 2.895161 2.803780 -2.077707
v 0.969181 0.000000 -2.077707
v 0.969181 4.687241 -2.077707
v -0.956799 10.552832 -2.077705
v -0.956799 10.552832 -5.131435
v 2.895161 10.552832 -5.131435
v 2.895161 10.552832 -2.077707
v 0.969181 10.552832 -5.131435
v 0.969181 10.552832 -2.077707
v -0.666595 2.645948 5.771591
v 0.969181 2.645948 5.771591
v -3.634651 2.645948 5.771591
v -0.666595 4.824072 3.848770
v -0.838593 2.588505 1.996166
v -3.634651 4.824072 3.848770
v 1.017437 4.814886 3.889198
v 0.969181 4.824072 2.254850
v 2.706074 2.641327 3.848835
v 2.706081 2.668550 5.771591
v 2.706074 2.641327 2.254850
v 3.304966 2.641327 -2.078348
v 0.992207 4.824072 -2.078348
v -1.505486 2.561349 -2.077061
v -3.702656 2.565970 1.927364
v -0.666595 2.518350 5.602184
v 0.969181 2.518350 5.602184
v -3.634651 2.518350 5.602184
v -0.666595 4.442142 3.848770
v -0.734600 2.438372 2.096771
v -3.634651 4.442142 3.848770
v 0.969181 4.442142 3.848770
v 0.969181 4.442142 2.254850
v 2.604954 2.518350 3.848835
v 2.604954 2.518350 5.602184
v 2.604954 2.518350 2.254850
v 3.170322 2.518350 -2.078348
v 0.992207 4.442142 -2.078348
v -1.276466 2.438372 -2.077061
v -3.702656 2.438372 2.096771
v -3.158627 0.000000 5.361650
v -3.158627 2.854741 5.361650
v -3.382229 0.000000 5.361650
v -3.382229 2.854741 5.361650
v -3.158627 0.000000 5.585253
v -3.158627 2.687183 5.585253
v -3.382229 0.000000 5.585253
v -3.382229 2.687183 5.585253
v -3.101276 2.434695 5.523104
v -3.101280 2.434695 2.252705
v -3.342220 2.434695 5.523104
v -3.342224 2.434695 2.252705
v -3.101276 2.211092 5.523104
v -3.101280 2.211092 2.252705
v -3.342220 2.211092 5.523104
v -3.342224 2.211092 2.252705
v -3.158627 0.000000 2.414162
v -3.158627 2.854741 2.414162
v -3.382229 0.000000 2.414162
v -3.382229 2.854741 2.414162
v -3.158627 0.000000 2.190559
v -3.158627 2.687183 2.190559
v -3.382229 0.000000 2.190559
v -3.382229 2.687183 2.190559
v 0.076283 3.185065 -0.216265
v 0.076283 4.654931 -0.216265
v 0.076283 3.185065 -0.660028
v 0.076283 4.654931 -0.660028
v 0.520046 3.185065 -0.216265
v 0.520046 4.654931 -0.216265
v 0.520046 3.185065 -0.660028
v 0.520046 4.654931 -0.660028
v -1.567509 3.154981 3.244648
v -1.567509 4.073252 3.244648
v -1.567509 3.154981 2.847025
v -1.567509 4.073252 2.847025
v -1.123745 3.154981 3.244648
v -1.123745 4.073252 3.244648
v -1.123745 3.154981 2.847025
v -1.123745 4.073252 2.847025
v -1.345627 3.154981 2.847025
v -1.345627 4.464682 2.847025
v -1.345627 3.154981 3.244648
v -1.345627 4.464682 3.244648
v -1.678524 3.986058 3.654789
v -1.345627 4.538033 3.654789
v -1.678524 3.986058 2.800884
v -1.345627 4.538033 2.800884
v -1.012730 3.986058 3.654789
v -1.012730 3.986058 2.800884
v -1.345627 4.460437 3.654789
v -1.345627 4.460437 2.800884
v -1.072369 3.986058 2.800884
v -1.618885 3.986058 2.800884
v -1.618885 3.986058 3.654789
v -1.072369 3.986058 3.654789
v -1.397667 10.023800 -1.728197
v -1.397667 10.023800 -5.480942
v 3.336033 10.023800 -5.480942
v 3.336033 10.023800 -1.728197
v -1.764290 10.240702 -1.437548
v -1.764290 10.240702 -5.771591
v 3.702656 10.240702 -5.771591
v 3.702656 10.240702 -1.437548
v 2.239674 11.297649 -4.611782
v -0.301311 11.297651 -4.611782
v 2.239674 11.297649 -2.597359
v -0.297180 11.301943 -2.600632
v 0.959156 14.619339 -3.589628
vt 0.375000 0.200723
vt 0.625000 0.200723
vt 0.625000 0.250000
vt 0.375000 0.250000
vt 0.375000 0.375000
vt 0.625000 0.375000
vt 0.625000 0.500000
vt 0.375000 0.500000
vt 0.375000 0.698020
vt 0.625000 0.698020
vt 0.625000 0.750000
vt 0.375000 0.750000
vt 0.375000 0.875000
vt 0.625000 0.875000
vt 0.625000 1.000000
vt 0.375000 1.000000
vt 0.250000 0.698020
vt 0.250000 0.750000
vt 0.750000 0.698020
vt 0.875000 0.698020
vt 0.875000 0.750000
vt 0.750000 0.750000
vt 0.750000 0.549277
vt 0.875000 0.549277
vt 0.875000 0.646040
vt 0.750000 0.646040
vt 0.250000 0.549277
vt 0.375000 0.549277
vt 0.375000 0.646040
vt 0.250000 0.646040
vt 0.625000 0.549277
vt 0.625000 0.646040
vt 0.625000 1.000000
vt 0.375000 1.000000
vt 0.375000 0.051980
vt 0.625000 0.051980
vt 0.625000 0.103960
vt 0.375000 0.103959
vt 0.625000 0.103960
vt 0.375000 0.103959
vt 0.875000 0.646040
vt 0.875000 0.698020
vt 0.125000 0.698020
vt 0.125000 0.750000
vt 0.125000 0.750000
vt 0.125000 0.698020
vt 0.125000 0.549277
vt 0.125000 0.646040
vt 0.000000 0.000000
vt 0.000000 0.000000
vt 0.000000 0.000000
vt 0.125000 0.646040
vt 0.875000 0.750000
vt 0.375000 0.000000
vt 0.625000 0.000000
vt 0.000000 0.000000
vt 0.000000 0.000000
vt 0.000000 0.000000
vt 0.000000 0.000000
vt 0.625000 0.200723
vt 0.625000 0.250000
vt 0.125000 0.500000
vt 0.250000 0.500000
vt 0.750000 0.549277
vt 0.875000 0.549277
vt 0.625000 0.549277
vt 0.625000 0.375000
vt 0.625000 0.500000
vt 0.750000 0.698020
vt 0.875000 0.698020
vt 0.875000 0.750000
vt 0.750000 0.750000
vt 0.875000 0.698020
vt 0.875000 0.750000
vt 0.000000 0.000000
vt 0.000000 0.000000
vt 0.000000 0.000000
vt 0.875000 0.646040
vt 0.875000 0.646040
vt 0.000000 0.000000
vt 0.000000 0.000000
vt 0.000000 0.000000
vt 0.625000 0.646040
vt 0.750000 0.646040
vt 0.625000 0.698020
vt 0.000000 0.000000
vt 0.625000 0.500000
vt 0.750000 0.500000
vt 0.875000 0.500000
vt 0.750000 0.698020
vt 0.750000 0.750000
vt 0.875000 0.750000
vt 0.875000 0.698020
vt 0.875000 0.750000
vt 0.875000 0.698020
vt 0.000000 0.000000
vt 0.000000 0.000000
vt 0.000000 0.000000
vt 0.875000 0.646040
vt 0.875000 0.646040
vt 0.000000 0.000000
vt 0.000000 0.000000
vt 0.000000 0.000000
vt 0.625000 0.646040
vt 0.625000 0.698020
vt 0.750000 0.646040
vt 0.000000 0.000000
vt 0.625000 0.500000
vt 0.750000 0.500000
vt 0.875000 0.500000
vt 0.375000 0.000000
vt 0.625000 0.000000
vt 0.625000 0.250000
vt 0.375000 0.250000
vt 0.625000 0.500000
vt 0.375000 0.500000
vt 0.625000 0.750000
vt 0.375000 0.750000
vt 0.625000 1.000000
vt 0.375000 1.000000
vt 0.125000 0.500000
vt 0.125000 0.750000
vt 0.875000 0.500000
vt 0.875000 0.750000
vt 0.375000 0.000000
vt 0.625000 0.000000
vt 0.625000 0.250000
vt 0.375000 0.250000
vt 0.625000 0.500000
vt 0.375000 0.500000
vt 0.625000 0.750000
vt 0.375000 0.750000
vt 0.625000 1.000000
vt 0.375000 1.000000
vt 0.125000 0.500000
vt 0.125000 0.750000
vt 0.875000 0.500000
vt 0.875000 0.750000
vt 0.375000 0.000000
vt 0.625000 0.000000
vt 0.625000 0.250000
vt 0.375000 0.250000
vt 0.625000 0.500000
vt 0.375000 0.500000
vt 0.625000 0.750000
vt 0.375000 0.750000
vt 0.625000 1.000000
vt 0.375000 1.000000
vt 0.125000 0.500000
vt 0.125000 0.750000
vt 0.875000 0.500000
vt 0.875000 0.750000
vt 0.375000 0.000000
vt 0.625000 0.000000
vt 0.625000 0.250000
vt 0.375000 0.250000
vt 0.625000 0.500000
vt 0.375000 0.500000
vt 0.625000 0.750000
vt 0.375000 0.750000
vt 0.625000 1.000000
vt 0.375000 1.000000
vt 0.125000 0.500000
vt 0.125000 0.750000
vt 0.875000 0.500000
vt 0.875000 0.750000
vt 0.375000 0.000000
vt 0.625000 0.000000
vt 0.625000 0.250000
vt 0.375000 0.250000
vt 0.375000 0.375000
vt 0.625000 0.375000
vt 0.625000 0.500000
vt 0.375000 0.500000
vt 0.625000 0.750000
vt 0.375000 0.750000
vt 0.375000 0.875000
vt 0.625000 0.875000
vt 0.625000 1.000000
vt 0.375000 1.000000
vt 0.250000 0.500000
vt 0.250000 0.750000
vt 0.750000 0.500000
vt 0.875000 0.500000
vt 0.875000 0.750000
vt 0.750000 0.750000
vt 0.125000 0.500000
vt 0.125000 0.750000
vt 0.375000 0.000000
vt 0.625000 0.000000
vt 0.625000 0.250000
vt 0.375000 0.250000
vt 0.352606 0.500000
vt 0.375000 0.500000
vt 0.375000 0.750000
vt 0.352606 0.750000
vt 0.625000 0.500000
vt 0.625000 0.750000
vt 0.250000 0.750000
vt 0.250000 0.500000
vt 0.625000 1.000000
vt 0.375000 1.000000
vt 0.375000 0.977606
vt 0.375000 0.875000
vt 0.375000 0.772394
vt 0.375000 0.477606
vt 0.375000 0.375000
vt 0.375000 0.272394
vt 0.147394 0.750000
vt 0.147394 0.500000
vt 0.125000 0.500000
vt 0.125000 0.750000
vt 0.625000 0.500000
vt 0.680565 0.521904
vt 0.680565 0.549277
vt 0.625000 0.549277
vt 0.875000 0.549277
vt 0.819209 0.549277
vt 0.625000 0.444435
vt 0.625000 0.305565
vt 0.625000 0.444435
vt 0.819209 0.549277
vt 0.625000 0.500000
vt 0.625000 0.250000
vt 0.625000 0.250000
vt 0.625000 0.549277
vt 0.875000 0.500000
vt 0.875000 0.549277
vt 0.875000 0.500000
vt 0.680565 0.549277
vt 0.625000 0.305565
vn -1.0000 0.0000 0.0000
vn 0.0000 0.0000 -1.0000
vn 1.0000 0.0000 0.0000
vn 0.0000 0.0000 1.0000
vn 0.0000 -1.0000 0.0000
vn 0.0000 0.6460 0.7633
vn -0.7567 0.6526 0.0372
vn 0.9952 0.0000 0.0978
vn 0.0000 0.6259 -0.7799
vn 0.7393 0.6724 0.0363
vn 0.7822 0.6230 0.0000
vn -0.7980 0.6027 0.0000
vn -0.9952 -0.0000 0.0978
vn -0.0073 0.6587 0.7524
vn 0.0000 0.6618 0.7497
vn 0.0220 0.6369 -0.7706
vn 0.0066 0.6429 -0.7659
vn -0.0085 0.6555 0.7551
vn -0.7788 0.6267 0.0265
vn 0.7860 0.6182 -0.0100
vn 0.7896 0.6136 -0.0087
vn 0.7321 0.6791 0.0525
vn -0.7229 0.6889 0.0531
vn 0.0000 -0.6736 -0.7391
vn 0.0000 -0.6582 0.7528
vn 0.7618 -0.6478 0.0000
vn -0.7618 -0.6478 0.0000
vn -0.7094 -0.7032 -0.0482
vn 0.7104 -0.7025 -0.0433
vn 0.0000 -0.7988 0.6016
vn 0.8024 -0.5968 0.0044
vn 0.0052 -0.7740 0.6331
vn 0.7724 -0.6351 0.0000
vn 0.7185 -0.6888 0.0965
vn -0.0004 -0.0002 -1.0000
vn -0.6486 -0.7549 0.0975
vn -0.9996 0.0089 0.0267
vn 0.0112 -0.6949 -0.7190
vn 0.0000 1.0000 0.0000
vn 0.0000 -0.8002 -0.5997
vn 0.0000 0.8002 -0.5997
vn -0.8700 0.4931 0.0000
vn 0.8700 0.4931 0.0000
vn -0.8563 0.5164 0.0000
vn 0.8563 0.5164 0.0000
vn -0.8665 -0.4991 0.0000
vn 0.8665 -0.4991 0.0000
vn 0.5856 0.8106 0.0000
vn 0.0001 0.7389 0.6738
vn 0.0000 0.2941 -0.9558
vn -0.0008 0.2860 0.9582
vn 0.0000 -0.8014 -0.5981
vn 0.5092 -0.8607 0.0000
vn -0.5092 -0.8607 0.0000
vn 0.0000 -0.8014 0.5981
vn 0.0000 0.7391 -0.6736
vn -0.5859 0.8104 -0.0002
vn 0.9331 0.3597 0.0000
vn -0.9351 0.3545 0.0012
usemtl Material
s off
f 33/1/1 31/2/1 4/3/1 3/4/1
f 17/5/2 18/6/2 8/7/2 7/8/2
f 26/9/3 24/10/3 6/11/3 5/12/3
f 19/13/4 20/14/4 2/15/4 1/16/4
f 30/17/5 26/9/5 5/12/5 19/18/5
f 29/19/6 25/20/6 2/21/6 20/22/6
f 36/23/7 31/24/7 10/25/7 21/26/7
f 35/27/5 32/28/5 11/29/5 22/30/5
f 32/28/8 34/31/8 12/32/8 11/29/8
f 1/16/4 2/15/4 15/33/4 14/34/4
f 27/35/1 28/36/1 16/37/1 13/38/1
f 10/39/2 9/40/2 13/38/2 16/37/2
f 25/20/9 10/25/9 16/41/9 28/42/9
f 23/43/5 1/44/5 14/45/5 27/46/5
f 33/47/5 35/27/5 22/30/5 9/48/5
f 34/31/10 36/23/10 21/26/10 12/32/10
f 20/49/6 6/50/6 29/51/6
f 23/43/5 30/17/5 19/18/5 1/44/5
f 5/12/4 6/11/4 20/14/4 19/13/4
f 3/4/2 4/3/2 18/6/2 17/5/2
f 9/48/5 22/30/5 30/17/5 23/43/5
f 12/32/11 21/26/11 29/19/11 24/10/11
f 9/48/5 23/43/5 27/46/5 13/52/5
f 2/21/6 25/20/6 28/42/6 15/53/6
f 14/54/1 15/55/1 28/36/1 27/35/1
f 29/51/12 21/56/12 10/57/12
f 22/30/5 11/29/5 26/9/5 30/17/5
f 11/29/3 12/32/3 24/10/3 26/9/3
f 6/50/11 24/58/11 29/51/11
f 29/51/9 10/57/9 25/59/9
f 4/3/1 31/2/1 37/60/1 38/61/1
f 3/62/5 17/63/5 35/27/5 33/47/5
f 7/8/3 8/7/3 34/31/3 32/28/3
f 17/63/5 7/8/5 32/28/5 35/27/5
f 31/24/4 36/23/4 42/64/4 37/65/4
f 9/40/13 10/39/13 31/2/13 33/1/13
f 36/23/4 34/31/4 40/66/4 42/64/4
f 18/6/2 4/3/2 38/61/2 41/67/2
f 8/7/2 18/6/2 41/67/2 39/68/2
f 34/31/3 8/7/3 39/68/3 40/66/3
f 49/69/14 46/70/14 43/71/14 44/72/14
f 43/71/15 46/70/15 48/73/15 45/74/15
f 49/75/16 47/76/16 46/77/16
f 46/70/17 47/78/17 57/79/17 48/73/17
f 44/80/18 52/81/18 49/75/18
f 49/75/19 50/82/19 47/76/19
f 53/83/20 50/84/20 49/69/20 51/85/20
f 52/81/21 51/86/21 49/75/21
f 54/87/22 55/88/22 50/84/22 53/83/22
f 55/88/23 56/89/23 47/78/23 50/84/23
f 64/90/24 59/91/24 58/92/24 61/93/24
f 58/92/24 60/94/24 63/95/24 61/93/24
f 64/96/25 61/97/25 62/98/25
f 61/93/25 63/95/25 72/99/25 62/100/25
f 59/101/24 64/96/24 67/102/24
f 64/96/26 62/98/26 65/103/26
f 68/104/27 66/105/27 64/90/27 65/106/27
f 67/102/27 64/96/27 66/107/27
f 69/108/28 68/104/28 65/106/28 70/109/28
f 70/109/29 65/106/29 62/100/29 71/110/29
f 44/72/30 43/71/30 58/92/30 59/91/30
f 43/71/30 45/74/30 60/94/30 58/92/30
f 51/86/31 52/81/31 67/102/31 66/107/31
f 52/81/32 44/80/32 59/101/32 67/102/32
f 53/83/33 51/85/33 66/105/33 68/104/33
f 54/87/34 53/83/34 68/104/34 69/108/34
f 55/88/2 54/87/2 69/108/2 70/109/2
f 56/89/35 55/88/35 70/109/35 71/110/35
f 47/78/36 56/89/36 71/110/36 62/100/36
f 48/73/37 57/79/37 72/99/37 63/95/37
f 45/74/1 48/73/1 63/95/1 60/94/1
f 57/79/38 47/78/38 62/100/38 72/99/38
f 73/111/4 74/112/4 76/113/4 75/114/4
f 75/114/3 76/113/3 80/115/3 79/116/3
f 79/116/2 80/115/2 78/117/2 77/118/2
f 77/118/1 78/117/1 74/119/1 73/120/1
f 75/121/39 79/116/39 77/118/39 73/122/39
f 80/115/40 76/123/40 74/124/40 78/117/40
f 81/125/39 82/126/39 84/127/39 83/128/39
f 83/128/1 84/127/1 88/129/1 87/130/1
f 87/130/5 88/129/5 86/131/5 85/132/5
f 85/132/3 86/131/3 82/133/3 81/134/3
f 83/135/4 87/130/4 85/132/4 81/136/4
f 88/129/2 84/137/2 82/138/2 86/131/2
f 89/139/4 90/140/4 92/141/4 91/142/4
f 91/142/1 92/141/1 96/143/1 95/144/1
f 95/144/2 96/143/2 94/145/2 93/146/2
f 93/146/3 94/145/3 90/147/3 89/148/3
f 91/149/5 95/144/5 93/146/5 89/150/5
f 96/143/41 92/151/41 90/152/41 94/145/41
f 97/153/1 98/154/1 100/155/1 99/156/1
f 99/156/2 100/155/2 104/157/2 103/158/2
f 103/158/3 104/157/3 102/159/3 101/160/3
f 101/160/4 102/159/4 98/161/4 97/162/4
f 99/163/5 103/158/5 101/160/5 97/164/5
f 104/157/39 100/165/39 98/166/39 102/159/39
f 105/167/1 106/168/1 108/169/1 107/170/1
f 113/171/2 114/172/2 112/173/2 111/174/2
f 111/174/3 112/173/3 110/175/3 109/176/3
f 115/177/4 116/178/4 106/179/4 105/180/4
f 113/181/5 111/174/5 109/176/5 115/182/5
f 114/183/42 108/184/42 106/185/42 116/186/42
f 112/173/43 114/183/43 116/186/43 110/175/43
f 107/187/5 113/181/5 115/182/5 105/188/5
f 109/176/4 110/175/4 116/178/4 115/177/4
f 107/170/2 108/169/2 114/172/2 113/171/2
f 117/189/44 118/190/44 120/191/44 119/192/44
f 125/193/5 122/194/5 121/195/5 128/196/5
f 122/194/45 120/197/45 118/198/45 121/195/45
f 125/193/46 128/196/46 123/199/46 124/200/46
f 121/195/4 118/201/4 117/202/4 127/203/4 123/204/4 128/205/4
f 119/192/2 120/197/2 122/194/2 125/206/2 124/207/2 126/208/2
f 124/200/47 123/199/47 127/209/47 126/210/47
f 119/211/5 126/210/5 127/209/5 117/212/5
f 135/213/48 137/214/48 139/215/48 136/216/48
f 133/217/49 136/216/49 139/215/49 140/218/49
f 137/219/50 138/220/50 141/221/50
f 140/218/51 139/215/51 141/222/51
f 131/223/52 130/224/52 134/225/52 135/213/52
f 132/226/53 131/223/53 135/213/53 136/216/53
f 130/227/54 129/228/54 133/217/54 134/229/54
f 129/228/55 132/226/55 136/216/55 133/217/55
f 135/213/56 134/225/56 138/220/56 137/219/56
f 133/217/57 140/218/57 138/220/57 134/225/57
f 139/215/58 137/214/58 141/230/58
f 138/220/59 140/218/59 141/231/59
