# 3ds Max Wavefront OBJ Exporter v0.97b - (c)2007 guruware
# File Created: 02.02.2020 13:23:22

mtllib Hous_7_Cut.mtl

#
# object House7_T
#

v  3.0903 3.0054 3.0596
v  3.0903 3.0054 -3.0596
v  3.1894 3.1181 -3.0596
v  3.1894 3.1181 3.0596
v  -3.0903 3.0054 -3.0596
v  -3.0903 3.0054 3.0596
v  -3.1894 3.1181 3.0596
v  -3.1894 3.1181 -3.0596
v  3.1517 0.2518 2.9528
v  3.1517 0.2518 -2.9528
v  3.0000 0.2518 -2.8107
v  3.0000 0.2518 2.8107
v  3.0000 3.0151 -2.8107
v  0.0000 0.2518 -2.8107
v  0.0000 5.7735 -2.8107
v  3.0000 0.0000 2.8107
v  0.0000 0.0000 2.8107
v  0.0000 0.0000 -2.8107
v  3.0000 0.0000 -2.8107
v  -3.0000 3.0151 2.8107
v  -3.0000 0.2518 2.8107
v  0.0000 0.2518 2.8107
v  0.0000 5.7735 2.8107
v  -3.0000 3.0151 -2.8107
v  -3.0000 0.2518 -2.8107
v  3.0000 3.0151 2.8107
v  -3.0000 0.0000 2.8107
v  -3.0000 0.0000 -2.8107
v  0.0000 0.2518 2.9528
v  0.0000 0.2518 -2.9528
v  3.1517 0.0000 2.9528
v  0.0000 0.0000 2.9528
v  -3.1517 0.2518 -2.9528
v  -3.1517 0.0000 2.9528
v  -3.1517 0.0000 -2.9528
v  3.1517 0.0000 -2.9528
v  0.0000 0.0000 -2.9528
v  -3.1517 0.2518 2.9528
v  2.8382 3.2304 -2.8725
v  2.8382 0.0000 -2.8725
v  2.8382 0.0000 -2.6489
v  2.8382 3.2304 -2.6489
v  3.0618 3.0628 -2.8725
v  3.0618 0.0000 -2.8725
v  3.0618 3.0628 -2.6489
v  3.0618 0.0000 -2.6489
v  -2.8382 3.2304 -2.8725
v  -2.8382 0.0000 -2.8725
v  -2.8382 0.0000 -2.6489
v  -2.8382 3.2304 -2.6489
v  -3.0618 3.0628 -2.8725
v  -3.0618 0.0000 -2.8725
v  -3.0618 3.0628 -2.6489
v  -3.0618 0.0000 -2.6489
v  2.8382 3.2304 2.8725
v  2.8382 0.0000 2.8725
v  2.8382 0.0000 2.6489
v  2.8382 3.2304 2.6489
v  3.0618 3.0628 2.8725
v  3.0618 0.0000 2.8725
v  3.0618 3.0628 2.6489
v  3.0618 0.0000 2.6489
v  -2.8382 3.2304 2.8725
v  -2.8382 0.0000 2.8725
v  -2.8382 0.0000 2.6489
v  -2.8382 3.2304 2.6489
v  -3.0618 3.0628 2.8725
v  -3.0618 0.0000 2.8725
v  -3.0618 3.0628 2.6489
v  -3.0618 0.0000 2.6489
v  2.9363 3.0915 -2.8637
v  -2.9363 3.0915 -2.8637
v  -2.9363 3.0915 -2.6228
v  2.9363 3.0915 -2.6228
v  2.9363 2.8679 -2.8637
v  -2.9363 2.8679 -2.8637
v  2.9363 2.8679 -2.6228
v  -2.9363 2.8679 -2.6228
v  2.9363 3.0915 2.8637
v  -2.9363 3.0915 2.8637
v  -2.9363 3.0915 2.6228
v  2.9363 3.0915 2.6228
v  2.9363 2.8679 2.8637
v  -2.9363 2.8679 2.8637
v  2.9363 2.8679 2.6228
v  -2.9363 2.8679 2.6228
# 86 vertices

vn 0.7509 -0.6605 -0.0000
vn -0.7509 -0.6605 -0.0000
vn 0.0000 1.0000 -0.0000
vn 0.0000 0.0000 -1.0000
vn 0.0000 -1.0000 -0.0000
vn 0.0000 0.0000 1.0000
vn -1.0000 0.0000 -0.0000
vn 1.0000 0.0000 -0.0000
vn 0.5997 0.8002 -0.0000
vn 0.5997 -0.8002 -0.0000
vn -0.5997 -0.8002 -0.0000
vn -0.5997 0.8002 -0.0000
# 12 vertex normals

vt 0.3750 0.7500 0.0000
vt 0.3750 0.5000 0.0000
vt 0.3750 0.2500 0.0000
vt 0.3750 0.0000 0.0000
vt 0.3959 0.7500 0.0000
vt 0.3959 0.5000 0.0000
vt 0.6250 0.5000 0.0000
vt 0.3859 0.3750 0.0000
vt 0.6250 0.3750 0.0000
vt 0.2500 0.7500 0.0000
vt 0.2500 0.5000 0.0000
vt 0.6250 1.0000 0.0000
vt 0.3959 1.0000 0.0000
vt 0.3859 0.8750 0.0000
vt 0.6250 0.8750 0.0000
vt 0.6250 0.0000 0.0000
vt 0.6250 0.2500 0.0000
vt 0.3959 0.2500 0.0000
vt 0.3959 0.0000 0.0000
vt 0.6250 0.7500 0.0000
vt 0.1250 0.7500 0.0000
vt 0.1250 0.5000 0.0000
vt 0.3750 0.3750 0.0000
vt 0.3750 0.8750 0.0000
vt 0.3750 1.0000 0.0000
vt 0.8750 0.7500 0.0000
vt 0.8750 0.5000 0.0000
# 27 texture coords

o House7_T
g House7_T
usemtl Material
s off
f 1/1/1 2/2/1 3/2/1 
f 3/2/1 4/1/1 1/1/1 
f 5/3/2 6/4/2 7/4/2 
f 7/4/2 8/3/2 5/3/2 
f 9/5/3 10/6/3 11/6/3 
f 11/6/3 12/5/3 9/5/3 
f 13/7/4 11/6/4 14/8/4 
f 14/8/4 15/9/4 13/7/4 
f 16/1/5 17/10/5 18/11/5 
f 18/11/5 19/2/5 16/1/5 
f 20/12/6 21/13/6 22/14/6 
f 22/14/6 23/15/6 20/12/6 
f 20/16/7 24/17/7 25/18/7 
f 25/18/7 21/19/7 20/16/7 
f 23/15/6 22/14/6 12/5/6 
f 12/5/6 26/20/6 23/15/6 
f 17/10/5 27/21/5 28/22/5 
f 28/22/5 18/11/5 17/10/5 
f 15/9/4 14/8/4 25/18/4 
f 25/18/4 24/17/4 15/9/4 
f 29/14/3 9/5/3 12/5/3 
f 12/5/3 22/14/3 29/14/3 
f 10/6/3 30/8/3 14/8/3 
f 14/8/3 11/6/3 10/6/3 
f 31/1/5 32/10/5 17/10/5 
f 17/10/5 16/1/5 31/1/5 
f 30/8/3 33/18/3 25/18/3 
f 25/18/3 14/8/3 30/8/3 
f 34/21/5 35/22/5 28/22/5 
f 28/22/5 27/21/5 34/21/5 
f 12/5/8 11/6/8 13/7/8 
f 13/7/8 26/20/8 12/5/8 
f 31/1/8 36/2/8 10/6/8 
f 10/6/8 9/5/8 31/1/8 
f 30/8/4 37/23/4 35/3/4 
f 35/3/4 33/18/4 30/8/4 
f 29/14/6 32/24/6 31/1/6 
f 31/1/6 9/5/6 29/14/6 
f 38/19/7 33/18/7 35/3/7 
f 35/3/7 34/4/7 38/19/7 
f 38/13/6 34/25/6 32/24/6 
f 32/24/6 29/14/6 38/13/6 
f 10/6/4 36/2/4 37/23/4 
f 37/23/4 30/8/4 10/6/4 
f 32/10/5 34/21/5 27/21/5 
f 27/21/5 17/10/5 32/10/5 
f 33/18/3 38/19/3 21/19/3 
f 21/19/3 25/18/3 33/18/3 
f 35/22/5 37/11/5 18/11/5 
f 18/11/5 28/22/5 35/22/5 
f 36/2/5 31/1/5 16/1/5 
f 16/1/5 19/2/5 36/2/5 
f 38/13/3 29/14/3 22/14/3 
f 22/14/3 21/13/3 38/13/3 
f 37/11/5 36/2/5 19/2/5 
f 19/2/5 18/11/5 37/11/5 
f 39/17/7 40/3/7 41/4/7 
f 41/4/7 42/16/7 39/17/7 
f 43/7/4 44/2/4 40/3/4 
f 40/3/4 39/17/4 43/7/4 
f 45/20/8 46/1/8 44/2/8 
f 44/2/8 43/7/8 45/20/8 
f 42/12/6 41/25/6 46/1/6 
f 46/1/6 45/20/6 42/12/6 
f 46/1/5 41/21/5 40/22/5 
f 40/22/5 44/2/5 46/1/5 
f 42/26/9 45/20/9 43/7/9 
f 43/7/9 39/27/9 42/26/9 
f 47/17/7 48/3/7 49/4/7 
f 49/4/7 50/16/7 47/17/7 
f 51/7/6 52/2/6 48/3/6 
f 48/3/6 47/17/6 51/7/6 
f 53/20/8 54/1/8 52/2/8 
f 52/2/8 51/7/8 53/20/8 
f 50/12/4 49/25/4 54/1/4 
f 54/1/4 53/20/4 50/12/4 
f 54/1/3 49/21/3 48/22/3 
f 48/22/3 52/2/3 54/1/3 
f 50/26/10 53/20/10 51/7/10 
f 51/7/10 47/27/10 50/26/10 
f 55/17/8 56/3/8 57/4/8 
f 57/4/8 58/16/8 55/17/8 
f 59/7/4 60/2/4 56/3/4 
f 56/3/4 55/17/4 59/7/4 
f 61/20/7 62/1/7 60/2/7 
f 60/2/7 59/7/7 61/20/7 
f 58/12/6 57/25/6 62/1/6 
f 62/1/6 61/20/6 58/12/6 
f 62/1/3 57/21/3 56/22/3 
f 56/22/3 60/2/3 62/1/3 
f 58/26/11 61/20/11 59/7/11 
f 59/7/11 55/27/11 58/26/11 
f 63/17/8 64/3/8 65/4/8 
f 65/4/8 66/16/8 63/17/8 
f 67/7/6 68/2/6 64/3/6 
f 64/3/6 63/17/6 67/7/6 
f 69/20/7 70/1/7 68/2/7 
f 68/2/7 67/7/7 69/20/7 
f 66/12/4 65/25/4 70/1/4 
f 70/1/4 69/20/4 66/12/4 
f 70/1/5 65/21/5 64/22/5 
f 64/22/5 68/2/5 70/1/5 
f 66/26/12 69/20/12 67/7/12 
f 67/7/12 63/27/12 66/26/12 
f 71/17/3 72/3/3 73/4/3 
f 73/4/3 74/16/3 71/17/3 
f 75/7/4 76/2/4 72/3/4 
f 72/3/4 71/17/4 75/7/4 
f 77/20/5 78/1/5 76/2/5 
f 76/2/5 75/7/5 77/20/5 
f 74/12/6 73/25/6 78/1/6 
f 78/1/6 77/20/6 74/12/6 
f 78/1/7 73/21/7 72/22/7 
f 72/22/7 76/2/7 78/1/7 
f 74/26/8 77/20/8 75/7/8 
f 75/7/8 71/27/8 74/26/8 
f 79/17/5 80/3/5 81/4/5 
f 81/4/5 82/16/5 79/17/5 
f 83/7/4 84/2/4 80/3/4 
f 80/3/4 79/17/4 83/7/4 
f 85/20/3 86/1/3 84/2/3 
f 84/2/3 83/7/3 85/20/3 
f 82/12/6 81/25/6 86/1/6 
f 86/1/6 85/20/6 82/12/6 
f 86/1/8 81/21/8 80/22/8 
f 80/22/8 84/2/8 86/1/8 
f 82/26/7 85/20/7 83/7/7 
f 83/7/7 79/27/7 82/26/7 
# 128 faces

#
# object House7_R
#

v  3.1894 3.1181 3.0596
v  3.1894 3.1181 -3.0596
v  0.0000 5.9235 -3.0596
v  0.0000 5.9235 3.0596
v  -3.1894 3.1181 -3.0596
v  -3.1894 3.1181 3.0596
v  3.0903 3.0054 3.0596
v  0.0000 5.7735 3.0596
v  0.0000 5.7735 -3.0596
v  3.0903 3.0054 -3.0596
v  -3.0903 3.0054 3.0596
v  -3.0903 3.0054 -3.0596
v  3.0000 3.0151 2.8107
v  3.0000 3.0151 -2.8107
v  0.0000 5.7735 -2.8107
v  0.0000 5.7735 2.8107
v  -3.0000 3.0151 -2.8107
v  -3.0000 3.0151 2.8107
v  -1.8037 6.2326 -0.1518
v  -1.8037 3.9371 -0.1518
v  -0.6807 3.9371 -0.1518
v  -0.6807 6.2326 -0.1518
v  -1.8037 6.2326 -1.2222
v  -1.8037 3.9371 -1.2222
v  -0.6807 6.2326 -1.2222
v  -0.6807 3.9371 -1.2222
# 26 vertices

vn 0.6605 0.7509 -0.0000
vn -0.6605 0.7509 -0.0000
vn -0.6672 -0.7449 -0.0000
vn 0.6672 -0.7449 -0.0000
vn 0.0000 0.0000 -1.0000
vn 0.0000 0.0000 1.0000
vn 0.6768 0.7361 -0.0000
vn -0.6768 0.7361 -0.0000
vn -1.0000 0.0000 -0.0000
vn 0.0000 1.0000 -0.0000
vn 1.0000 0.0000 -0.0000
vn 0.0000 0.0000 -0.0000
# 12 vertex normals

vt 0.3750 0.7500 0.0000
vt 0.3750 0.5000 0.0000
vt 0.6250 0.5000 0.0000
vt 0.6250 0.7500 0.0000
vt 0.6250 0.0000 0.0000
vt 0.6250 0.2500 0.0000
vt 0.3750 0.2500 0.0000
vt 0.3750 0.0000 0.0000
vt 0.7500 0.5000 0.0000
vt 0.7500 0.7500 0.0000
vt 0.8750 0.5000 0.0000
vt 0.8750 0.7500 0.0000
vt 0.6250 1.0000 0.0000
vt 0.3896 1.0000 0.0000
vt 0.3896 0.7500 0.0000
vt 0.3896 0.2500 0.0000
vt 0.3896 0.0000 0.0000
vt 0.3896 0.5000 0.0000
# 18 texture coords

o House7_R
g House7_R
usemtl Material
s off
f 87/28/13 88/29/13 89/30/13 
f 89/30/13 90/31/13 87/28/13 
f 90/32/14 89/33/14 91/34/14 
f 91/34/14 92/35/14 90/32/14 
f 93/28/15 94/31/15 95/30/15 
f 95/30/15 96/29/15 93/28/15 
f 94/32/16 97/35/16 98/34/16 
f 98/34/16 95/33/16 94/32/16 
f 95/33/17 98/34/17 91/34/17 
f 91/34/17 89/33/17 95/33/17 
f 97/35/18 94/32/18 90/32/18 
f 90/32/18 92/35/18 97/35/18 
f 94/31/18 93/28/18 87/28/18 
f 87/28/18 90/31/18 94/31/18 
f 96/29/17 95/30/17 89/30/17 
f 89/30/17 88/29/17 96/29/17 
f 99/31/19 100/30/19 101/36/19 
f 101/36/19 102/37/19 99/31/19 
f 102/37/20 101/36/20 103/38/20 
f 103/38/20 104/39/20 102/37/20 
f 105/40/18 106/41/18 107/42/18 
f 107/42/18 108/31/18 105/40/18 
f 109/33/21 110/43/21 106/44/21 
f 106/44/21 105/32/21 109/33/21 
f 105/39/22 108/31/22 111/30/22 
f 111/30/22 109/38/22 105/39/22 
f 108/31/23 107/42/23 112/45/23 
f 112/45/23 111/30/23 108/31/23 
f 106/41/24 107/42/24 107/42/24 
f 107/42/24 106/41/24 106/41/24 
f 107/42/24 112/45/24 112/45/24 
f 112/45/24 107/42/24 107/42/24 
f 112/45/24 110/43/24 110/43/24 
f 110/43/24 112/45/24 112/45/24 
f 110/43/24 106/44/24 106/44/24 
f 106/44/24 110/43/24 110/43/24 
f 111/30/17 112/45/17 110/43/17 
f 110/43/17 109/33/17 111/30/17 
# 38 faces

