# 3ds Max Wavefront OBJ Exporter v0.97b - (c)2007 guruware
# File Created: 02.02.2020 12:54:20

mtllib Hous_5_Cut.mtl

#
# object House5_T
#

v  3.1517 0.2518 2.9528
v  3.1517 0.2518 -2.9528
v  3.0000 0.2518 -2.8107
v  3.0000 0.2518 2.8107
v  3.0000 3.0151 -2.8107
v  0.0000 0.2518 -2.8107
v  0.0000 5.7735 -2.8107
v  3.0000 0.0000 2.8107
v  0.0000 0.0000 2.8107
v  0.0000 0.0000 -2.8107
v  3.0000 0.0000 -2.8107
v  -3.0000 3.0151 2.8107
v  -3.0000 0.2518 2.8107
v  0.0000 0.2518 2.8107
v  0.0000 5.7735 2.8107
v  -3.0000 3.0151 -2.8107
v  -3.0000 0.2518 -2.8107
v  3.0000 3.0151 2.8107
v  -3.0000 0.0000 2.8107
v  -3.0000 0.0000 -2.8107
v  0.0000 0.2518 2.9528
v  0.0000 0.2518 -2.9528
v  3.1517 0.0000 2.9528
v  0.0000 0.0000 2.9528
v  -3.1517 0.2518 -2.9528
v  -3.1517 0.0000 2.9528
v  -3.1517 0.0000 -2.9528
v  3.1517 0.0000 -2.9528
v  0.0000 0.0000 -2.9528
v  -3.1517 0.2518 2.9528
v  2.8382 3.2304 -2.8725
v  2.8382 0.0000 -2.8725
v  2.8382 0.0000 -2.6489
v  2.8382 3.2304 -2.6489
v  3.0618 3.0628 -2.8725
v  3.0618 0.0000 -2.8725
v  3.0618 3.0628 -2.6489
v  3.0618 0.0000 -2.6489
v  -2.8382 3.2304 -2.8725
v  -2.8382 0.0000 -2.8725
v  -2.8382 0.0000 -2.6489
v  -2.8382 3.2304 -2.6489
v  -3.0618 3.0628 -2.8725
v  -3.0618 0.0000 -2.8725
v  -3.0618 3.0628 -2.6489
v  -3.0618 0.0000 -2.6489
v  2.8382 3.2304 2.8725
v  2.8382 0.0000 2.8725
v  2.8382 0.0000 2.6489
v  2.8382 3.2304 2.6489
v  3.0618 3.0628 2.8725
v  3.0618 0.0000 2.8725
v  3.0618 3.0628 2.6489
v  3.0618 0.0000 2.6489
v  -2.8382 3.2304 2.8725
v  -2.8382 0.0000 2.8725
v  -2.8382 0.0000 2.6489
v  -2.8382 3.2304 2.6489
v  -3.0618 3.0628 2.8725
v  -3.0618 0.0000 2.8725
v  -3.0618 3.0628 2.6489
v  -3.0618 0.0000 2.6489
v  2.9363 3.0915 -2.8637
v  -2.9363 3.0915 -2.8637
v  -2.9363 3.0915 -2.6228
v  2.9363 3.0915 -2.6228
v  2.9363 2.8679 -2.8637
v  -2.9363 2.8679 -2.8637
v  2.9363 2.8679 -2.6228
v  -2.9363 2.8679 -2.6228
v  2.9363 3.0915 2.8637
v  -2.9363 3.0915 2.8637
v  -2.9363 3.0915 2.6228
v  2.9363 3.0915 2.6228
v  2.9363 2.8679 2.8637
v  -2.9363 2.8679 2.8637
v  2.9363 2.8679 2.6228
v  -2.9363 2.8679 2.6228
# 78 vertices

vn 0.0000 1.0000 -0.0000
vn 0.0000 0.0000 -1.0000
vn 0.0000 -1.0000 -0.0000
vn 0.0000 0.0000 1.0000
vn -1.0000 0.0000 -0.0000
vn 1.0000 0.0000 -0.0000
vn 0.5997 0.8002 -0.0000
vn 0.5997 -0.8002 -0.0000
vn -0.5997 -0.8002 -0.0000
vn -0.5997 0.8002 -0.0000
# 10 vertex normals

vt 0.3959 0.7500 0.0000
vt 0.3959 0.5000 0.0000
vt 0.6250 0.5000 0.0000
vt 0.3859 0.3750 0.0000
vt 0.6250 0.3750 0.0000
vt 0.3750 0.7500 0.0000
vt 0.2500 0.7500 0.0000
vt 0.2500 0.5000 0.0000
vt 0.3750 0.5000 0.0000
vt 0.6250 1.0000 0.0000
vt 0.3959 1.0000 0.0000
vt 0.3859 0.8750 0.0000
vt 0.6250 0.8750 0.0000
vt 0.6250 0.0000 0.0000
vt 0.6250 0.2500 0.0000
vt 0.3959 0.2500 0.0000
vt 0.3959 0.0000 0.0000
vt 0.6250 0.7500 0.0000
vt 0.1250 0.7500 0.0000
vt 0.1250 0.5000 0.0000
vt 0.3750 0.3750 0.0000
vt 0.3750 0.2500 0.0000
vt 0.3750 0.8750 0.0000
vt 0.3750 0.0000 0.0000
vt 0.3750 1.0000 0.0000
vt 0.8750 0.7500 0.0000
vt 0.8750 0.5000 0.0000
# 27 texture coords

o House5_T
g House5_T
usemtl Material
s off
f 1/1/1 2/2/1 3/2/1 
f 3/2/1 4/1/1 1/1/1 
f 5/3/2 3/2/2 6/4/2 
f 6/4/2 7/5/2 5/3/2 
f 8/6/3 9/7/3 10/8/3 
f 10/8/3 11/9/3 8/6/3 
f 12/10/4 13/11/4 14/12/4 
f 14/12/4 15/13/4 12/10/4 
f 12/14/5 16/15/5 17/16/5 
f 17/16/5 13/17/5 12/14/5 
f 15/13/4 14/12/4 4/1/4 
f 4/1/4 18/18/4 15/13/4 
f 9/7/3 19/19/3 20/20/3 
f 20/20/3 10/8/3 9/7/3 
f 7/5/2 6/4/2 17/16/2 
f 17/16/2 16/15/2 7/5/2 
f 21/12/1 1/1/1 4/1/1 
f 4/1/1 14/12/1 21/12/1 
f 2/2/1 22/4/1 6/4/1 
f 6/4/1 3/2/1 2/2/1 
f 23/6/3 24/7/3 9/7/3 
f 9/7/3 8/6/3 23/6/3 
f 22/4/1 25/16/1 17/16/1 
f 17/16/1 6/4/1 22/4/1 
f 26/19/3 27/20/3 20/20/3 
f 20/20/3 19/19/3 26/19/3 
f 4/1/6 3/2/6 5/3/6 
f 5/3/6 18/18/6 4/1/6 
f 23/6/6 28/9/6 2/2/6 
f 2/2/6 1/1/6 23/6/6 
f 22/4/2 29/21/2 27/22/2 
f 27/22/2 25/16/2 22/4/2 
f 21/12/4 24/23/4 23/6/4 
f 23/6/4 1/1/4 21/12/4 
f 30/17/5 25/16/5 27/22/5 
f 27/22/5 26/24/5 30/17/5 
f 30/11/4 26/25/4 24/23/4 
f 24/23/4 21/12/4 30/11/4 
f 2/2/2 28/9/2 29/21/2 
f 29/21/2 22/4/2 2/2/2 
f 24/7/3 26/19/3 19/19/3 
f 19/19/3 9/7/3 24/7/3 
f 25/16/1 30/17/1 13/17/1 
f 13/17/1 17/16/1 25/16/1 
f 27/20/3 29/8/3 10/8/3 
f 10/8/3 20/20/3 27/20/3 
f 28/9/3 23/6/3 8/6/3 
f 8/6/3 11/9/3 28/9/3 
f 30/11/1 21/12/1 14/12/1 
f 14/12/1 13/11/1 30/11/1 
f 29/8/3 28/9/3 11/9/3 
f 11/9/3 10/8/3 29/8/3 
f 31/15/5 32/22/5 33/24/5 
f 33/24/5 34/14/5 31/15/5 
f 35/3/2 36/9/2 32/22/2 
f 32/22/2 31/15/2 35/3/2 
f 37/18/6 38/6/6 36/9/6 
f 36/9/6 35/3/6 37/18/6 
f 34/10/4 33/25/4 38/6/4 
f 38/6/4 37/18/4 34/10/4 
f 38/6/3 33/19/3 32/20/3 
f 32/20/3 36/9/3 38/6/3 
f 34/26/7 37/18/7 35/3/7 
f 35/3/7 31/27/7 34/26/7 
f 39/15/5 40/22/5 41/24/5 
f 41/24/5 42/14/5 39/15/5 
f 43/3/4 44/9/4 40/22/4 
f 40/22/4 39/15/4 43/3/4 
f 45/18/6 46/6/6 44/9/6 
f 44/9/6 43/3/6 45/18/6 
f 42/10/2 41/25/2 46/6/2 
f 46/6/2 45/18/2 42/10/2 
f 46/6/1 41/19/1 40/20/1 
f 40/20/1 44/9/1 46/6/1 
f 42/26/8 45/18/8 43/3/8 
f 43/3/8 39/27/8 42/26/8 
f 47/15/6 48/22/6 49/24/6 
f 49/24/6 50/14/6 47/15/6 
f 51/3/2 52/9/2 48/22/2 
f 48/22/2 47/15/2 51/3/2 
f 53/18/5 54/6/5 52/9/5 
f 52/9/5 51/3/5 53/18/5 
f 50/10/4 49/25/4 54/6/4 
f 54/6/4 53/18/4 50/10/4 
f 54/6/1 49/19/1 48/20/1 
f 48/20/1 52/9/1 54/6/1 
f 50/26/9 53/18/9 51/3/9 
f 51/3/9 47/27/9 50/26/9 
f 55/15/6 56/22/6 57/24/6 
f 57/24/6 58/14/6 55/15/6 
f 59/3/4 60/9/4 56/22/4 
f 56/22/4 55/15/4 59/3/4 
f 61/18/5 62/6/5 60/9/5 
f 60/9/5 59/3/5 61/18/5 
f 58/10/2 57/25/2 62/6/2 
f 62/6/2 61/18/2 58/10/2 
f 62/6/3 57/19/3 56/20/3 
f 56/20/3 60/9/3 62/6/3 
f 58/26/10 61/18/10 59/3/10 
f 59/3/10 55/27/10 58/26/10 
f 63/15/1 64/22/1 65/24/1 
f 65/24/1 66/14/1 63/15/1 
f 67/3/2 68/9/2 64/22/2 
f 64/22/2 63/15/2 67/3/2 
f 69/18/3 70/6/3 68/9/3 
f 68/9/3 67/3/3 69/18/3 
f 66/10/4 65/25/4 70/6/4 
f 70/6/4 69/18/4 66/10/4 
f 70/6/5 65/19/5 64/20/5 
f 64/20/5 68/9/5 70/6/5 
f 66/26/6 69/18/6 67/3/6 
f 67/3/6 63/27/6 66/26/6 
f 71/15/3 72/22/3 73/24/3 
f 73/24/3 74/14/3 71/15/3 
f 75/3/2 76/9/2 72/22/2 
f 72/22/2 71/15/2 75/3/2 
f 77/18/1 78/6/1 76/9/1 
f 76/9/1 75/3/1 77/18/1 
f 74/10/4 73/25/4 78/6/4 
f 78/6/4 77/18/4 74/10/4 
f 78/6/6 73/19/6 72/20/6 
f 72/20/6 76/9/6 78/6/6 
f 74/26/5 77/18/5 75/3/5 
f 75/3/5 71/27/5 74/26/5 
# 124 faces

#
# object House5_R
#

v  3.1894 3.1181 3.0596
v  3.1894 3.1181 -3.0596
v  0.0000 5.9235 -3.0596
v  0.0000 5.9235 3.0596
v  -3.1894 3.1181 -3.0596
v  -3.1894 3.1181 3.0596
v  3.0903 3.0054 3.0596
v  0.0000 5.7735 3.0596
v  0.0000 5.7735 -3.0596
v  3.0903 3.0054 -3.0596
v  -3.0903 3.0054 3.0596
v  -3.0903 3.0054 -3.0596
v  3.0000 3.0151 2.8107
v  3.0000 3.0151 -2.8107
v  0.0000 5.7735 -2.8107
v  0.0000 5.7735 2.8107
v  -3.0000 3.0151 -2.8107
v  -3.0000 3.0151 2.8107
v  -1.8037 6.2326 -0.1518
v  -1.8037 3.9371 -0.1518
v  -0.6807 3.9371 -0.1518
v  -0.6807 6.2326 -0.1518
v  -1.8037 6.2326 -1.2222
v  -1.8037 3.9371 -1.2222
v  -0.6807 6.2326 -1.2222
v  -0.6807 3.9371 -1.2222
# 26 vertices

vn 0.6605 0.7509 -0.0000
vn -0.6605 0.7509 -0.0000
vn -0.6672 -0.7449 -0.0000
vn 0.6672 -0.7449 -0.0000
vn 0.0000 0.0000 -1.0000
vn 0.0000 0.0000 1.0000
vn 0.7509 -0.6605 -0.0000
vn -0.7509 -0.6605 -0.0000
vn 0.6768 0.7361 -0.0000
vn -0.6768 0.7361 -0.0000
vn -1.0000 0.0000 -0.0000
vn 0.0000 1.0000 -0.0000
vn 1.0000 0.0000 -0.0000
vn 0.0000 0.0000 -0.0000
# 14 vertex normals

vt 0.3750 0.7500 0.0000
vt 0.3750 0.5000 0.0000
vt 0.6250 0.5000 0.0000
vt 0.6250 0.7500 0.0000
vt 0.6250 0.0000 0.0000
vt 0.6250 0.2500 0.0000
vt 0.3750 0.2500 0.0000
vt 0.3750 0.0000 0.0000
vt 0.7500 0.5000 0.0000
vt 0.7500 0.7500 0.0000
vt 0.8750 0.5000 0.0000
vt 0.8750 0.7500 0.0000
vt 0.6250 1.0000 0.0000
vt 0.3896 1.0000 0.0000
vt 0.3896 0.7500 0.0000
vt 0.3896 0.2500 0.0000
vt 0.3896 0.0000 0.0000
vt 0.3896 0.5000 0.0000
# 18 texture coords

o House5_R
g House5_R
usemtl Material
s off
f 79/28/11 80/29/11 81/30/11 
f 81/30/11 82/31/11 79/28/11 
f 82/32/12 81/33/12 83/34/12 
f 83/34/12 84/35/12 82/32/12 
f 85/28/13 86/31/13 87/30/13 
f 87/30/13 88/29/13 85/28/13 
f 86/32/14 89/35/14 90/34/14 
f 90/34/14 87/33/14 86/32/14 
f 87/33/15 90/34/15 83/34/15 
f 83/34/15 81/33/15 87/33/15 
f 89/35/16 86/32/16 82/32/16 
f 82/32/16 84/35/16 89/35/16 
f 85/28/17 88/29/17 80/29/17 
f 80/29/17 79/28/17 85/28/17 
f 90/34/18 89/35/18 84/35/18 
f 84/35/18 83/34/18 90/34/18 
f 86/31/16 85/28/16 79/28/16 
f 79/28/16 82/31/16 86/31/16 
f 88/29/15 87/30/15 81/30/15 
f 81/30/15 80/29/15 88/29/15 
f 91/31/19 92/30/19 93/36/19 
f 93/36/19 94/37/19 91/31/19 
f 94/37/20 93/36/20 95/38/20 
f 95/38/20 96/39/20 94/37/20 
f 97/40/16 98/41/16 99/42/16 
f 99/42/16 100/31/16 97/40/16 
f 101/33/21 102/43/21 98/44/21 
f 98/44/21 97/32/21 101/33/21 
f 97/39/22 100/31/22 103/30/22 
f 103/30/22 101/38/22 97/39/22 
f 100/31/23 99/42/23 104/45/23 
f 104/45/23 103/30/23 100/31/23 
f 98/41/24 99/42/24 99/42/24 
f 99/42/24 98/41/24 98/41/24 
f 99/42/24 104/45/24 104/45/24 
f 104/45/24 99/42/24 99/42/24 
f 104/45/24 102/43/24 102/43/24 
f 102/43/24 104/45/24 104/45/24 
f 102/43/24 98/44/24 98/44/24 
f 98/44/24 102/43/24 102/43/24 
f 103/30/15 104/45/15 102/43/15 
f 102/43/15 101/33/15 103/30/15 
# 42 faces

