# 3ds Max Wavefront OBJ Exporter v0.97b - (c)2007 guruware
# File Created: 02.02.2020 13:24:57

mtllib Hous_8_Cut.mtl

#
# object House8_T
#

v  -1.8987 2.9423 2.8595
v  -1.8987 0.0000 2.8595
v  4.1013 0.0000 2.8595
v  4.1013 2.9423 2.8595
v  -1.8987 2.9423 -2.8595
v  -1.8987 0.0000 -2.8595
v  -1.8987 0.0000 -0.0000
v  -1.8987 2.9423 -0.0000
v  4.1013 0.0000 -0.0000
v  4.1013 2.9423 -0.0000
v  4.1013 2.9423 -2.8595
v  4.1013 0.0000 -2.8595
v  -2.0530 0.0000 -3.0765
v  -2.0530 0.0000 3.0734
v  -1.8765 0.3976 2.8393
v  -2.0428 0.0785 3.0505
v  4.2453 0.0785 3.0505
v  4.0791 0.3976 2.8393
v  4.0791 0.3976 -2.8424
v  -1.8765 0.3976 -2.8424
v  4.2556 0.0000 3.0734
v  4.2556 0.0000 -3.0765
v  4.2453 0.0785 -3.0536
v  -2.0428 0.0785 -3.0536
# 24 vertices

vn 0.0000 0.0000 1.0000
vn -1.0000 0.0000 -0.0000
vn 1.0000 0.0000 -0.0000
vn 0.0000 0.0000 -1.0000
vn 0.0000 0.5519 0.8339
vn 0.0000 1.0000 -0.0000
vn 0.8869 0.4620 -0.0000
vn 0.0000 0.5519 -0.8339
vn 0.0000 0.2800 0.9600
vn 0.9916 0.1297 -0.0000
vn 0.0000 0.2800 -0.9600
vn -0.9916 0.1297 -0.0000
vn -0.8869 0.4620 -0.0000
# 13 vertex normals

vt 0.5167 1.0000 0.0000
vt 0.3896 1.0000 0.0000
vt 0.3896 0.7500 0.0000
vt 0.5167 0.7500 0.0000
vt 0.5167 0.2500 0.0000
vt 0.3896 0.2500 0.0000
vt 0.3896 0.1250 0.0000
vt 0.5167 0.1250 0.0000
vt 0.3896 0.6250 0.0000
vt 0.5167 0.6250 0.0000
vt 0.5167 0.5000 0.0000
vt 0.3896 0.5000 0.0000
vt 0.3896 0.0000 0.0000
vt 0.5167 0.0000 0.0000
vt 0.6250 1.0000 0.0000
vt 0.4360 1.0000 0.0000
vt 0.4360 0.7500 0.0000
vt 0.6250 0.7500 0.0000
vt 0.8750 0.7500 0.0000
vt 0.6250 0.5000 0.0000
vt 0.8750 0.5000 0.0000
vt 0.4360 0.5000 0.0000
vt 0.4360 0.2500 0.0000
vt 0.6250 0.2500 0.0000
vt 0.4360 0.0000 0.0000
vt 0.6250 0.0000 0.0000
# 26 texture coords

o House8_T
g House8_T
usemtl Material
s off
f 1/1/1 2/2/1 3/3/1 
f 3/3/1 4/4/1 1/1/1 
f 5/5/2 6/6/2 7/7/2 
f 7/7/2 8/8/2 5/5/2 
f 4/4/3 3/3/3 9/9/3 
f 9/9/3 10/10/3 4/4/3 
f 11/11/4 12/12/4 6/6/4 
f 6/6/4 5/5/4 11/11/4 
f 10/10/3 9/9/3 12/12/3 
f 12/12/3 11/11/3 10/10/3 
f 8/8/2 7/7/2 2/13/2 
f 2/13/2 1/14/2 8/8/2 
f 13/6/1 14/13/1 14/13/1 
f 14/13/1 13/6/1 13/6/1 
f 15/15/5 16/16/5 17/17/5 
f 17/17/5 18/18/5 15/15/5 
f 15/19/6 18/18/6 19/20/6 
f 19/20/6 20/21/6 15/19/6 
f 21/3/1 22/12/1 22/12/1 
f 22/12/1 21/3/1 21/3/1 
f 18/18/7 17/17/7 23/22/7 
f 23/22/7 19/20/7 18/18/7 
f 22/12/1 13/6/1 13/6/1 
f 13/6/1 22/12/1 22/12/1 
f 19/20/8 23/22/8 24/23/8 
f 24/23/8 20/24/8 19/20/8 
f 14/2/1 21/3/1 21/3/1 
f 21/3/1 14/2/1 14/2/1 
f 14/2/9 21/3/9 17/17/9 
f 17/17/9 16/16/9 14/2/9 
f 21/3/10 22/12/10 23/22/10 
f 23/22/10 17/17/10 21/3/10 
f 22/12/11 13/6/11 24/23/11 
f 24/23/11 23/22/11 22/12/11 
f 13/6/12 14/13/12 16/25/12 
f 16/25/12 24/23/12 13/6/12 
f 20/24/13 24/23/13 16/25/13 
f 16/25/13 15/26/13 20/24/13 
# 38 faces

#
# object House8_R
#

v  4.2447 5.4487 -2.6147
v  -4.2440 5.4487 -2.6147
v  -4.2440 5.4487 -3.1434
v  4.2447 5.4487 -3.1434
v  4.2447 8.4487 -0.0000
v  -4.2440 8.4487 -0.0000
v  -4.2440 7.9386 -0.0000
v  4.2447 7.9386 -0.0000
v  4.2447 5.4487 2.6147
v  -4.2440 5.4487 2.6147
v  -4.2440 5.4487 3.1434
v  4.2447 5.4487 3.1434
v  -1.8987 5.4487 2.8595
v  -1.8987 3.1997 2.8595
v  4.1013 3.1997 2.8595
v  4.1013 5.4487 2.8595
v  -1.8987 5.4487 -2.8595
v  -1.8987 3.1997 -2.8595
v  -1.8987 3.1997 -0.0000
v  -1.8987 7.9386 -0.0000
v  4.1013 7.9386 -0.0000
v  4.1013 3.1997 -0.0000
v  -1.8987 0.0000 2.8595
v  4.1013 0.0000 2.8595
v  4.1013 0.0000 -0.0000
v  4.1013 0.0000 -2.8595
v  -1.8987 0.0000 -2.8595
v  -1.8987 0.0000 -0.0000
v  4.1013 5.4487 -2.8595
v  4.1013 3.1997 -2.8595
v  -2.0397 3.1889 -2.9939
v  -2.0397 3.1889 -0.0000
v  4.2423 2.9676 2.9939
v  -2.0397 2.9531 2.9939
v  -1.8987 2.9423 2.8595
v  4.1013 2.9423 2.8595
v  4.2423 2.9676 -2.9939
v  4.2423 2.9676 -0.0000
v  4.1013 2.9423 -0.0000
v  4.1013 2.9423 -2.8595
v  4.2423 3.1743 -0.0000
v  4.2423 3.1743 2.9939
v  -2.0397 2.9531 -2.9939
v  -1.8987 2.9423 -2.8595
v  4.2423 3.1743 -2.9939
v  -2.0397 3.1889 2.9939
v  -4.2556 3.1997 -2.9939
v  -4.2556 3.1997 -0.0000
v  -2.0397 2.9531 -0.0000
v  -1.8987 2.9423 -0.0000
v  -4.2556 2.9423 -2.9939
v  -4.2556 2.9423 -0.0000
v  -4.2556 3.1997 2.9939
v  -4.2556 2.9423 2.9939
v  -0.2751 8.6163 -0.7258
v  -0.2751 4.8477 -0.7258
v  0.8479 4.8477 -0.7258
v  0.8479 8.6163 -0.7258
v  -0.2751 8.6163 -1.7962
v  -0.2751 4.8477 -1.7962
v  0.8479 8.6163 -1.7962
v  0.8479 4.8477 -1.7962
v  -4.2440 5.4487 -2.9820
v  -4.2440 3.1925 -2.9820
v  -4.2440 3.1925 -2.7516
v  -4.2440 5.4487 -2.7516
v  -4.0136 5.4487 -2.9820
v  -4.0136 3.1925 -2.9820
v  -4.0136 5.4487 -2.7516
v  -4.0136 3.1925 -2.7516
v  -4.2440 5.4487 2.9030
v  -4.2440 3.1925 2.9030
v  -4.0136 3.1925 2.9030
v  -4.0136 5.4487 2.9030
v  -4.2440 5.4487 2.6727
v  -4.2440 3.1925 2.6727
v  -4.0136 5.4487 2.6727
v  -4.0136 3.1925 2.6727
v  -4.2036 4.2418 2.6727
v  -4.2036 4.2418 -2.7516
v  -4.2036 4.0923 -2.7516
v  -4.2036 4.0923 2.6727
v  -4.0541 4.2418 2.6727
v  -4.0541 4.2418 -2.7516
v  -4.0541 4.0923 2.6727
v  -4.0541 4.0923 -2.7516
v  -4.1847 3.1925 0.0164
v  -4.1847 4.0923 0.0164
v  -4.1847 4.0923 -0.0954
v  -4.1847 3.1925 -0.0954
v  -4.0729 3.1925 0.0164
v  -4.0729 4.0923 0.0164
v  -4.0729 3.1925 -0.0954
v  -4.0729 4.0923 -0.0954
v  -4.1847 3.1925 0.7514
v  -4.1847 4.0923 0.7514
v  -4.1847 4.0923 0.6396
v  -4.1847 3.1925 0.6396
v  -4.0729 3.1925 0.7514
v  -4.0729 4.0923 0.7514
v  -4.0729 3.1925 0.6396
v  -4.0729 4.0923 0.6396
v  -4.1847 3.1925 1.4863
v  -4.1847 4.0923 1.4863
v  -4.1847 4.0923 1.3746
v  -4.1847 3.1925 1.3746
v  -4.0729 3.1925 1.4863
v  -4.0729 4.0923 1.4863
v  -4.0729 3.1925 1.3746
v  -4.0729 4.0923 1.3746
v  -4.1847 3.1925 2.2213
v  -4.1847 4.0923 2.2213
v  -4.1847 4.0923 2.1095
v  -4.1847 3.1925 2.1095
v  -4.0729 3.1925 2.2213
v  -4.0729 4.0923 2.2213
v  -4.0729 3.1925 2.1095
v  -4.0729 4.0923 2.1095
v  -4.1847 3.1925 -0.8303
v  -4.1847 4.0923 -0.8303
v  -4.1847 4.0923 -0.7185
v  -4.1847 3.1925 -0.7185
v  -4.0729 3.1925 -0.8303
v  -4.0729 4.0923 -0.8303
v  -4.0729 3.1925 -0.7185
v  -4.0729 4.0923 -0.7185
v  -4.1847 3.1925 -1.5653
v  -4.1847 4.0923 -1.5653
v  -4.1847 4.0923 -1.4535
v  -4.1847 3.1925 -1.4535
v  -4.0729 3.1925 -1.5653
v  -4.0729 4.0923 -1.5653
v  -4.0729 3.1925 -1.4535
v  -4.0729 4.0923 -1.4535
v  -2.6441 3.1925 -2.9227
v  -2.6441 4.0923 -2.9227
v  -2.6441 4.0923 -2.8109
v  -2.6441 3.1925 -2.8109
v  -2.5323 3.1925 -2.9227
v  -2.5323 4.0923 -2.9227
v  -2.5323 3.1925 -2.8109
v  -2.5323 4.0923 -2.8109
v  -1.8987 4.2418 -2.7920
v  -4.0136 4.2418 -2.7920
v  -4.0136 4.0923 -2.7920
v  -1.8987 4.0923 -2.7920
v  -1.8987 4.2418 -2.9415
v  -4.0136 4.2418 -2.9415
v  -1.8987 4.0923 -2.9415
v  -4.0136 4.0923 -2.9415
v  -3.3899 3.1925 -2.9227
v  -3.3899 4.0923 -2.9227
v  -3.3899 4.0923 -2.8109
v  -3.3899 3.1925 -2.8109
v  -3.2781 3.1925 -2.9227
v  -3.2781 4.0923 -2.9227
v  -3.2781 3.1925 -2.8109
v  -3.2781 4.0923 -2.8109
v  -2.6441 3.1925 2.8437
v  -2.6441 4.0923 2.8437
v  -2.6441 4.0923 2.7320
v  -2.6441 3.1925 2.7319
v  -2.5323 3.1925 2.8437
v  -2.5323 4.0923 2.8437
v  -2.5323 3.1925 2.7319
v  -2.5323 4.0923 2.7320
v  -1.8987 4.2418 2.7131
v  -4.0136 4.2418 2.7131
v  -4.0136 4.0923 2.7131
v  -1.8987 4.0923 2.7131
v  -1.8987 4.2418 2.8626
v  -4.0136 4.2418 2.8626
v  -1.8987 4.0923 2.8626
v  -4.0136 4.0923 2.8626
v  -3.3899 3.1925 2.8437
v  -3.3899 4.0923 2.8437
v  -3.3899 4.0923 2.7320
v  -3.3899 3.1925 2.7319
v  -3.2781 3.1925 2.8437
v  -3.2781 4.0923 2.8437
v  -3.2781 3.1925 2.7319
v  -3.2781 4.0923 2.7320
# 182 vertices

vn 0.0000 -1.0000 -0.0000
vn 0.0000 0.7234 -0.6904
vn 0.0000 -0.7242 -0.6896
vn 0.0000 0.7234 0.6904
vn -1.0000 0.0000 -0.0000
vn 0.0000 0.0000 -0.0000
vn 1.0000 0.0000 -0.0000
vn 0.0000 -0.7242 0.6896
vn 0.0000 0.0000 1.0000
vn 0.0000 0.7542 0.6567
vn 0.0000 0.0000 -1.0000
vn -0.0763 0.9971 -0.0000
vn 0.0023 -0.9966 0.0825
vn 0.0000 -0.9827 0.1854
vn 0.1770 -0.9842 -0.0000
vn 0.0023 -0.9831 -0.1831
vn 0.0000 -0.9968 -0.0801
vn 0.0049 1.0000 -0.0000
vn 0.1769 0.9842 -0.0000
vn 0.0023 0.9966 -0.0825
vn 0.0000 0.9827 -0.1854
vn -0.0763 -0.9971 -0.0000
vn 0.0023 0.9831 0.1830
vn 0.0000 0.9968 0.0801
vn 0.0049 -1.0000 -0.0000
vn 0.0000 0.7542 -0.6567
vn 0.0000 1.0000 -0.0000
vn 0.0000 -0.0000 1.0000
vn 0.0000 -0.0000 -1.0000
# 29 vertex normals

vt 0.3750 0.5210 0.0000
vt 0.1250 0.5210 0.0000
vt 0.1250 0.5000 0.0000
vt 0.3750 0.5000 0.0000
vt 0.6250 0.5000 0.0000
vt 0.3750 0.2500 0.0000
vt 0.6250 0.2500 0.0000
vt 0.1250 0.6250 0.0000
vt 0.3750 0.6250 0.0000
vt 0.3750 0.7290 0.0000
vt 0.1250 0.7290 0.0000
vt 0.6250 1.0000 0.0000
vt 0.3750 1.0000 0.0000
vt 0.3750 0.7500 0.0000
vt 0.6250 0.7500 0.0000
vt 0.3750 0.0000 0.0000
vt 0.3750 0.2290 0.0000
vt 0.3750 0.1250 0.0000
vt 0.3750 0.0210 0.0000
vt 0.1250 0.7500 0.0000
vt 0.5278 1.0000 0.0000
vt 0.5278 0.7500 0.0000
vt 0.5278 0.2500 0.0000
vt 0.5278 0.1250 0.0000
vt 0.6250 0.1250 0.0000
vt 0.8750 0.7500 0.0000
vt 0.6250 0.6250 0.0000
vt 0.8750 0.6250 0.0000
vt 0.5278 0.6250 0.0000
vt 0.3896 1.0000 0.0000
vt 0.3896 0.7500 0.0000
vt 0.3896 0.6250 0.0000
vt 0.3896 0.5000 0.0000
vt 0.3896 0.2500 0.0000
vt 0.3896 0.1250 0.0000
vt 0.5278 0.5000 0.0000
vt 0.5167 0.7500 0.0000
vt 0.5167 1.0000 0.0000
vt 0.5167 0.5000 0.0000
vt 0.5167 0.6250 0.0000
vt 0.5167 0.2500 0.0000
vt 0.5167 0.0000 0.0000
vt 0.5167 0.1250 0.0000
vt 0.5278 0.0000 0.0000
vt 0.3896 0.0000 0.0000
vt 0.8750 0.5000 0.0000
vt 0.6250 0.0000 0.0000
# 47 texture coords

o House8_R
g House8_R
usemtl Material
s off
f 25/27/14 26/28/14 27/29/14 
f 27/29/14 28/30/14 25/27/14 
f 29/31/15 28/30/15 27/32/15 
f 27/32/15 30/33/15 29/31/15 
f 31/34/16 32/35/16 33/36/16 
f 33/36/16 34/37/16 31/34/16 
f 30/38/17 35/39/17 36/40/17 
f 36/40/17 29/41/17 30/38/17 
f 35/42/18 30/33/18 27/32/18 
f 35/42/19 27/32/19 26/43/19 
f 35/42/20 26/43/20 31/44/20 
f 35/42/18 31/44/18 34/45/18 
f 28/30/20 29/41/20 36/40/20 
f 28/30/19 36/40/19 33/36/19 
f 28/30/18 33/36/18 32/35/18 
f 28/30/20 32/35/20 25/27/20 
f 26/28/21 25/27/21 32/35/21 
f 32/35/21 31/34/21 26/28/21 
f 36/40/14 35/46/14 34/37/14 
f 34/37/14 33/36/14 36/40/14 
f 37/38/22 38/47/22 39/48/22 
f 39/48/22 40/41/22 37/38/22 
f 41/33/18 42/49/18 43/50/18 
f 43/50/18 44/51/18 41/33/18 
f 37/52/23 40/41/23 45/53/23 
f 45/53/23 44/54/23 37/52/23 
f 40/41/20 39/48/20 46/55/20 
f 46/55/20 45/53/20 40/41/20 
f 47/56/19 48/57/19 48/57/19 
f 48/57/19 47/56/19 47/56/19 
f 48/57/19 49/58/19 49/58/19 
f 49/58/19 48/57/19 48/57/19 
f 50/59/19 51/60/19 51/60/19 
f 51/60/19 50/59/19 50/59/19 
f 51/60/19 52/61/19 52/61/19 
f 52/61/19 51/60/19 51/60/19 
f 53/31/24 54/62/24 42/49/24 
f 42/49/24 41/33/24 53/31/24 
f 55/49/25 56/50/25 43/50/25 
f 43/50/25 42/49/25 55/49/25 
f 57/63/26 58/64/26 59/64/26 
f 59/64/27 60/63/27 57/63/27 
f 61/65/28 62/66/28 63/66/28 
f 63/66/28 64/65/28 61/65/28 
f 57/63/20 62/66/20 65/55/20 
f 65/55/20 66/48/20 57/63/20 
f 67/67/29 61/65/29 64/65/29 
f 64/65/30 68/67/30 67/67/30 
f 61/65/24 67/67/24 55/49/24 
f 55/49/24 69/62/24 61/65/24 
f 58/64/22 57/63/22 66/48/22 
f 66/48/22 70/47/22 58/64/22 
f 71/49/31 72/50/31 56/50/31 
f 56/50/31 55/49/31 71/49/31 
f 66/48/32 65/55/32 46/55/32 
f 46/55/32 39/48/32 66/48/32 
f 69/62/33 55/49/33 42/49/33 
f 42/49/34 54/62/34 69/62/34 
f 58/68/35 73/69/35 74/69/35 
f 74/69/35 59/68/35 58/68/35 
f 70/47/36 66/48/36 39/48/36 
f 39/48/37 38/47/37 70/47/37 
f 71/49/18 75/67/18 76/69/18 
f 76/69/18 72/50/18 71/49/18 
f 75/67/24 71/49/24 55/49/24 
f 55/49/24 67/67/24 75/67/24 
f 77/47/22 78/64/22 58/64/22 
f 58/64/22 70/47/22 77/47/22 
f 78/68/38 76/69/38 73/69/38 
f 73/69/38 58/68/38 78/68/38 
f 76/69/38 75/67/38 67/67/38 
f 67/67/38 73/69/38 76/69/38 
f 72/50/18 76/69/18 78/68/18 
f 78/68/18 77/70/18 72/50/18 
f 73/69/35 67/67/35 68/67/35 
f 68/67/35 74/69/35 73/69/35 
f 65/55/32 69/62/32 54/62/32 
f 54/62/32 46/55/32 65/55/32 
f 72/50/31 77/70/31 70/70/31 
f 70/70/31 56/50/31 72/50/31 
f 62/66/20 61/65/20 69/62/20 
f 69/62/20 65/55/20 62/66/20 
f 62/66/28 57/63/28 60/63/28 
f 60/63/28 63/66/28 62/66/28 
f 56/50/25 70/70/25 38/70/25 
f 38/70/25 43/50/25 56/50/25 
f 52/61/19 47/71/19 47/71/19 
f 47/71/19 52/61/19 52/61/19 
f 49/58/19 50/59/19 50/59/19 
f 50/59/19 49/58/19 49/58/19 
f 45/53/20 46/55/20 54/62/20 
f 54/62/20 53/31/20 45/53/20 
f 44/54/39 45/53/39 53/31/39 
f 53/31/39 41/72/39 44/54/39 
f 44/51/18 43/50/18 38/70/18 
f 38/70/18 37/73/18 44/51/18 
f 79/38/22 80/56/22 81/57/22 
f 81/57/22 82/41/22 79/38/22 
f 83/33/18 84/60/18 80/71/18 
f 80/71/18 79/73/18 83/33/18 
f 79/52/40 82/41/40 85/31/40 
f 85/31/40 83/72/40 79/52/40 
f 82/41/20 81/57/20 86/59/20 
f 86/59/20 85/31/20 82/41/20 
f 80/56/19 81/57/19 81/57/19 
f 81/57/19 80/56/19 80/56/19 
f 81/57/19 86/59/19 86/59/19 
f 86/59/19 81/57/19 81/57/19 
f 86/59/19 84/60/19 84/60/19 
f 84/60/19 86/59/19 86/59/19 
f 84/60/19 80/71/19 80/71/19 
f 80/71/19 84/60/19 84/60/19 
f 85/31/24 86/59/24 84/60/24 
f 84/60/24 83/33/24 85/31/24 
f 87/33/18 88/32/18 89/42/18 
f 89/42/18 90/73/18 87/33/18 
f 91/31/24 92/30/24 88/32/24 
f 88/32/24 87/33/24 91/31/24 
f 93/41/20 94/40/20 92/30/20 
f 92/30/20 91/31/20 93/41/20 
f 90/38/22 89/39/22 94/40/22 
f 94/40/22 93/41/22 90/38/22 
f 94/40/14 89/46/14 88/29/14 
f 88/29/14 92/30/14 94/40/14 
f 90/52/40 93/41/40 91/31/40 
f 91/31/40 87/72/40 90/52/40 
f 95/33/22 96/32/22 97/42/22 
f 97/42/22 98/73/22 95/33/22 
f 99/31/18 100/30/18 96/32/18 
f 96/32/18 95/33/18 99/31/18 
f 101/41/24 102/40/24 100/30/24 
f 100/30/24 99/31/24 101/41/24 
f 98/38/20 97/39/20 102/40/20 
f 102/40/20 101/41/20 98/38/20 
f 102/40/14 97/46/14 96/29/14 
f 96/29/14 100/30/14 102/40/14 
f 98/52/40 101/41/40 99/31/40 
f 99/31/40 95/72/40 98/52/40 
f 103/33/18 104/32/18 105/42/18 
f 105/42/18 106/73/18 103/33/18 
f 107/31/40 108/30/40 104/32/40 
f 104/32/40 103/33/40 107/31/40 
f 109/41/20 110/40/20 108/30/20 
f 108/30/20 107/31/20 109/41/20 
f 106/38/14 105/39/14 110/40/14 
f 110/40/14 109/41/14 106/38/14 
f 110/40/24 105/46/24 104/29/24 
f 104/29/24 108/30/24 110/40/24 
f 106/52/22 109/41/22 107/31/22 
f 107/31/22 103/72/22 106/52/22 
f 111/33/18 112/32/18 113/42/18 
f 113/42/18 114/73/18 111/33/18 
f 115/31/22 116/30/22 112/32/22 
f 112/32/22 111/33/22 115/31/22 
f 117/41/20 118/40/20 116/30/20 
f 116/30/20 115/31/20 117/41/20 
f 114/38/24 113/39/24 118/40/24 
f 118/40/24 117/41/24 114/38/24 
f 119/33/18 120/32/18 121/42/18 
f 121/42/18 122/73/18 119/33/18 
f 123/31/41 124/30/41 120/32/41 
f 120/32/41 119/33/41 123/31/41 
f 125/41/20 126/40/20 124/30/20 
f 124/30/20 123/31/20 125/41/20 
f 122/38/24 121/39/24 126/40/24 
f 126/40/24 125/41/24 122/38/24 
f 127/33/18 128/32/18 129/42/18 
f 129/42/18 130/73/18 127/33/18 
f 131/31/41 132/30/41 128/32/41 
f 128/32/41 127/33/41 131/31/41 
f 133/41/20 134/40/20 132/30/20 
f 132/30/20 131/31/20 133/41/20 
f 130/38/24 129/39/24 134/40/24 
f 134/40/24 133/41/24 130/38/24 
f 135/33/18 136/32/18 137/42/18 
f 137/42/18 138/73/18 135/33/18 
f 139/31/41 140/30/41 136/32/41 
f 136/32/41 135/33/41 139/31/41 
f 141/41/20 142/40/20 140/30/20 
f 140/30/20 139/31/20 141/41/20 
f 138/38/24 137/39/24 142/40/24 
f 142/40/24 141/41/24 138/38/24 
f 143/33/20 144/32/20 145/42/20 
f 145/42/20 146/73/20 143/33/20 
f 147/31/22 148/30/22 144/32/22 
f 144/32/22 143/33/22 147/31/22 
f 149/41/18 150/40/18 148/30/18 
f 148/30/18 147/31/18 149/41/18 
f 146/38/24 145/39/24 150/40/24 
f 150/40/24 149/41/24 146/38/24 
f 151/33/20 152/32/20 153/42/20 
f 153/42/20 154/73/20 151/33/20 
f 155/31/22 156/30/22 152/32/22 
f 152/32/22 151/33/22 155/31/22 
f 157/41/18 158/40/18 156/30/18 
f 156/30/18 155/31/18 157/41/18 
f 154/38/24 153/39/24 158/40/24 
f 158/40/24 157/41/24 154/38/24 
f 159/33/20 160/32/20 161/42/20 
f 161/42/20 162/73/20 159/33/20 
f 163/31/22 164/30/22 160/32/22 
f 160/32/22 159/33/22 163/31/22 
f 165/41/18 166/40/18 164/30/18 
f 164/30/18 163/31/18 165/41/18 
f 162/38/42 161/39/42 166/40/42 
f 166/40/42 165/41/42 162/38/42 
f 167/33/22 168/32/22 169/42/22 
f 169/42/22 170/73/22 167/33/22 
f 171/31/40 172/30/40 168/32/40 
f 168/32/40 167/33/40 171/31/40 
f 173/41/24 174/40/24 172/30/24 
f 172/30/24 171/31/24 173/41/24 
f 170/38/14 169/39/14 174/40/14 
f 174/40/14 173/41/14 170/38/14 
f 175/33/20 176/32/20 177/42/20 
f 177/42/20 178/73/20 175/33/20 
f 179/31/22 180/30/22 176/32/22 
f 176/32/22 175/33/22 179/31/22 
f 181/41/18 182/40/18 180/30/18 
f 180/30/18 179/31/18 181/41/18 
f 178/38/42 177/39/42 182/40/42 
f 182/40/42 181/41/42 178/38/42 
f 183/33/18 184/32/18 185/42/18 
f 185/42/18 186/73/18 183/33/18 
f 187/31/41 188/30/41 184/32/41 
f 184/32/41 183/33/41 187/31/41 
f 189/41/20 190/40/20 188/30/20 
f 188/30/20 187/31/20 189/41/20 
f 186/38/24 185/39/24 190/40/24 
f 190/40/24 189/41/24 186/38/24 
f 191/33/22 192/32/22 193/42/22 
f 193/42/22 194/73/22 191/33/22 
f 195/31/14 196/30/14 192/32/14 
f 192/32/14 191/33/14 195/31/14 
f 197/41/24 198/40/24 196/30/24 
f 196/30/24 195/31/24 197/41/24 
f 194/38/40 193/39/40 198/40/40 
f 198/40/40 197/41/40 194/38/40 
f 199/33/18 200/32/18 201/42/18 
f 201/42/18 202/73/18 199/33/18 
f 203/31/41 204/30/41 200/32/41 
f 200/32/41 199/33/41 203/31/41 
f 205/41/20 206/40/20 204/30/20 
f 204/30/20 203/31/20 205/41/20 
f 202/38/24 201/39/24 206/40/24 
f 206/40/24 205/41/24 202/38/24 
# 246 faces

