# Blender v2.81 (sub 16) OBJ File: 'all_houses.blend'
# www.blender.org
mtllib house_1_5.mtl
o Cube.111_Cube.132
v -3.189392 3.118073 -3.059560
v 0.000000 5.923492 -3.059560
v 3.189392 3.118073 -3.059560
v -3.189392 3.118073 3.059560
v 0.000000 5.923492 3.059560
v 3.189392 3.118073 3.059560
v -3.090324 3.005445 -3.059560
v 0.000000 5.773492 -3.059560
v 3.090324 3.005445 -3.059560
v -3.090324 3.005445 3.059560
v 0.000000 5.773492 3.059560
v 3.090324 3.005445 3.059560
v -3.000000 0.000000 -2.810672
v -3.000000 3.015080 -2.810672
v 3.000000 0.000000 -2.810672
v 3.000000 3.015080 -2.810672
v -3.000000 0.000000 2.810669
v -3.000000 3.015080 2.810669
v 3.000000 3.015080 2.810669
v 3.000000 0.000000 2.810669
v 0.000000 0.000000 -2.810672
v 0.000000 5.773492 -2.810672
v 0.000000 0.000000 2.810669
v 0.000000 5.773492 2.810669
v -3.000000 0.251751 -2.810672
v 3.000000 0.251751 -2.810672
v -3.000000 0.251751 2.810669
v 3.000000 0.251751 2.810669
v 0.000000 0.251751 2.810669
v 0.000000 0.251751 -2.810672
v -3.151695 0.251751 -2.952792
v -3.151695 0.000000 -2.952792
v 0.000000 0.000000 -2.952792
v 3.151695 0.251751 -2.952792
v 3.151695 0.000000 -2.952792
v 3.151695 0.251751 2.952790
v 3.151695 0.000000 2.952790
v 0.000000 0.000000 2.952790
v -3.151695 0.000000 2.952790
v 0.000000 0.251751 2.952790
v 0.000000 0.251751 -2.952792
v -3.151695 0.251751 2.952790
v 2.838211 0.000000 -2.648871
v 2.838211 3.230356 -2.648871
v 2.838211 0.000000 -2.872472
v 2.838211 3.230356 -2.872472
v 3.061813 0.000000 -2.648871
v 3.061813 3.062798 -2.648871
v 3.061813 0.000000 -2.872472
v 3.061813 3.062798 -2.872472
v -2.838196 0.000000 -2.648871
v -2.838196 3.230356 -2.648871
v -2.838196 0.000000 -2.872472
v -2.838196 3.230356 -2.872472
v -3.061798 0.000000 -2.648871
v -3.061798 3.062798 -2.648871
v -3.061798 0.000000 -2.872472
v -3.061798 3.062798 -2.872472
v 2.838196 0.000000 2.648869
v 2.838196 3.230356 2.648869
v 2.838196 0.000000 2.872469
v 2.838196 3.230356 2.872469
v 3.061798 0.000000 2.648869
v 3.061798 3.062798 2.648869
v 3.061798 0.000000 2.872469
v 3.061798 3.062798 2.872469
v -2.838196 0.000000 2.648869
v -2.838196 3.230356 2.648869
v -2.838196 0.000000 2.872469
v -2.838196 3.230356 2.872469
v -3.061798 0.000000 2.648869
v -3.061798 3.062798 2.648869
v -3.061798 0.000000 2.872469
v -3.061798 3.062798 2.872469
v -2.936272 3.091463 -2.622764
v 2.936295 3.091464 -2.622764
v -2.936272 3.091463 -2.863708
v 2.936295 3.091464 -2.863708
v -2.936272 2.867861 -2.622764
v 2.936295 2.867861 -2.622764
v -2.936272 2.867861 -2.863708
v 2.936295 2.867861 -2.863708
v -2.936279 3.091463 2.622761
v 2.936279 3.091464 2.622761
v -2.936279 3.091463 2.863705
v 2.936279 3.091464 2.863705
v -2.936279 2.867861 2.622761
v 2.936279 2.867861 2.622761
v -2.936279 2.867861 2.863705
v 2.936279 2.867861 2.863705
v -1.803650 6.232611 -0.151839
v -1.803650 3.937147 -0.151839
v -1.803650 6.232611 -1.222194
v -0.680695 6.232611 -0.151839
v -0.680695 6.232611 -1.222194
v -0.680695 3.937147 -0.151839
v -0.680695 3.937147 -1.222194
v -0.680695 3.937147 -0.151839
v -1.803650 3.937147 -0.151839
v -0.680695 3.937147 -1.222194
v -1.803650 3.937147 -1.222194
v -1.803650 3.937147 -1.222194
vt 0.625000 0.500000
vt 0.625000 0.750000
vt 0.375000 0.750000
vt 0.375000 0.500000
vt 0.375000 0.250000
vt 0.375000 0.000000
vt 0.625000 0.000000
vt 0.625000 0.250000
vt 0.625000 0.500000
vt 0.375000 0.500000
vt 0.375000 0.750000
vt 0.625000 0.750000
vt 0.375000 0.250000
vt 0.625000 0.250000
vt 0.625000 0.000000
vt 0.375000 0.000000
vt 0.395874 0.500000
vt 0.395874 0.750000
vt 0.395874 0.750000
vt 0.395874 0.500000
vt 0.385901 0.375000
vt 0.625000 0.375000
vt 0.625000 0.500000
vt 0.250000 0.500000
vt 0.375000 0.500000
vt 0.375000 0.750000
vt 0.250000 0.750000
vt 0.750000 0.500000
vt 0.750000 0.750000
vt 0.625000 0.750000
vt 0.385901 0.875000
vt 0.625000 0.875000
vt 0.625000 1.000000
vt 0.395874 1.000000
vt 0.395874 0.250000
vt 0.395874 0.000000
vt 0.625000 0.000000
vt 0.625000 0.250000
vt 0.875000 0.500000
vt 0.875000 0.750000
vt 0.125000 0.500000
vt 0.125000 0.750000
vt 0.385901 0.875000
vt 0.385901 0.375000
vt 0.375000 0.750000
vt 0.250000 0.750000
vt 0.395874 0.250000
vt 0.125000 0.750000
vt 0.125000 0.500000
vt 0.375000 0.500000
vt 0.375000 0.250000
vt 0.375000 0.375000
vt 0.375000 0.875000
vt 0.375000 0.000000
vt 0.395874 0.000000
vt 0.395874 1.000000
vt 0.375000 1.000000
vt 0.250000 0.500000
vt 0.375000 0.000000
vt 0.625000 0.000000
vt 0.625000 0.250000
vt 0.375000 0.250000
vt 0.625000 0.500000
vt 0.375000 0.500000
vt 0.625000 0.750000
vt 0.375000 0.750000
vt 0.625000 1.000000
vt 0.375000 1.000000
vt 0.125000 0.500000
vt 0.125000 0.750000
vt 0.875000 0.500000
vt 0.875000 0.750000
vt 0.375000 0.000000
vt 0.625000 0.000000
vt 0.625000 0.250000
vt 0.375000 0.250000
vt 0.625000 0.500000
vt 0.375000 0.500000
vt 0.625000 0.750000
vt 0.375000 0.750000
vt 0.625000 1.000000
vt 0.375000 1.000000
vt 0.125000 0.500000
vt 0.125000 0.750000
vt 0.875000 0.500000
vt 0.875000 0.750000
vt 0.375000 0.000000
vt 0.625000 0.000000
vt 0.625000 0.250000
vt 0.375000 0.250000
vt 0.625000 0.500000
vt 0.375000 0.500000
vt 0.625000 0.750000
vt 0.375000 0.750000
vt 0.625000 1.000000
vt 0.375000 1.000000
vt 0.125000 0.500000
vt 0.125000 0.750000
vt 0.875000 0.500000
vt 0.875000 0.750000
vt 0.375000 0.000000
vt 0.625000 0.000000
vt 0.625000 0.250000
vt 0.375000 0.250000
vt 0.625000 0.500000
vt 0.375000 0.500000
vt 0.625000 0.750000
vt 0.375000 0.750000
vt 0.625000 1.000000
vt 0.375000 1.000000
vt 0.125000 0.500000
vt 0.125000 0.750000
vt 0.875000 0.500000
vt 0.875000 0.750000
vt 0.375000 0.000000
vt 0.625000 0.000000
vt 0.625000 0.250000
vt 0.375000 0.250000
vt 0.625000 0.500000
vt 0.375000 0.500000
vt 0.625000 0.750000
vt 0.375000 0.750000
vt 0.625000 1.000000
vt 0.375000 1.000000
vt 0.125000 0.500000
vt 0.125000 0.750000
vt 0.875000 0.500000
vt 0.875000 0.750000
vt 0.375000 0.000000
vt 0.625000 0.000000
vt 0.625000 0.250000
vt 0.375000 0.250000
vt 0.625000 0.500000
vt 0.375000 0.500000
vt 0.625000 0.750000
vt 0.375000 0.750000
vt 0.625000 1.000000
vt 0.375000 1.000000
vt 0.125000 0.500000
vt 0.125000 0.750000
vt 0.875000 0.500000
vt 0.875000 0.750000
vt 0.389558 0.750000
vt 0.625000 0.750000
vt 0.625000 1.000000
vt 0.389558 1.000000
vt 0.389558 0.000000
vt 0.625000 0.000000
vt 0.625000 0.250000
vt 0.389558 0.250000
vt 0.625000 0.500000
vt 0.875000 0.500000
vt 0.875000 0.750000
vt 0.389558 0.500000
vt 0.389558 1.000000
vt 0.389558 0.750000
vt 0.389558 0.500000
vt 0.389558 0.250000
vt 0.389558 0.000000
vn 0.6605 0.7509 0.0000
vn -0.6605 0.7509 0.0000
vn -0.6672 -0.7449 0.0000
vn 0.6672 -0.7449 0.0000
vn 0.0000 0.0000 -1.0000
vn 0.0000 0.0000 1.0000
vn 0.7509 -0.6605 0.0000
vn -0.7509 -0.6605 0.0000
vn 0.0000 1.0000 0.0000
vn 0.0000 -1.0000 0.0000
vn 0.6768 0.7361 0.0000
vn -1.0000 0.0000 0.0000
vn -0.6768 0.7361 0.0000
vn 1.0000 0.0000 0.0000
vn 0.5997 0.8002 0.0000
vn 0.5997 -0.8002 0.0000
vn -0.5997 -0.8002 0.0000
vn -0.5997 0.8002 0.0000
usemtl Material
s off
f 2/1/1 5/2/1 6/3/1 3/4/1
f 1/5/2 4/6/2 5/7/2 2/8/2
f 8/9/3 9/10/3 12/11/3 11/12/3
f 7/13/4 8/14/4 11/15/4 10/16/4
f 1/5/5 2/8/5 8/14/5 7/13/5
f 5/7/6 4/6/6 10/16/6 11/15/6
f 3/4/7 6/3/7 12/11/7 9/10/7
f 4/6/8 1/5/8 7/13/8 10/16/8
f 6/3/6 5/2/6 11/12/6 12/11/6
f 2/1/5 3/4/5 9/10/5 8/9/5
f 26/17/9 28/18/9 36/19/9 34/20/9
f 30/21/5 22/22/5 16/23/5 26/17/5
f 21/24/10 15/25/10 20/26/10 23/27/10
f 22/28/11 24/29/11 19/30/11 16/23/11
f 29/31/6 24/32/6 18/33/6 27/34/6
f 25/35/12 27/36/12 18/37/12 14/38/12
f 28/18/6 19/30/6 24/32/6 29/31/6
f 14/39/13 18/40/13 24/29/13 22/28/13
f 13/41/10 21/24/10 23/27/10 17/42/10
f 25/35/5 14/38/5 22/22/5 30/21/5
f 28/18/9 29/31/9 40/43/9 36/19/9
f 30/21/9 26/17/9 34/20/9 41/44/9
f 23/27/10 20/26/10 37/45/10 38/46/10
f 25/35/9 30/21/9 41/44/9 31/47/9
f 13/41/10 17/42/10 39/48/10 32/49/10
f 16/23/14 19/30/14 28/18/14 26/17/14
f 34/20/14 36/19/14 37/45/14 35/50/14
f 32/51/5 31/47/5 41/44/5 33/52/5
f 37/45/6 36/19/6 40/43/6 38/53/6
f 32/51/12 39/54/12 42/55/12 31/47/12
f 38/53/6 40/43/6 42/56/6 39/57/6
f 33/52/5 41/44/5 34/20/5 35/50/5
f 17/42/10 23/27/10 38/46/10 39/48/10
f 27/36/9 25/35/9 31/47/9 42/55/9
f 21/24/10 13/41/10 32/49/10 33/58/10
f 20/26/10 15/25/10 35/50/10 37/45/10
f 29/31/9 27/34/9 42/56/9 40/43/9
f 15/25/10 21/24/10 33/58/10 35/50/10
f 43/59/12 44/60/12 46/61/12 45/62/12
f 45/62/5 46/61/5 50/63/5 49/64/5
f 49/64/14 50/63/14 48/65/14 47/66/14
f 47/66/6 48/65/6 44/67/6 43/68/6
f 45/69/10 49/64/10 47/66/10 43/70/10
f 50/63/15 46/71/15 44/72/15 48/65/15
f 51/73/12 52/74/12 54/75/12 53/76/12
f 53/76/6 54/75/6 58/77/6 57/78/6
f 57/78/14 58/77/14 56/79/14 55/80/14
f 55/80/5 56/79/5 52/81/5 51/82/5
f 53/83/9 57/78/9 55/80/9 51/84/9
f 58/77/16 54/85/16 52/86/16 56/79/16
f 59/87/14 60/88/14 62/89/14 61/90/14
f 61/90/5 62/89/5 66/91/5 65/92/5
f 65/92/12 66/91/12 64/93/12 63/94/12
f 63/94/6 64/93/6 60/95/6 59/96/6
f 61/97/9 65/92/9 63/94/9 59/98/9
f 66/91/17 62/99/17 60/100/17 64/93/17
f 67/101/14 68/102/14 70/103/14 69/104/14
f 69/104/6 70/103/6 74/105/6 73/106/6
f 73/106/12 74/105/12 72/107/12 71/108/12
f 71/108/5 72/107/5 68/109/5 67/110/5
f 69/111/10 73/106/10 71/108/10 67/112/10
f 74/105/18 70/113/18 68/114/18 72/107/18
f 75/115/9 76/116/9 78/117/9 77/118/9
f 77/118/5 78/117/5 82/119/5 81/120/5
f 81/120/10 82/119/10 80/121/10 79/122/10
f 79/122/6 80/121/6 76/123/6 75/124/6
f 77/125/12 81/120/12 79/122/12 75/126/12
f 82/119/14 78/127/14 76/128/14 80/121/14
f 83/129/10 84/130/10 86/131/10 85/132/10
f 85/132/5 86/131/5 90/133/5 89/134/5
f 89/134/9 90/133/9 88/135/9 87/136/9
f 87/136/6 88/135/6 84/137/6 83/138/6
f 85/139/14 89/134/14 87/136/14 83/140/14
f 90/133/12 86/141/12 84/142/12 88/135/12
f 96/143/6 94/144/6 91/145/6 92/146/6
f 92/147/12 91/148/12 93/149/12 102/150/12
f 95/151/9 93/152/9 91/153/9 94/144/9
f 97/154/14 95/151/14 94/144/14 96/143/14
f 96/143/6 92/146/6 99/155/6 98/156/6
f 97/154/6 96/143/6 98/156/6 100/157/6
f 102/150/6 97/154/6 100/157/6 101/158/6
f 92/147/6 102/150/6 101/158/6 99/159/6
f 102/150/5 93/149/5 95/151/5 97/154/5
